SplineFontDB: 3.0
FontName: Amatic
FullName: Amatic Bold
FamilyName: Amatic
Weight: Bold
Copyright: vernon adams 2011
Version: 1.000
ItalicAngle: 0
UnderlinePosition: -102
UnderlineWidth: 102
Ascent: 1638
Descent: 410
sfntRevision: 0x00010000
LayerCount: 2
Layer: 0 1 "Back"  1
Layer: 1 1 "Fore"  0
NeedsXUIDChange: 1
XUID: [1021 14 500265001 2509695]
FSType: 0
OS2Version: 4
OS2_WeightWidthSlopeOnly: 0
OS2_UseTypoMetrics: 1
CreationTime: 1313748250
ModificationTime: 1315258780
PfmFamily: 81
TTFWeight: 700
TTFWidth: 5
LineGap: 0
VLineGap: 0
Panose: 0 0 0 0 0 0 0 0 0 0
OS2TypoAscent: 443
OS2TypoAOffset: 1
OS2TypoDescent: -91
OS2TypoDOffset: 1
OS2TypoLinegap: 0
OS2WinAscent: -139
OS2WinAOffset: 1
OS2WinDescent: -59
OS2WinDOffset: 1
HheadAscent: -139
HheadAOffset: 1
HheadDescent: 59
HheadDOffset: 1
OS2SubXSize: 1331
OS2SubYSize: 1229
OS2SubXOff: 0
OS2SubYOff: 154
OS2SupXSize: 1331
OS2SupYSize: 1229
OS2SupXOff: 0
OS2SupYOff: 717
OS2StrikeYSize: 102
OS2StrikeYPos: 614
OS2Vendor: 'newt'
OS2CodePages: 00000001.00000000
OS2UnicodeRanges: 00000001.00000000.00000000.00000000
MarkAttachClasses: 1
DEI: 91125
TtTable: prep
PUSHW_2
 2048
 2048
MUL
DUP
PUSHB_1
 10
SWAP
WS
DUP
PUSHB_1
 0
SWAP
WCVTF
PUSHB_1
 16
RCVT
DUP
DUP
PUSHB_1
 40
ADD
FLOOR
DUP
ROLL
NEQ
IF
PUSHB_1
 10
RS
MUL
SWAP
DIV
PUSHB_1
 9
SWAP
WS
PUSHB_4
 5
 6
 3
 2
CALL
PUSHB_4
 7
 12
 3
 2
CALL
PUSHB_4
 13
 18
 3
 2
CALL
ELSE
PUSHB_2
 9
 10
RS
WS
EIF
PUSHB_3
 11
 40
 2
RCVT
GT
WS
PUSHB_4
 7
 12
 4
 2
CALL
EndTTInstrs
TtTable: fpgm
PUSHB_1
 0
FDEF
DUP
ABS
PUSHB_1
 32
ADD
FLOOR
SWAP
PUSHB_1
 0
LT
IF
NEG
EIF
ENDF
PUSHB_1
 1
FDEF
DUP
ABS
DUP
PUSHB_1
 192
LT
PUSHB_1
 4
MINDEX
AND
PUSHB_1
 11
RS
OR
IF
POP
SWAP
POP
ELSE
ROLL
IF
DUP
PUSHB_1
 80
LT
IF
POP
PUSHB_1
 64
EIF
ELSE
DUP
PUSHB_1
 56
LT
IF
POP
PUSHB_1
 56
EIF
EIF
DUP
PUSHB_1
 5
RCVT
SUB
ABS
PUSHB_1
 40
LT
IF
POP
PUSHB_1
 5
RCVT
DUP
PUSHB_1
 48
LT
IF
POP
PUSHB_1
 48
EIF
ELSE
DUP
PUSHB_1
 192
LT
IF
DUP
FLOOR
DUP
ROLL
ROLL
SUB
DUP
PUSHB_1
 10
LT
IF
ADD
ELSE
DUP
PUSHB_1
 32
LT

StartChar: .notdef
Encoding: 65536 -1 0
Width: 748
Flags: W
LayerCount: 2
Fore
SplineSet
68 0 m 1,0,-1
 68 1365 l 1,1,-1
 612 1365 l 1,2,-1
 612 0 l 1,3,-1
 68 0 l 1,0,-1
136 68 m 1,4,-1
 544 68 l 1,5,-1
 544 1297 l 1,6,-1
 136 1297 l 1,7,-1
 136 68 l 1,4,-1
EndSplineSet
EndChar

StartChar: ordfeminine
Encoding: 170 170 1
Width: 692
Flags: W
LayerCount: 2
Fore
SplineSet
365 817.400390625 m 1,0,-1
 311 815.400390625 l 1,1,2
 297.140625 821.134765625 297.140625 821.134765625 247 827.400390625 c 1,3,4
 195 652.400390625 l 1,5,6
 159.002929688 518.216796875 159.002929688 518.216796875 145 504.400390625 c 0,7,8
 139.237304688 498.713867188 139.237304688 498.713867188 118 515.400390625 c 0,9,10
 104 526.400390625 104 526.400390625 104 539.400390625 c 1,11,12
 144.999023438 606.399414062 144.999023438 606.399414062 289.361328125 1210.59765625 c 1,13,14
 304.012695312 1347.68945312 304.012695312 1347.68945312 314 1366 c 1,15,-1
 342 1364 l 1,16,17
 367 1364 367 1364 379 1376 c 1,18,19
 392 1376 392 1376 404 1367.5 c 128,-1,20
 416 1359 416 1359 416 1345 c 1,21,-1
 550 665.900390625 l 2,22,23
 567 576.400390625 567 576.400390625 567 539.900390625 c 128,-1,24
 567 503.400390625 567 503.400390625 551 494.400390625 c 1,25,26
 509.427734375 494.400390625 509.427734375 494.400390625 499.713867188 506.400390625 c 128,-1,27
 490 518.400390625 490 518.400390625 490 544.900390625 c 128,-1,28
 490 571.400390625 490 571.400390625 486.5 609.900390625 c 128,-1,29
 483 648.400390625 483 648.400390625 479.5 671.400390625 c 128,-1,30
 476 694.400390625 476 694.400390625 467.5 743.900390625 c 128,-1,31
 459 793.400390625 459 793.400390625 457 807.400390625 c 1,32,33
 418 817.400390625 418 817.400390625 365 817.400390625 c 1,0,-1
263 892.400390625 m 1,34,-1
 337 876.400390625 l 1,35,36
 421.684570312 868.401367188 421.684570312 868.401367188 436 862.400390625 c 1,37,-1
 457 862.400390625 l 1,38,-1
 359 1282.40039062 l 1,39,40
 302.999023438 1032.39941406 302.999023438 1032.39941406 263 892.400390625 c 1,34,-1
557.5 392.900390625 m 0,41,42
 557.5 385.900390625 557.5 385.900390625 425 380.400390625 c 128,-1,43
 292.5 374.900390625 292.5 374.900390625 205.5 374.900390625 c 0,44,45
 190.5 374.900390625 190.5 374.900390625 176.5 384.400390625 c 128,-1,46
 162.5 393.900390625 162.5 393.900390625 162.5 409.900390625 c 0,47,48
 162.5 416.900390625 162.5 416.900390625 296.5 422.400390625 c 128,-1,49
 430.5 427.900390625 430.5 427.900390625 512.5 427.900390625 c 0,50,51
 527.5 427.900390625 527.5 427.900390625 542.5 417.400390625 c 128,-1,52
 557.5 406.900390625 557.5 406.900390625 557.5 392.900390625 c 0,41,42
EndSplineSet
EndChar

StartChar: ordmasculine
Encoding: 186 186 2
Width: 729
Flags: W
LayerCount: 2
Fore
SplineSet
606.866210938 825.5 m 1,0,1
 606.866210938 663.72265625 606.866210938 663.72265625 458.866210938 563 c 0,2,3
 422.866210938 538.5 422.866210938 538.5 377.866210938 538.5 c 0,4,5
 136 538.5 136 538.5 136 887.48828125 c 0,6,7
 136 918.147460938 136 918.147460938 137.866210938 951.5 c 0,8,9
 140.95703125 1007.63769531 140.95703125 1007.63769531 178.366210938 1220.5 c 0,10,11
 188.861328125 1281.37011719 188.861328125 1281.37011719 244.251953125 1314.40039062 c 0,12,13
 274.663085938 1333.44335938 274.663085938 1333.44335938 333.6796875 1333.44335938 c 0,14,15
 379.428710938 1333.44335938 379.428710938 1333.44335938 442.366210938 1322 c 0,16,17
 483.298828125 1314.55761719 483.298828125 1314.55761719 520.866210938 1243 c 1,18,19
 602.240234375 1112.90429688 602.240234375 1112.90429688 606.866210938 825.5 c 1,0,1
201.866210938 953.5 m 1,20,21
 206.356445312 597.5 206.356445312 597.5 369.366210938 597.5 c 0,22,23
 543.866210938 597.5 543.866210938 597.5 543.866210938 841.5 c 0,24,25
 543.866210938 1145.5 543.866210938 1145.5 480.366210938 1209.75 c 0,26,27
 397.100585938 1294 397.100585938 1294 344.866210938 1294 c 0,28,29
 219.586914062 1294 219.586914062 1294 201.866210938 953.5 c 1,20,21
551.866210938 448.900390625 m 0,30,31
 551.866210938 441.900390625 551.866210938 441.900390625 419.366210938 436.400390625 c 128,-1,32
 286.866210938 430.900390625 286.866210938 430.900390625 199.866210938 430.900390625 c 0,33,34
 184.866210938 430.900390625 184.866210938 430.900390625 170.866210938 440.400390625 c 128,-1,35
 156.866210938 449.900390625 156.866210938 449.900390625 156.866210938 465.900390625 c 0,36,37
 156.866210938 472.900390625 156.866210938 472.900390625 290.866210938 478.400390625 c 128,-1,38
 424.866210938 483.900390625 424.866210938 483.900390625 506.866210938 483.900390625 c 0,39,40
 521.866210938 483.900390625 521.866210938 483.900390625 536.866210938 473.400390625 c 128,-1,41
 551.866210938 462.900390625 551.866210938 462.900390625 551.866210938 448.900390625 c 0,30,31
EndSplineSet
EndChar

StartChar: exclam
Encoding: 33 33 4
Width: 345
Flags: W
LayerCount: 2
Fore
SplineSet
165 303 m 0,0,1
 135 303 135 303 135 482 c 0,2,3
 135 540 135 540 134.5 654 c 128,-1,4
 134 768 134 768 134 821 c 0,5,6
 134 933 134 933 125.5 1157 c 128,-1,7
 117 1381 117 1381 117 1493 c 0,8,9
 117 1525 117 1525 144 1548.5 c 128,-1,10
 171 1572 171 1572 204 1572 c 0,11,12
 225 1572 225 1572 239.5 1557.5 c 128,-1,13
 254 1543 254 1543 254 1522 c 0,14,15
 254 1358 254 1358 228.5 1032 c 128,-1,16
 203 706 203 706 203 543 c 0,17,18
 203 524 203 524 201 486 c 128,-1,19
 199 448 199 448 199 430 c 0,20,21
 199 303 199 303 165 303 c 0,0,1
148 -38 m 1,22,23
 98 -25 98 -25 70 33 c 1,24,25
 70 68 70 68 95 96.5 c 128,-1,26
 120 125 120 125 155 125 c 0,27,28
 194 125 194 125 216.5 96 c 128,-1,29
 239 67 239 67 239 26 c 0,30,31
 239 -46 239 -46 148 -52 c 1,32,-1
 148 -38 l 1,22,23
EndSplineSet
EndChar

StartChar: quotedbl
Encoding: 34 34 5
Width: 489
Flags: W
LayerCount: 2
Fore
SplineSet
103 1531 m 0,0,1
 103 1551 103 1551 116 1564.5 c 128,-1,2
 129 1578 129 1578 144 1578 c 0,3,4
 186 1578 186 1578 193 1525 c 0,5,6
 193 1523 193 1523 193.5 1517.5 c 128,-1,7
 194 1512 194 1512 194 1511 c 0,8,9
 194 1422 194 1422 170.5 1307.5 c 128,-1,10
 147 1193 147 1193 119 1193 c 0,11,12
 117 1193 117 1193 113 1257 c 128,-1,13
 109 1321 109 1321 106 1403 c 128,-1,14
 103 1485 103 1485 103 1531 c 0,0,1
289 1531 m 0,15,16
 289 1551 289 1551 308.5 1564.5 c 128,-1,17
 328 1578 328 1578 350 1578 c 0,18,19
 375 1578 375 1578 384 1531 c 1,20,21
 381 1433 381 1433 364 1313 c 128,-1,22
 347 1193 347 1193 325 1193 c 0,23,24
 316 1193 316 1193 302.5 1324 c 128,-1,25
 289 1455 289 1455 289 1531 c 0,15,16
EndSplineSet
EndChar

StartChar: numbersign
Encoding: 35 35 6
Width: 795
Flags: W
LayerCount: 2
Fore
SplineSet
309 686 m 1,0,1
 317 685 317 685 334 685 c 0,2,3
 442 685 442 685 495 681 c 1,4,5
 515 859 515 859 516 952 c 1,6,7
 482 960 482 960 424 960 c 0,8,9
 373 960 373 960 341 954 c 1,10,11
 315 859 315 859 309 686 c 1,0,1
424 -47 m 0,12,13
 424 53 424 53 433.5 152 c 128,-1,14
 443 251 443 251 461 379 c 128,-1,15
 479 507 479 507 487 581 c 1,16,17
 442 585 442 585 351 585 c 2,18,-1
 301 585 l 1,19,20
 294 543 294 543 275 367 c 128,-1,21
 256 191 256 191 235 65.5 c 128,-1,22
 214 -60 214 -60 190 -80 c 0,23,24
 185 -84 185 -84 177 -84 c 0,25,26
 162 -84 162 -84 147 -70 c 128,-1,27
 132 -56 132 -56 132 -40 c 0,28,29
 132 60 132 60 144 166 c 128,-1,30
 156 272 156 272 176 393.5 c 128,-1,31
 196 515 196 515 203 576 c 1,32,33
 158 571 158 571 143 571 c 0,34,35
 58 571 58 571 58 637 c 0,36,37
 58 683 58 683 154 683 c 0,38,39
 168 683 168 683 189.5 682 c 128,-1,40
 211 681 211 681 216 681 c 1,41,42
 235 790 235 790 247 948 c 1,43,44
 208 945 208 945 196 945 c 0,45,46
 99 945 99 945 99 1004 c 2,47,-1
 99 1047 l 1,48,49
 109 1047 109 1047 145.5 1046.5 c 128,-1,50
 182 1046 182 1046 192 1046 c 0,51,52
 224 1046 224 1046 255 1049 c 1,53,54
 259 1084 259 1084 273 1174.5 c 128,-1,55
 287 1265 287 1265 293.5 1330 c 128,-1,56
 300 1395 300 1395 300 1457 c 0,57,58
 300 1462 300 1462 299.5 1474.5 c 128,-1,59
 299 1487 299 1487 299 1494 c 0,60,61
 299 1527 299 1527 309.5 1547 c 128,-1,62
 320 1567 320 1567 352 1567 c 1,63,-1
 388 1520 l 1,64,65
 388 1440 388 1440 371 1286.5 c 128,-1,66
 354 1133 354 1133 353 1058 c 1,67,68
 370 1054 370 1054 405 1054 c 2,69,-1
 444 1054 l 2,70,71
 507 1054 507 1054 539 1056 c 1,72,73
 551 1127 551 1127 561 1206.5 c 128,-1,74
 571 1286 571 1286 581.5 1384 c 128,-1,75
 592 1482 592 1482 599 1535 c 1,76,77
 623 1566 623 1566 652 1566 c 0,78,79
 667 1566 667 1566 683.5 1554 c 128,-1,80
 700 1542 700 1542 700 1528 c 0,81,82
 700 1495 700 1495 690.5 1426 c 128,-1,83
 681 1357 681 1357 670.5 1296.5 c 128,-1,84
 660 1236 660 1236 645 1155.5 c 128,-1,85
 630 1075 630 1075 627 1056 c 1,86,-1
 693 1056 l 1,87,-1
 736 1020 l 1,88,89
 732 1002 732 1002 727 990.5 c 128,-1,90
 722 979 722 979 710.5 969 c 128,-1,91
 699 959 699 959 682 959 c 2,92,-1
 615 959 l 1,93,94
 592 853 592 853 590 698 c 1,95,96
 594 698 594 698 601 698.5 c 128,-1,97
 608 699 608 699 611 699 c 0,98,99
 696 699 696 699 696 637 c 0,100,101
 696 586 696 586 619 586 c 2,102,-1
 613 586 l 1,103,104
 604 484 604 484 570 278.5 c 128,-1,105
 536 73 536 73 527 -39 c 0,106,107
 525 -62 525 -62 506 -77 c 128,-1,108
 487 -92 487 -92 465 -92 c 0,109,110
 447 -92 447 -92 435.5 -81 c 128,-1,111
 424 -70 424 -70 424 -47 c 0,12,13
EndSplineSet
EndChar

StartChar: dollar
Encoding: 36 36 7
Width: 542
Flags: W
LayerCount: 2
Fore
SplineSet
66 1286 m 0,0,1
 66 1356 66 1356 93 1427.5 c 128,-1,2
 120 1499 120 1499 179 1518 c 1,3,4
 173 1566 173 1566 173 1584 c 0,5,6
 173 1641 173 1641 204 1641 c 1,7,8
 215 1640 215 1640 222 1637 c 128,-1,9
 229 1634 229 1634 233 1630.5 c 128,-1,10
 237 1627 237 1627 238.5 1617 c 128,-1,11
 240 1607 240 1607 240.5 1600.5 c 128,-1,12
 241 1594 241 1594 241 1577 c 0,13,14
 241 1529 241 1529 248 1529 c 0,15,16
 284 1529 284 1529 326 1502 c 1,17,18
 330 1497 330 1497 347.5 1481 c 128,-1,19
 365 1465 365 1465 376 1454 c 128,-1,20
 387 1443 387 1443 397 1427 c 128,-1,21
 407 1411 407 1411 407 1399 c 256,22,23
 407 1387 407 1387 403 1376 c 128,-1,24
 399 1365 399 1365 391.5 1358.5 c 128,-1,25
 384 1352 384 1352 374 1352 c 0,26,27
 350 1352 350 1352 329.5 1367 c 128,-1,28
 309 1382 309 1382 286.5 1405 c 128,-1,29
 264 1428 264 1428 246 1439 c 1,30,31
 246 1414 246 1414 247.5 1366 c 128,-1,32
 249 1318 249 1318 249 1293 c 0,33,34
 249 1270 249 1270 250 1244.5 c 128,-1,35
 251 1219 251 1219 252.5 1199 c 128,-1,36
 254 1179 254 1179 256.5 1150.5 c 128,-1,37
 259 1122 259 1122 260.5 1105 c 128,-1,38
 262 1088 262 1088 265.5 1056 c 128,-1,39
 269 1024 269 1024 270 1010 c 1,40,41
 275 1011 275 1011 298.5 962.5 c 128,-1,42
 322 914 322 914 354 838.5 c 128,-1,43
 386 763 386 763 416.5 682 c 128,-1,44
 447 601 447 601 468.5 528 c 128,-1,45
 490 455 490 455 490 421 c 0,46,47
 490 381 490 381 479.5 344.5 c 128,-1,48
 469 308 469 308 452.5 282.5 c 128,-1,49
 436 257 436 257 415 235.5 c 128,-1,50
 394 214 394 214 374.5 201 c 128,-1,51
 355 188 355 188 336 180 c 1,52,53
 342 71 342 71 342 64 c 0,54,55
 342 -16 342 -16 306 -16 c 0,56,57
 285 -16 285 -16 275.5 2.5 c 128,-1,58
 266 21 266 21 266 45 c 2,59,-1
 266 163 l 1,60,61
 177 163 177 163 128.5 187.5 c 128,-1,62
 80 212 80 212 80 281 c 0,63,64
 80 298 80 298 92.5 311 c 128,-1,65
 105 324 105 324 122 324 c 0,66,67
 138 324 138 324 148.5 312.5 c 128,-1,68
 159 301 159 301 169.5 280 c 128,-1,69
 180 259 180 259 187 250 c 1,70,71
 189 250 189 250 202.5 246.5 c 128,-1,72
 216 243 216 243 222 243 c 0,73,74
 230 243 230 243 245 245.5 c 128,-1,75
 260 248 260 248 266 248 c 1,76,77
 265 298 265 298 258 438.5 c 128,-1,78
 251 579 251 579 244 695 c 1,79,-1
 236 810 l 1,80,81
 218 849 218 849 189 904 c 128,-1,82
 160 959 160 959 141.5 995.5 c 128,-1,83
 123 1032 123 1032 104 1079.5 c 128,-1,84
 85 1127 85 1127 75.5 1178 c 128,-1,85
 66 1229 66 1229 66 1286 c 0,0,1
392 385 m 0,86,87
 392 442 392 442 376.5 511 c 128,-1,88
 361 580 361 580 347.5 618.5 c 128,-1,89
 334 657 334 657 311 717 c 0,90,91
 309 721 309 721 308 723.5 c 128,-1,92
 307 726 307 726 306 729 c 128,-1,93
 305 732 305 732 304 735 c 1,94,95
 306 673 306 673 316 514 c 128,-1,96
 326 355 326 355 328 269 c 1,97,98
 392 323 392 323 392 385 c 0,86,87
212 1084 m 1,99,100
 198 1186 198 1186 188 1418 c 1,101,102
 162 1393 162 1393 154 1361 c 128,-1,103
 146 1329 146 1329 146 1286 c 0,104,105
 146 1195 146 1195 212 1084 c 1,99,100
EndSplineSet
EndChar

StartChar: percent
Encoding: 37 37 8
Width: 1127
Flags: W
LayerCount: 2
Fore
SplineSet
267 700 m 0,0,1
 232 700 232 700 203 713.5 c 128,-1,2
 174 727 174 727 154.5 753.5 c 128,-1,3
 135 780 135 780 120 809 c 128,-1,4
 105 838 105 838 96.5 880.5 c 128,-1,5
 88 923 88 923 82.5 955 c 128,-1,6
 77 987 77 987 75 1033 c 128,-1,7
 73 1079 73 1079 72.5 1102.5 c 128,-1,8
 72 1126 72 1126 72 1163 c 0,9,10
 72 1206 72 1206 80 1264.5 c 128,-1,11
 88 1323 88 1323 105 1391.5 c 128,-1,12
 122 1460 122 1460 158 1506.5 c 128,-1,13
 194 1553 194 1553 241 1553 c 0,14,15
 470 1553 470 1553 470 1147 c 0,16,17
 470 1130 470 1130 471 1087 c 128,-1,18
 472 1044 472 1044 472.5 1015.5 c 128,-1,19
 473 987 473 987 470 943 c 128,-1,20
 467 899 467 899 460.5 869 c 128,-1,21
 454 839 454 839 439 804.5 c 128,-1,22
 424 770 424 770 402 749 c 128,-1,23
 380 728 380 728 345.5 714 c 128,-1,24
 311 700 311 700 267 700 c 0,0,1
841 2 m 0,25,26
 804 2 804 2 774.5 31 c 128,-1,27
 745 60 745 60 727.5 102.5 c 128,-1,28
 710 145 710 145 698.5 197.5 c 128,-1,29
 687 250 687 250 683 293 c 128,-1,30
 679 336 679 336 679 370 c 1,31,32
 676 409 676 409 676 451.5 c 128,-1,33
 676 494 676 494 679 550 c 128,-1,34
 682 606 682 606 694.5 654.5 c 128,-1,35
 707 703 707 703 726.5 745.5 c 128,-1,36
 746 788 746 788 780.5 813 c 128,-1,37
 815 838 815 838 860 838 c 0,38,39
 899 838 899 838 930.5 824 c 128,-1,40
 962 810 962 810 982 788 c 128,-1,41
 1002 766 1002 766 1017 731 c 128,-1,42
 1032 696 1032 696 1039.5 663.5 c 128,-1,43
 1047 631 1047 631 1051.5 585.5 c 128,-1,44
 1056 540 1056 540 1057 507 c 128,-1,45
 1058 474 1058 474 1058 429 c 2,46,-1
 1058 378 l 2,47,48
 1058 314 1058 314 1049 255 c 128,-1,49
 1040 196 1040 196 1018 135.5 c 128,-1,50
 996 75 996 75 950.5 38.5 c 128,-1,51
 905 2 905 2 841 2 c 0,25,26
347 65 m 0,52,53
 347 103 347 103 360.5 182 c 128,-1,54
 374 261 374 261 402.5 379.5 c 128,-1,55
 431 498 431 498 456 600 c 128,-1,56
 481 702 481 702 523 855.5 c 128,-1,57
 565 1009 565 1009 585 1084 c 128,-1,58
 605 1159 605 1159 644 1297 c 128,-1,59
 683 1435 683 1435 683 1437 c 0,60,61
 684 1468 684 1468 699 1502 c 128,-1,62
 714 1536 714 1536 741 1536 c 0,63,64
 763 1536 763 1536 778.5 1522.5 c 128,-1,65
 794 1509 794 1509 794 1487 c 0,66,67
 794 1432 794 1432 760.5 1286 c 128,-1,68
 727 1140 727 1140 678.5 957 c 128,-1,69
 630 774 630 774 620 732 c 0,70,71
 550 429 550 429 428 36 c 0,72,73
 420 10 420 10 399 10 c 0,74,75
 382 10 382 10 364.5 32 c 128,-1,76
 347 54 347 54 347 65 c 0,52,53
248 1449 m 0,77,78
 223 1449 223 1449 197 1332 c 128,-1,79
 171 1215 171 1215 171 1165 c 0,80,81
 171 1143 171 1143 172 1115.5 c 128,-1,82
 173 1088 173 1088 176 1043 c 128,-1,83
 179 998 179 998 185.5 958 c 128,-1,84
 192 918 192 918 201.5 881 c 128,-1,85
 211 844 211 844 227.5 822 c 128,-1,86
 244 800 244 800 264 800 c 0,87,88
 376 800 376 800 376 1092 c 0,89,90
 376 1449 376 1449 248 1449 c 0,77,78
854 733 m 0,91,92
 826 733 826 733 806.5 684.5 c 128,-1,93
 787 636 787 636 781.5 573 c 128,-1,94
 776 510 776 510 773.5 449.5 c 128,-1,95
 771 389 771 389 777 366 c 1,96,97
 777 322 777 322 799.5 219 c 128,-1,98
 822 116 822 116 845 116 c 0,99,100
 958 116 958 116 958 386 c 2,101,-1
 958 434 l 2,102,103
 958 733 958 733 854 733 c 0,91,92
EndSplineSet
EndChar

StartChar: ampersand
Encoding: 38 38 9
Width: 937
Flags: W
LayerCount: 2
Fore
SplineSet
277 969 m 1,0,1
 172 797 172 797 172 570 c 0,2,3
 172 501 172 501 190 439 c 128,-1,4
 208 377 208 377 255 330 c 128,-1,5
 302 283 302 283 371 283 c 0,6,7
 402 283 402 283 448.5 300 c 128,-1,8
 495 317 495 317 515 338 c 1,9,10
 508 348 508 348 484 372 c 1,11,12
 436 424 436 424 400 494 c 128,-1,13
 364 564 364 564 339.5 658.5 c 128,-1,14
 315 753 315 753 304.5 808.5 c 128,-1,15
 294 864 294 864 277 969 c 1,0,1
815 902 m 1,16,17
 873 890 873 890 873 848 c 0,18,19
 873 792 873 792 760 792 c 2,20,-1
 709 792 l 1,21,22
 709 731 709 731 704 654 c 1,23,24
 713 655 713 655 701 597.5 c 128,-1,25
 689 540 689 540 666.5 467 c 128,-1,26
 644 394 644 394 625 355 c 1,27,28
 686 292 686 292 755 292 c 0,29,30
 769 292 769 292 796.5 295 c 128,-1,31
 824 298 824 298 838 298 c 1,32,-1
 876 267 l 1,33,34
 876 226 876 226 847.5 212.5 c 128,-1,35
 819 199 819 199 772 199 c 0,36,37
 677 199 677 199 575 276 c 1,38,39
 465 198 465 198 354 198 c 0,40,41
 278 198 278 198 213 250.5 c 128,-1,42
 148 303 148 303 113 380 c 128,-1,43
 78 457 78 457 78 534 c 0,44,45
 78 619 78 619 88 689 c 128,-1,46
 98 759 98 759 125 833 c 128,-1,47
 152 907 152 907 173.5 953.5 c 128,-1,48
 195 1000 195 1000 242 1095 c 0,49,50
 252 1115 252 1115 257 1125 c 1,51,52
 257 1170 257 1170 250 1263.5 c 128,-1,53
 243 1357 243 1357 243 1406 c 2,54,-1
 243 1576 l 2,55,56
 243 1609 243 1609 249.5 1641 c 128,-1,57
 256 1673 256 1673 276.5 1700.5 c 128,-1,58
 297 1728 297 1728 329 1728 c 0,59,60
 387 1728 387 1728 443.5 1692 c 128,-1,61
 500 1656 500 1656 500 1600 c 0,62,63
 500 1582 500 1582 497 1547.5 c 128,-1,64
 494 1513 494 1513 494 1496 c 0,65,66
 494 1475 494 1475 499 1452 c 1,67,68
 482 1414 482 1414 452.5 1322 c 128,-1,69
 423 1230 423 1230 399 1184 c 0,70,71
 395 1176 395 1176 381 1155 c 128,-1,72
 367 1134 367 1134 358 1116.5 c 128,-1,73
 349 1099 349 1099 349 1086 c 0,74,75
 349 988 349 988 424.5 734.5 c 128,-1,76
 500 481 500 481 555 418 c 1,77,78
 617 565 617 565 617 780 c 2,79,-1
 617 789 l 1,80,81
 582 789 582 789 566 824 c 1,82,-1
 566 876 l 1,83,84
 617 876 617 876 699 883.5 c 128,-1,85
 781 891 781 891 815 902 c 1,16,17
333 1471 m 2,86,87
 333 1440 333 1440 334 1378.5 c 128,-1,88
 335 1317 335 1317 335 1286 c 2,89,-1
 335 1263 l 1,90,91
 362 1321 362 1321 387 1402 c 128,-1,92
 412 1483 412 1483 412 1531 c 0,93,94
 412 1628 412 1628 364 1630 c 1,95,96
 350 1618 350 1618 333 1580 c 1,97,-1
 333 1471 l 2,86,87
EndSplineSet
EndChar

StartChar: quotesingle
Encoding: 39 39 10
Width: 318
Flags: W
LayerCount: 2
Fore
SplineSet
100 1531 m 0,0,1
 100 1551 100 1551 119.5 1564.5 c 128,-1,2
 139 1578 139 1578 161 1578 c 0,3,4
 198 1578 198 1578 215 1531 c 1,5,-1
 215 1525 l 2,6,7
 215 1523 215 1523 213 1517.5 c 128,-1,8
 211 1512 211 1512 211 1511 c 0,9,10
 211 1422 211 1422 187.5 1307.5 c 128,-1,11
 164 1193 164 1193 136 1193 c 0,12,13
 127 1193 127 1193 113.5 1324 c 128,-1,14
 100 1455 100 1455 100 1531 c 0,0,1
EndSplineSet
EndChar

StartChar: parenleft
Encoding: 40 40 11
Width: 467
Flags: W
LayerCount: 2
Fore
SplineSet
336 -130 m 0,0,1
 346 -152 346 -152 366.5 -188.5 c 128,-1,2
 387 -225 387 -225 401.5 -256.5 c 128,-1,3
 416 -288 416 -288 424 -318 c 1,4,5
 417 -336 417 -336 401 -348.5 c 128,-1,6
 385 -361 385 -361 366 -361 c 0,7,8
 312 -361 312 -361 263 -249 c 128,-1,9
 214 -137 214 -137 182 24.5 c 128,-1,10
 150 186 150 186 126 366 c 128,-1,11
 102 546 102 546 91 682.5 c 128,-1,12
 80 819 80 819 80 881 c 0,13,14
 80 934 80 934 95 1053 c 128,-1,15
 110 1172 110 1172 136.5 1309.5 c 128,-1,16
 163 1447 163 1447 207.5 1549 c 128,-1,17
 252 1651 252 1651 301 1651 c 2,18,-1
 346 1651 l 1,19,20
 346 1629 346 1629 341.5 1606 c 128,-1,21
 337 1583 337 1583 327 1553.5 c 128,-1,22
 317 1524 317 1524 311.5 1508.5 c 128,-1,23
 306 1493 306 1493 290.5 1457.5 c 128,-1,24
 275 1422 275 1422 273 1416 c 0,25,26
 228 1305 228 1305 205 1160.5 c 128,-1,27
 182 1016 182 1016 182 879 c 0,28,29
 182 607 182 607 217.5 329.5 c 128,-1,30
 253 52 253 52 336 -130 c 0,0,1
EndSplineSet
EndChar

StartChar: parenright
Encoding: 41 41 12
Width: 482
Flags: W
LayerCount: 2
Fore
SplineSet
406 817 m 1,0,-1
 406 815 l 2,1,2
 406 762 406 762 390.5 636 c 128,-1,3
 375 510 375 510 345.5 350 c 128,-1,4
 316 190 316 190 280 43.5 c 128,-1,5
 244 -103 244 -103 195 -203 c 128,-1,6
 146 -303 146 -303 98 -303 c 0,7,8
 77 -303 77 -303 60.5 -289.5 c 128,-1,9
 44 -276 44 -276 44 -255 c 0,10,11
 44 -238 44 -238 60.5 -203 c 128,-1,12
 77 -168 77 -168 101 -125.5 c 128,-1,13
 125 -83 125 -83 130 -71 c 0,14,15
 205 95 205 95 254.5 357 c 128,-1,16
 304 619 304 619 304 816 c 0,17,18
 304 969 304 969 281.5 1136 c 128,-1,19
 259 1303 259 1303 213 1416 c 0,20,21
 205 1436 205 1436 184 1475 c 128,-1,22
 163 1514 163 1514 151 1546 c 128,-1,23
 139 1578 139 1578 139 1610 c 2,24,-1
 139 1621 l 1,25,-1
 176 1621 l 2,26,27
 234 1621 234 1621 281 1517 c 128,-1,28
 328 1413 328 1413 353 1268 c 128,-1,29
 378 1123 378 1123 391.5 1003 c 128,-1,30
 405 883 405 883 406 817 c 1,0,-1
EndSplineSet
EndChar

StartChar: asterisk
Encoding: 42 42 13
Width: 893
Flags: W
LayerCount: 2
Fore
SplineSet
211 736 m 1,0,-1
 211 742 l 1,1,2
 212 781 212 781 283 924 c 128,-1,3
 354 1067 354 1067 364 1096 c 1,4,-1
 141 1096 l 2,5,6
 138 1096 138 1096 133 1096 c 0,7,8
 113 1096 113 1096 104 1097 c 128,-1,9
 95 1098 95 1098 83.5 1102.5 c 128,-1,10
 72 1107 72 1107 67.5 1118.5 c 128,-1,11
 63 1130 63 1130 63 1150 c 0,12,13
 63 1169 63 1169 76.5 1183.5 c 128,-1,14
 90 1198 90 1198 109 1198 c 2,15,-1
 350 1198 l 1,16,17
 346 1206 346 1206 319 1260 c 128,-1,18
 292 1314 292 1314 272.5 1354.5 c 128,-1,19
 253 1395 253 1395 234.5 1440 c 128,-1,20
 216 1485 216 1485 216 1501 c 0,21,22
 216 1522 216 1522 233 1534.5 c 128,-1,23
 250 1547 250 1547 272 1547 c 0,24,25
 296 1547 296 1547 326 1488.5 c 128,-1,26
 356 1430 356 1430 384.5 1349 c 128,-1,27
 413 1268 413 1268 418 1258 c 1,28,29
 420 1265 420 1265 433.5 1311.5 c 128,-1,30
 447 1358 447 1358 459 1394 c 128,-1,31
 471 1430 471 1430 488.5 1473.5 c 128,-1,32
 506 1517 506 1517 526 1542 c 128,-1,33
 546 1567 546 1567 565 1567 c 0,34,35
 586 1567 586 1567 603.5 1550.5 c 128,-1,36
 621 1534 621 1534 621 1512 c 0,37,38
 621 1506 621 1506 619.5 1499.5 c 128,-1,39
 618 1493 618 1493 616 1488 c 128,-1,40
 614 1483 614 1483 610.5 1476.5 c 128,-1,41
 607 1470 607 1470 604.5 1466 c 128,-1,42
 602 1462 602 1462 597 1455 c 128,-1,43
 592 1448 592 1448 590 1445 c 0,44,45
 563 1403 563 1403 537 1310 c 128,-1,46
 511 1217 511 1217 502 1194 c 1,47,48
 540 1189 540 1189 590 1189 c 0,49,50
 601 1189 601 1189 649 1194 c 128,-1,51
 697 1199 697 1199 725 1199 c 0,52,53
 829 1199 829 1199 829 1137 c 0,54,55
 829 1085 829 1085 758 1085 c 0,56,57
 713 1085 713 1085 625 1089.5 c 128,-1,58
 537 1094 537 1094 495 1094 c 1,59,60
 501 1077 501 1077 572 934 c 128,-1,61
 643 791 643 791 643 752 c 0,62,63
 643 731 643 731 619 711 c 128,-1,64
 595 691 595 691 573 691 c 1,65,-1
 433 1011 l 1,66,67
 424 987 424 987 405 934 c 128,-1,68
 386 881 386 881 374 848.5 c 128,-1,69
 362 816 362 816 342.5 772.5 c 128,-1,70
 323 729 323 729 304 697 c 1,71,-1
 255 697 l 1,72,-1
 211 736 l 1,0,-1
EndSplineSet
EndChar

StartChar: plus
Encoding: 43 43 14
Width: 740
Flags: W
LayerCount: 2
Fore
SplineSet
412 909 m 2,0,-1
 412 884 l 2,1,2
 412 878 412 878 411.5 853.5 c 128,-1,3
 411 829 411 829 411.5 805.5 c 128,-1,4
 412 782 412 782 413 757 c 128,-1,5
 414 732 414 732 418.5 716.5 c 128,-1,6
 423 701 423 701 431 701 c 0,7,8
 441 701 441 701 482.5 705 c 128,-1,9
 524 709 524 709 550 709 c 0,10,11
 656 709 656 709 656 647 c 0,12,13
 656 623 656 623 639 607 c 128,-1,14
 622 591 622 591 598 591 c 0,15,16
 578 591 578 591 537.5 596.5 c 128,-1,17
 497 602 497 602 477 602 c 0,18,19
 412 602 412 602 412 553 c 0,20,21
 412 526 412 526 421.5 471.5 c 128,-1,22
 431 417 431 417 431 389 c 0,23,24
 431 364 431 364 410.5 348.5 c 128,-1,25
 390 333 390 333 364 333 c 0,26,27
 340 333 340 333 319 347.5 c 128,-1,28
 298 362 298 362 298 385 c 0,29,30
 298 418 298 418 301 484.5 c 128,-1,31
 304 551 304 551 304 584 c 2,32,-1
 304 599 l 1,33,34
 292 599 292 599 242 594.5 c 128,-1,35
 192 590 192 590 171 590 c 0,36,37
 84 590 84 590 84 655 c 0,38,39
 84 676 84 676 96.5 692 c 128,-1,40
 109 708 109 708 130 708 c 0,41,42
 150 708 150 708 190.5 704.5 c 128,-1,43
 231 701 231 701 251 701 c 0,44,45
 277 701 277 701 298 705 c 1,46,47
 297 726 297 726 291.5 777 c 128,-1,48
 286 828 286 828 286 855 c 0,49,50
 286 968 286 968 352 968 c 0,51,52
 376 968 376 968 394 950.5 c 128,-1,53
 412 933 412 933 412 909 c 2,0,-1
EndSplineSet
EndChar

StartChar: comma
Encoding: 44 44 15
Width: 425
Flags: W
LayerCount: 2
Fore
SplineSet
82 -202 m 1,0,-1
 82 -130 l 1,1,2
 90 -122 90 -122 121.5 -96.5 c 128,-1,3
 153 -71 153 -71 172.5 -48.5 c 128,-1,4
 192 -26 192 -26 196 -4 c 1,5,6
 137 39 137 39 137 97 c 0,7,8
 137 134 137 134 168.5 159 c 128,-1,9
 200 184 200 184 238 184 c 0,10,11
 275 184 275 184 296 161.5 c 128,-1,12
 317 139 317 139 332 98 c 1,13,-1
 332 91 l 2,14,15
 332 89 332 89 330.5 84.5 c 128,-1,16
 329 80 329 80 329 77 c 0,17,18
 329 30 329 30 303 -35 c 128,-1,19
 277 -100 277 -100 232 -151 c 128,-1,20
 187 -202 187 -202 143 -202 c 2,21,-1
 82 -202 l 1,0,-1
EndSplineSet
EndChar

StartChar: hyphen
Encoding: 45 45 16
Width: 649
Flags: W
LayerCount: 2
Fore
SplineSet
546 739 m 0,0,1
 546 728 546 728 497.5 719.5 c 128,-1,2
 449 711 449 711 378.5 707.5 c 128,-1,3
 308 704 308 704 256 702.5 c 128,-1,4
 204 701 204 701 171 701 c 0,5,6
 145 701 145 701 124.5 718 c 128,-1,7
 104 735 104 735 104 760 c 0,8,9
 104 771 104 771 152.5 779.5 c 128,-1,10
 201 788 201 788 271.5 791.5 c 128,-1,11
 342 795 342 795 393.5 796.5 c 128,-1,12
 445 798 445 798 478 798 c 0,13,14
 504 798 504 798 525 781.5 c 128,-1,15
 546 765 546 765 546 739 c 0,0,1
EndSplineSet
EndChar

StartChar: period
Encoding: 46 46 17
Width: 355
Flags: W
LayerCount: 2
Fore
SplineSet
105 41 m 0,0,1
 105 72 105 72 128 96 c 128,-1,2
 151 120 151 120 182 120 c 0,3,4
 211 120 211 120 233 96 c 128,-1,5
 255 72 255 72 255 43 c 0,6,7
 255 9 255 9 232 -11.5 c 128,-1,8
 209 -32 209 -32 174 -32 c 0,9,10
 146 -32 146 -32 125.5 -9.5 c 128,-1,11
 105 13 105 13 105 41 c 0,0,1
EndSplineSet
EndChar

StartChar: slash
Encoding: 47 47 18
Width: 567
Flags: W
LayerCount: 2
Fore
SplineSet
64 30 m 0,0,1
 64 166 64 166 129.5 437 c 128,-1,2
 195 708 195 708 281.5 1016.5 c 128,-1,3
 368 1325 368 1325 393 1453 c 0,4,5
 393 1455 393 1455 396 1470.5 c 128,-1,6
 399 1486 399 1486 400.5 1493 c 128,-1,7
 402 1500 402 1500 406.5 1513.5 c 128,-1,8
 411 1527 411 1527 416.5 1534 c 128,-1,9
 422 1541 422 1541 430.5 1547 c 128,-1,10
 439 1553 439 1553 450 1553 c 0,11,12
 472 1553 472 1553 488.5 1539 c 128,-1,13
 505 1525 505 1525 505 1503 c 0,14,15
 505 1473 505 1473 498.5 1442 c 128,-1,16
 492 1411 492 1411 479.5 1370 c 128,-1,17
 467 1329 467 1329 463 1311 c 0,18,19
 323 712 323 712 232 292 c 0,20,21
 230 285 230 285 221.5 237.5 c 128,-1,22
 213 190 213 190 204.5 151.5 c 128,-1,23
 196 113 196 113 182 67.5 c 128,-1,24
 168 22 168 22 149.5 -4.5 c 128,-1,25
 131 -31 131 -31 110 -31 c 1,26,27
 64 -3 64 -3 64 30 c 0,0,1
EndSplineSet
EndChar

StartChar: zero
Encoding: 48 48 19
Width: 644
Flags: W
LayerCount: 2
Fore
SplineSet
98 1233 m 2,0,1
 98 1285 98 1285 100 1321 c 128,-1,2
 102 1357 102 1357 107 1398 c 128,-1,3
 112 1439 112 1439 123.5 1466 c 128,-1,4
 135 1493 135 1493 153 1516.5 c 128,-1,5
 171 1540 171 1540 199.5 1551.5 c 128,-1,6
 228 1563 228 1563 266 1563 c 0,7,8
 296 1563 296 1563 348 1534 c 0,9,10
 370 1521 370 1521 387.5 1506.5 c 128,-1,11
 405 1492 405 1492 418.5 1473.5 c 128,-1,12
 432 1455 432 1455 442.5 1441 c 128,-1,13
 453 1427 453 1427 461 1403 c 128,-1,14
 469 1379 469 1379 473.5 1366 c 128,-1,15
 478 1353 478 1353 483.5 1323.5 c 128,-1,16
 489 1294 489 1294 490.5 1283 c 128,-1,17
 492 1272 492 1272 496.5 1238 c 128,-1,18
 501 1204 501 1204 502 1195 c 0,19,20
 506 1166 506 1166 517 1085.5 c 128,-1,21
 528 1005 528 1005 533 968.5 c 128,-1,22
 538 932 538 932 546 861.5 c 128,-1,23
 554 791 554 791 558 744 c 128,-1,24
 562 697 562 697 565 636 c 128,-1,25
 568 575 568 575 568 521 c 0,26,27
 568 7 568 7 343 7 c 0,28,29
 289 7 289 7 246.5 54 c 128,-1,30
 204 101 204 101 178.5 180.5 c 128,-1,31
 153 260 153 260 135.5 345.5 c 128,-1,32
 118 431 118 431 110.5 529.5 c 128,-1,33
 103 628 103 628 100.5 689.5 c 128,-1,34
 98 751 98 751 98 804 c 2,35,-1
 98 1233 l 2,0,1
473 568 m 0,36,37
 473 780 473 780 399 1254 c 0,38,39
 383 1356 383 1356 345 1407 c 128,-1,40
 307 1458 307 1458 266 1458 c 0,41,42
 232 1458 232 1458 208 1424.5 c 128,-1,43
 184 1391 184 1391 184 1338 c 0,44,45
 184 1280 184 1280 189.5 1164 c 128,-1,46
 195 1048 195 1048 195 990 c 0,47,48
 195 956 195 956 206 889.5 c 128,-1,49
 217 823 217 823 217 790 c 0,50,51
 217 721 217 721 221 633 c 128,-1,52
 225 545 225 545 238 410.5 c 128,-1,53
 251 276 251 276 283.5 188 c 128,-1,54
 316 100 316 100 363 100 c 0,55,56
 395 100 395 100 418.5 161 c 128,-1,57
 442 222 442 222 452.5 309 c 128,-1,58
 463 396 463 396 468 463 c 128,-1,59
 473 530 473 530 473 568 c 0,36,37
EndSplineSet
EndChar

StartChar: one
Encoding: 49 49 20
Width: 602
Flags: W
LayerCount: 2
Fore
SplineSet
464 102 m 1,0,-1
 464 103 l 1,1,2
 550 103 550 103 550 52 c 0,3,4
 550 -8 550 -8 317 -8 c 0,5,6
 301 -8 301 -8 284 -8.5 c 128,-1,7
 267 -9 267 -9 256 -9 c 0,8,9
 218 -9 218 -9 195.5 2 c 128,-1,10
 173 13 173 13 173 47 c 2,11,-1
 173 91 l 1,12,13
 238 86 238 86 245 86 c 0,14,15
 290 86 290 86 290 120 c 0,16,17
 290 430 290 430 255 924 c 0,18,19
 252 967 252 967 244.5 1045 c 128,-1,20
 237 1123 237 1123 232.5 1187 c 128,-1,21
 228 1251 228 1251 228 1308 c 0,22,23
 228 1318 228 1318 229.5 1343.5 c 128,-1,24
 231 1369 231 1369 231 1383 c 0,25,26
 231 1479 231 1479 160 1479 c 0,27,28
 154 1479 154 1479 138 1478 c 128,-1,29
 122 1477 122 1477 113 1477 c 0,30,31
 55 1477 55 1477 55 1521 c 0,32,33
 55 1575 55 1575 220 1575 c 0,34,35
 242 1575 242 1575 255 1573.5 c 128,-1,36
 268 1572 268 1572 285 1564 c 128,-1,37
 302 1556 302 1556 310 1541 c 1,38,39
 306 1534 306 1534 309.5 1498 c 128,-1,40
 313 1462 313 1462 313 1455 c 0,41,42
 313 1392 313 1392 328.5 1267 c 128,-1,43
 344 1142 344 1142 344 1079 c 0,44,45
 344 918 344 918 366.5 594.5 c 128,-1,46
 389 271 389 271 389 109 c 2,47,-1
 389 96 l 1,48,49
 397 97 397 97 412.5 98.5 c 128,-1,50
 428 100 428 100 440.5 101 c 128,-1,51
 453 102 453 102 464 102 c 1,0,-1
EndSplineSet
EndChar

StartChar: two
Encoding: 50 50 21
Width: 578
Flags: W
LayerCount: 2
Fore
SplineSet
278 1586 m 1,0,-1
 278 1587 l 1,1,2
 314 1587 314 1587 343.5 1578.5 c 128,-1,3
 373 1570 373 1570 394.5 1557 c 128,-1,4
 416 1544 416 1544 432.5 1521 c 128,-1,5
 449 1498 449 1498 460 1478 c 128,-1,6
 471 1458 471 1458 478.5 1426 c 128,-1,7
 486 1394 486 1394 489.5 1371 c 128,-1,8
 493 1348 493 1348 495 1312 c 128,-1,9
 497 1276 497 1276 497.5 1256 c 128,-1,10
 498 1236 498 1236 498 1201 c 0,11,12
 498 1024 498 1024 453.5 800.5 c 128,-1,13
 409 577 409 577 340 422 c 0,14,15
 328 394 328 394 268 274.5 c 128,-1,16
 208 155 208 155 185 86 c 1,17,18
 309 107 309 107 417 107 c 1,19,-1
 479 55 l 1,20,-1
 443 4 l 1,21,22
 391 4 391 4 287 -5.5 c 128,-1,23
 183 -15 183 -15 131 -15 c 0,24,25
 102 -15 102 -15 79 2 c 128,-1,26
 56 19 56 19 56 47 c 2,27,-1
 56 55 l 1,28,29
 82 86 82 86 101 126.5 c 128,-1,30
 120 167 120 167 138.5 220 c 128,-1,31
 157 273 157 273 169 299 c 0,32,33
 286 558 286 558 343 774 c 128,-1,34
 400 990 400 990 400 1236 c 0,35,36
 400 1492 400 1492 302 1500 c 1,37,38
 284 1490 284 1490 272.5 1460.5 c 128,-1,39
 261 1431 261 1431 256.5 1402 c 128,-1,40
 252 1373 252 1373 237 1350 c 128,-1,41
 222 1327 222 1327 196 1327 c 0,42,43
 146 1327 146 1327 146 1390 c 0,44,45
 146 1431 146 1431 159 1474 c 128,-1,46
 172 1517 172 1517 203.5 1551.5 c 128,-1,47
 235 1586 235 1586 278 1586 c 1,0,-1
EndSplineSet
EndChar

StartChar: three
Encoding: 51 51 22
Width: 600
Flags: W
LayerCount: 2
Fore
SplineSet
234 865 m 1,0,-1
 234 889 l 2,1,2
 234 909 234 909 253 937 c 128,-1,3
 272 965 272 965 294.5 991.5 c 128,-1,4
 317 1018 317 1018 335.5 1061.5 c 128,-1,5
 354 1105 354 1105 354 1150 c 0,6,7
 354 1185 354 1185 350 1231 c 128,-1,8
 346 1277 346 1277 336 1337 c 128,-1,9
 326 1397 326 1397 302.5 1437 c 128,-1,10
 279 1477 279 1477 247 1477 c 0,11,12
 222 1477 222 1477 205.5 1458.5 c 128,-1,13
 189 1440 189 1440 182 1418.5 c 128,-1,14
 175 1397 175 1397 157.5 1378.5 c 128,-1,15
 140 1360 140 1360 112 1360 c 0,16,17
 89 1360 89 1360 73 1376.5 c 128,-1,18
 57 1393 57 1393 53 1416 c 1,19,20
 81 1485 81 1485 131.5 1529 c 128,-1,21
 182 1573 182 1573 251 1573 c 0,22,23
 310 1573 310 1573 357 1522 c 1,24,25
 401 1521 401 1521 428.5 1366 c 128,-1,26
 456 1211 456 1211 456 1124 c 0,27,28
 456 1094 456 1094 446.5 1065 c 128,-1,29
 437 1036 437 1036 427.5 1020.5 c 128,-1,30
 418 1005 418 1005 395 972 c 128,-1,31
 372 939 372 939 364 927 c 1,32,33
 413 898 413 898 448.5 826.5 c 128,-1,34
 484 755 484 755 501.5 666.5 c 128,-1,35
 519 578 519 578 527 502 c 128,-1,36
 535 426 535 426 535 361 c 0,37,38
 535 316 535 316 533 280.5 c 128,-1,39
 531 245 531 245 524.5 197 c 128,-1,40
 518 149 518 149 503.5 114 c 128,-1,41
 489 79 489 79 466.5 46.5 c 128,-1,42
 444 14 444 14 407.5 -3 c 128,-1,43
 371 -20 371 -20 323 -20 c 0,44,45
 291 -20 291 -20 258.5 -11.5 c 128,-1,46
 226 -3 226 -3 199 20 c 128,-1,47
 172 43 172 43 172 76 c 2,48,-1
 172 89 l 1,49,-1
 206 89 l 1,50,51
 217 87 217 87 234.5 85.5 c 128,-1,52
 252 84 252 84 261 83 c 128,-1,53
 270 82 270 82 282.5 77 c 128,-1,54
 295 72 295 72 307 64 c 1,55,56
 432 69 432 69 432 294 c 0,57,58
 432 387 432 387 429.5 442.5 c 128,-1,59
 427 498 427 498 416 579.5 c 128,-1,60
 405 661 405 661 378 727.5 c 128,-1,61
 351 794 351 794 307 849 c 1,62,63
 303 848 303 848 294 848 c 0,64,65
 272 848 272 848 234 865 c 1,0,-1
EndSplineSet
EndChar

StartChar: four
Encoding: 52 52 23
Width: 554
Flags: W
LayerCount: 2
Fore
SplineSet
286 587 m 1,0,1
 286 679 286 679 277.5 869.5 c 128,-1,2
 269 1060 269 1060 269 1160 c 0,3,4
 269 1181 269 1181 285 1193.5 c 128,-1,5
 301 1206 301 1206 318 1206 c 1,6,-1
 360 1170 l 1,7,8
 360 1158 360 1158 360 1107.5 c 128,-1,9
 360 1057 360 1057 360 1041 c 128,-1,10
 360 1025 360 1025 360.5 979.5 c 128,-1,11
 361 934 361 934 361.5 913 c 128,-1,12
 362 892 362 892 363 851.5 c 128,-1,13
 364 811 364 811 366 785 c 128,-1,14
 368 759 368 759 371 724 c 128,-1,15
 374 689 374 689 377.5 658 c 128,-1,16
 381 627 381 627 386 596 c 1,17,18
 388 596 388 596 410 598.5 c 128,-1,19
 432 601 432 601 445 601 c 0,20,21
 506 601 506 601 506 557 c 0,22,23
 506 527 506 527 488.5 517 c 128,-1,24
 471 507 471 507 439 507 c 0,25,26
 391 507 391 507 391 489 c 0,27,28
 391 420 391 420 396.5 299 c 128,-1,29
 402 178 402 178 412 155 c 1,30,31
 408 131 408 131 408 117 c 0,32,33
 408 92 408 92 418 76 c 1,34,-1
 418 39 l 2,35,36
 418 10 418 10 406.5 -14 c 128,-1,37
 395 -38 395 -38 369 -38 c 0,38,39
 338 -38 338 -38 323 -6.5 c 128,-1,40
 308 25 308 25 308 59 c 2,41,-1
 308 66 l 1,42,43
 315 90 315 90 315 140 c 0,44,45
 315 174 315 174 307.5 240 c 128,-1,46
 300 306 300 306 300 339 c 0,47,48
 300 354 300 354 301 383.5 c 128,-1,49
 302 413 302 413 302 428 c 0,50,51
 302 463 302 463 298 491 c 1,52,53
 280 490 280 490 237 485 c 128,-1,54
 194 480 194 480 170 480 c 1,55,-1
 170 479 l 1,56,57
 131 479 131 479 89 512 c 1,58,59
 89 558 89 558 98 591 c 1,60,61
 89 639 89 639 89 706 c 0,62,63
 89 776 89 776 104.5 917 c 128,-1,64
 120 1058 120 1058 120 1124 c 2,65,-1
 120 1503 l 2,66,67
 120 1516 120 1516 122 1523.5 c 128,-1,68
 124 1531 124 1531 133 1537 c 128,-1,69
 142 1543 142 1543 159 1543 c 0,70,71
 182 1543 182 1543 200.5 1529 c 128,-1,72
 219 1515 219 1515 219 1492 c 0,73,74
 219 1466 219 1466 214.5 1413 c 128,-1,75
 210 1360 210 1360 210 1333 c 0,76,77
 210 1221 210 1221 200.5 981 c 128,-1,78
 191 741 191 741 191 622 c 0,79,80
 191 598 191 598 194 576 c 1,81,82
 236 577 236 577 286 587 c 1,0,1
EndSplineSet
EndChar

StartChar: five
Encoding: 53 53 24
Width: 578
Flags: W
LayerCount: 2
Fore
SplineSet
103 1008 m 0,0,1
 103 1026 103 1026 108.5 1060 c 128,-1,2
 114 1094 114 1094 114 1112 c 0,3,4
 114 1153 114 1153 111.5 1195.5 c 128,-1,5
 109 1238 109 1238 102.5 1286.5 c 128,-1,6
 96 1335 96 1335 91.5 1366.5 c 128,-1,7
 87 1398 87 1398 77.5 1457 c 128,-1,8
 68 1516 68 1516 64 1540 c 1,9,-1
 99 1574 l 1,10,-1
 266 1574 l 2,11,12
 284 1574 284 1574 295.5 1573 c 128,-1,13
 307 1572 307 1572 321.5 1567.5 c 128,-1,14
 336 1563 336 1563 343.5 1552 c 128,-1,15
 351 1541 351 1541 351 1524 c 2,16,-1
 351 1513 l 1,17,-1
 313 1482 l 1,18,-1
 269 1482 l 1,19,-1
 269 1477 l 1,20,-1
 175 1477 l 1,21,22
 179 1365 179 1365 215 1002 c 1,23,24
 220 1001 220 1001 254.5 998 c 128,-1,25
 289 995 289 995 303 992.5 c 128,-1,26
 317 990 317 990 341 983 c 128,-1,27
 365 976 365 976 381 965 c 0,28,29
 428 933 428 933 459 821 c 128,-1,30
 490 709 490 709 499.5 610 c 128,-1,31
 509 511 509 511 509 434 c 0,32,33
 509 378 509 378 508.5 351 c 128,-1,34
 508 324 508 324 505 277.5 c 128,-1,35
 502 231 502 231 495.5 205 c 128,-1,36
 489 179 489 179 476.5 142 c 128,-1,37
 464 105 464 105 446 78.5 c 128,-1,38
 428 52 428 52 400 22 c 128,-1,39
 372 -8 372 -8 336 -36 c 1,40,41
 331 -36 331 -36 319.5 -36.5 c 128,-1,42
 308 -37 308 -37 301 -37 c 0,43,44
 189 -37 189 -37 189 21 c 0,45,46
 189 44 189 44 208.5 55.5 c 128,-1,47
 228 67 228 67 252 67 c 0,48,49
 282 67 282 67 305 50 c 1,50,51
 354 67 354 67 382.5 162 c 128,-1,52
 411 257 411 257 411 328 c 0,53,54
 411 375 411 375 405.5 459 c 128,-1,55
 400 543 400 543 387.5 651.5 c 128,-1,56
 375 760 375 760 348 837 c 128,-1,57
 321 914 321 914 285 914 c 2,58,-1
 245 914 l 1,59,-1
 245 907 l 1,60,61
 236 906 236 906 212.5 898.5 c 128,-1,62
 189 891 189 891 178 891 c 0,63,64
 154 891 154 891 138 901 c 128,-1,65
 122 911 122 911 115 930 c 128,-1,66
 108 949 108 949 105.5 966.5 c 128,-1,67
 103 984 103 984 103 1008 c 0,0,1
EndSplineSet
EndChar

StartChar: six
Encoding: 54 54 25
Width: 531
Flags: W
LayerCount: 2
Fore
SplineSet
367 212 m 0,0,1
 367 270 367 270 361.5 362 c 128,-1,2
 356 454 356 454 343.5 576 c 128,-1,3
 331 698 331 698 302 786 c 128,-1,4
 273 874 273 874 234 882 c 1,5,6
 207 862 207 862 199 836 c 128,-1,7
 191 810 191 810 191 770 c 0,8,9
 191 577 191 577 240 207 c 0,10,11
 241 200 241 200 243 178.5 c 128,-1,12
 245 157 245 157 246.5 147 c 128,-1,13
 248 137 248 137 253 120 c 128,-1,14
 258 103 258 103 265 95 c 128,-1,15
 272 87 272 87 285 80 c 128,-1,16
 298 73 298 73 316 73 c 0,17,18
 367 73 367 73 367 212 c 0,0,1
300 -14 m 0,19,20
 255 -14 255 -14 223 8 c 128,-1,21
 191 30 191 30 174.5 61.5 c 128,-1,22
 158 93 158 93 147 141 c 128,-1,23
 136 189 136 189 133.5 227.5 c 128,-1,24
 131 266 131 266 128 317 c 128,-1,25
 125 368 125 368 122 391 c 0,26,27
 91 644 91 644 91 880 c 0,28,29
 91 1586 91 1586 306 1586 c 0,30,31
 321 1586 321 1586 336.5 1573.5 c 128,-1,32
 352 1561 352 1561 352 1545 c 0,33,34
 352 1518 352 1518 329 1499.5 c 128,-1,35
 306 1481 306 1481 277 1475 c 1,36,37
 242 1439 242 1439 220 1261 c 128,-1,38
 198 1083 198 1083 192 949 c 1,39,40
 208 952 208 952 223 952 c 0,41,42
 270 952 270 952 308.5 920 c 128,-1,43
 347 888 347 888 371.5 839 c 128,-1,44
 396 790 396 790 414 719.5 c 128,-1,45
 432 649 432 649 441 586 c 128,-1,46
 450 523 450 523 455.5 447 c 128,-1,47
 461 371 461 371 462 327 c 128,-1,48
 463 283 463 283 463 236 c 0,49,50
 463 192 463 192 461 162 c 128,-1,51
 459 132 459 132 449.5 96 c 128,-1,52
 440 60 440 60 423 38 c 128,-1,53
 406 16 406 16 375 1 c 128,-1,54
 344 -14 344 -14 300 -14 c 0,19,20
EndSplineSet
EndChar

StartChar: seven
Encoding: 55 55 26
Width: 465
Flags: W
LayerCount: 2
Fore
SplineSet
244 1498 m 0,0,1
 211 1498 211 1498 114 1489 c 1,2,3
 95 1498 95 1498 80.5 1514 c 128,-1,4
 66 1530 66 1530 66 1549 c 0,5,6
 66 1582 66 1582 254 1582 c 2,7,-1
 292 1582 l 2,8,9
 320 1582 320 1582 337.5 1579 c 128,-1,10
 355 1576 355 1576 372 1562.5 c 128,-1,11
 389 1549 389 1549 396 1523 c 1,12,13
 390 1496 390 1496 381 1390 c 0,14,15
 354 1064 354 1064 302 679.5 c 128,-1,16
 250 295 250 295 189 119 c 1,17,18
 190 114 190 114 190 101 c 0,19,20
 190 60 190 60 172 24.5 c 128,-1,21
 154 -11 154 -11 120 -11 c 1,22,-1
 71 24 l 1,23,24
 71 49 71 49 76.5 74.5 c 128,-1,25
 82 100 82 100 93 133.5 c 128,-1,26
 104 167 104 167 108 182 c 0,27,28
 148 333 148 333 173 500 c 128,-1,29
 198 667 198 667 221.5 894.5 c 128,-1,30
 245 1122 245 1122 257 1217 c 0,31,32
 261 1246 261 1246 270.5 1303.5 c 128,-1,33
 280 1361 280 1361 285.5 1407 c 128,-1,34
 291 1453 291 1453 292 1494 c 1,35,36
 260 1498 260 1498 244 1498 c 0,0,1
EndSplineSet
EndChar

StartChar: eight
Encoding: 56 56 27
Width: 526
Flags: W
LayerCount: 2
Fore
SplineSet
219 1515 m 1,0,1
 170 1460 170 1460 170 1413 c 0,2,3
 170 1339 170 1339 196 1196.5 c 128,-1,4
 222 1054 222 1054 248 969 c 1,5,6
 289 1151 289 1151 289 1312 c 0,7,8
 289 1356 289 1356 275.5 1437 c 128,-1,9
 262 1518 262 1518 240 1518 c 1,10,-1
 219 1515 l 1,0,1
211 190 m 2,11,-1
 211 188 l 2,12,13
 211 147 211 147 231.5 76.5 c 128,-1,14
 252 6 252 6 276 6 c 0,15,16
 328 6 328 6 350 44.5 c 128,-1,17
 372 83 372 83 372 140 c 0,18,19
 372 288 372 288 343 438.5 c 128,-1,20
 314 589 314 589 260 783 c 1,21,22
 211 583 211 583 211 190 c 2,11,-1
460 72 m 1,23,-1
 460 60 l 1,24,25
 397 -82 397 -82 274 -82 c 0,26,27
 229 -82 229 -82 196 -53 c 128,-1,28
 163 -24 163 -24 146.5 21.5 c 128,-1,29
 130 67 130 67 122.5 111 c 128,-1,30
 115 155 115 155 115 198 c 0,31,32
 115 540 115 540 181 759 c 0,33,34
 209 854 209 854 211 863 c 1,35,36
 195 904 195 904 171.5 969.5 c 128,-1,37
 148 1035 148 1035 109 1184.5 c 128,-1,38
 70 1334 70 1334 70 1421 c 0,39,40
 70 1497 70 1497 105.5 1552 c 128,-1,41
 141 1607 141 1607 212 1607 c 2,42,-1
 253 1607 l 1,43,44
 289 1584 289 1584 312 1560.5 c 128,-1,45
 335 1537 335 1537 348 1515.5 c 128,-1,46
 361 1494 361 1494 367 1459 c 128,-1,47
 373 1424 373 1424 374.5 1396 c 128,-1,48
 376 1368 376 1368 376 1313 c 0,49,50
 376 1170 376 1170 313 891 c 0,51,52
 309 872 309 872 307 862 c 1,53,54
 375 698 375 698 420.5 492 c 128,-1,55
 466 286 466 286 466 119 c 0,56,57
 466 94 466 94 460 72 c 1,23,-1
EndSplineSet
EndChar

StartChar: nine
Encoding: 57 57 28
Width: 531
Flags: W
LayerCount: 2
Fore
SplineSet
163 1247 m 0,0,1
 163 1183 163 1183 179 1162 c 1,2,3
 183 1129 183 1129 190.5 1107.5 c 128,-1,4
 198 1086 198 1086 212.5 1072 c 128,-1,5
 227 1058 227 1058 240 1051 c 128,-1,6
 253 1044 253 1044 280 1032 c 128,-1,7
 307 1020 307 1020 326 1009 c 1,8,9
 335 1165 335 1165 335 1427 c 0,10,11
 335 1474 335 1474 320.5 1500.5 c 128,-1,12
 306 1527 306 1527 262 1527 c 0,13,14
 234 1527 234 1527 213 1492.5 c 128,-1,15
 192 1458 192 1458 182 1408 c 128,-1,16
 172 1358 172 1358 167.5 1317 c 128,-1,17
 163 1276 163 1276 163 1247 c 0,0,1
408 237 m 0,18,19
 408 212 408 212 401.5 163 c 128,-1,20
 395 114 395 114 395 90 c 0,21,22
 395 84 395 84 395.5 70.5 c 128,-1,23
 396 57 396 57 396 49 c 0,24,25
 396 -34 396 -34 339 -34 c 1,26,-1
 296 4 l 1,27,28
 328 100 328 100 328 686 c 0,29,30
 328 735 328 735 326 819 c 128,-1,31
 324 903 324 903 324 931 c 1,32,33
 210 957 210 957 136.5 1042.5 c 128,-1,34
 63 1128 63 1128 63 1243 c 0,35,36
 63 1287 63 1287 67 1331 c 128,-1,37
 71 1375 71 1375 84 1428 c 128,-1,38
 97 1481 97 1481 117.5 1520.5 c 128,-1,39
 138 1560 138 1560 175 1587 c 128,-1,40
 212 1614 212 1614 261 1614 c 0,41,42
 361 1614 361 1614 397 1568 c 128,-1,43
 433 1522 433 1522 433 1420 c 0,44,45
 433 1223 433 1223 420.5 828.5 c 128,-1,46
 408 434 408 434 408 237 c 0,18,19
EndSplineSet
EndChar

StartChar: colon
Encoding: 58 58 29
Width: 354
Flags: W
LayerCount: 2
Fore
SplineSet
115 1024 m 0,0,1
 115 1054 115 1054 138 1078.5 c 128,-1,2
 161 1103 161 1103 191 1103 c 0,3,4
 220 1103 220 1103 242 1079 c 128,-1,5
 264 1055 264 1055 264 1026 c 0,6,7
 264 992 264 992 241 971.5 c 128,-1,8
 218 951 218 951 183 951 c 0,9,10
 155 951 155 951 135 973.5 c 128,-1,11
 115 996 115 996 115 1024 c 0,0,1
94 250 m 0,12,13
 94 281 94 281 117 305 c 128,-1,14
 140 329 140 329 171 329 c 0,15,16
 200 329 200 329 221.5 305 c 128,-1,17
 243 281 243 281 243 252 c 0,18,19
 243 218 243 218 220 197.5 c 128,-1,20
 197 177 197 177 163 177 c 0,21,22
 135 177 135 177 114.5 199.5 c 128,-1,23
 94 222 94 222 94 250 c 0,12,13
EndSplineSet
EndChar

StartChar: semicolon
Encoding: 59 59 30
Width: 410
Flags: W
LayerCount: 2
Fore
SplineSet
125 -11 m 0,0,1
 113 -11 113 -11 98 2 c 128,-1,2
 83 15 83 15 83 27 c 2,3,-1
 83 51 l 1,4,5
 88 56 88 56 120.5 82 c 128,-1,6
 153 108 153 108 170 128.5 c 128,-1,7
 187 149 187 149 191 171 c 1,8,9
 132 214 132 214 132 272 c 0,10,11
 132 309 132 309 163.5 334 c 128,-1,12
 195 359 195 359 233 359 c 0,13,14
 272 359 272 359 298 328.5 c 128,-1,15
 324 298 324 298 324 258 c 0,16,17
 324 212 324 212 296.5 149.5 c 128,-1,18
 269 87 269 87 221 38 c 128,-1,19
 173 -11 173 -11 125 -11 c 0,0,1
168 1025 m 0,20,21
 168 1055 168 1055 191 1079.5 c 128,-1,22
 214 1104 214 1104 244 1104 c 0,23,24
 273 1104 273 1104 295 1080 c 128,-1,25
 317 1056 317 1056 317 1027 c 0,26,27
 317 993 317 993 294 972.5 c 128,-1,28
 271 952 271 952 236 952 c 0,29,30
 208 952 208 952 188 974.5 c 128,-1,31
 168 997 168 997 168 1025 c 0,20,21
EndSplineSet
EndChar

StartChar: less
Encoding: 60 60 31
Width: 553
Flags: W
LayerCount: 2
Fore
SplineSet
465 -22 m 0,0,1
 456 -22 456 -22 441 -20 c 128,-1,2
 426 -18 426 -18 421 -18 c 1,3,4
 358 78 358 78 299 194.5 c 128,-1,5
 240 311 240 311 167.5 473.5 c 128,-1,6
 95 636 95 636 65 698 c 1,7,8
 67 754 67 754 171 980 c 128,-1,9
 275 1206 275 1206 289 1255 c 0,10,11
 290 1259 290 1259 297 1288.5 c 128,-1,12
 304 1318 304 1318 311 1340 c 128,-1,13
 318 1362 318 1362 329.5 1389.5 c 128,-1,14
 341 1417 341 1417 356 1432 c 128,-1,15
 371 1447 371 1447 388 1447 c 0,16,17
 389 1447 389 1447 391 1446.5 c 128,-1,18
 393 1446 393 1446 395 1446 c 1,19,-1
 440 1411 l 1,20,21
 431 1339 431 1339 388.5 1232.5 c 128,-1,22
 346 1126 346 1126 300.5 1037 c 128,-1,23
 255 948 255 948 218.5 853 c 128,-1,24
 182 758 182 758 182 702 c 0,25,26
 182 687 182 687 319.5 410 c 128,-1,27
 457 133 457 133 493 69 c 1,28,29
 492 60 492 60 493 48 c 128,-1,30
 494 36 494 36 493 24 c 128,-1,31
 492 12 492 12 490 1.5 c 128,-1,32
 488 -9 488 -9 481.5 -15.5 c 128,-1,33
 475 -22 475 -22 465 -22 c 0,0,1
EndSplineSet
EndChar

StartChar: equal
Encoding: 61 61 32
Width: 783
Flags: W
LayerCount: 2
Fore
SplineSet
463 680 m 2,0,1
 672 680 672 680 672 626 c 0,2,3
 672 605 672 605 658.5 592 c 128,-1,4
 645 579 645 579 624 579 c 0,5,6
 552 579 552 579 408 584 c 128,-1,7
 264 589 264 589 192 589 c 0,8,9
 110 589 110 589 110 634 c 0,10,11
 110 655 110 655 122.5 667.5 c 128,-1,12
 135 680 135 680 156 680 c 2,13,-1
 463 680 l 2,0,1
523 872 m 2,14,15
 682 872 682 872 682 818 c 128,-1,16
 682 764 682 764 466 764 c 0,17,18
 444 764 444 764 420 764.5 c 128,-1,19
 396 765 396 765 377.5 766 c 128,-1,20
 359 767 359 767 344 768 c 128,-1,21
 329 769 329 769 320 770 c 1,22,-1
 311 770 l 2,23,24
 304 770 304 770 277 768.5 c 128,-1,25
 250 767 250 767 233 767 c 0,26,27
 110 767 110 767 110 826 c 0,28,29
 110 847 110 847 122.5 859.5 c 128,-1,30
 135 872 135 872 156 872 c 2,31,-1
 523 872 l 2,14,15
EndSplineSet
EndChar

StartChar: greater
Encoding: 62 62 33
Width: 578
Flags: W
LayerCount: 2
Fore
SplineSet
155 -19 m 1,0,1
 148 -19 148 -19 134 -21 c 128,-1,2
 120 -23 120 -23 113 -23 c 0,3,4
 88 -23 88 -23 74 -0.5 c 128,-1,5
 60 22 60 22 59 49 c 1,6,7
 129 178 129 178 261.5 433 c 128,-1,8
 394 688 394 688 394 702 c 0,9,10
 394 759 394 759 367.5 833.5 c 128,-1,11
 341 908 341 908 303.5 981.5 c 128,-1,12
 266 1055 266 1055 228.5 1129 c 128,-1,13
 191 1203 191 1203 164.5 1278.5 c 128,-1,14
 138 1354 138 1354 137 1411 c 1,15,-1
 182 1446 l 1,16,-1
 182 1444 l 1,17,18
 203 1434 203 1434 218.5 1420 c 128,-1,19
 234 1406 234 1406 246 1380.5 c 128,-1,20
 258 1355 258 1355 262.5 1343.5 c 128,-1,21
 267 1332 267 1332 277 1295.5 c 128,-1,22
 287 1259 287 1259 288 1255 c 0,23,24
 302 1205 302 1205 406 981 c 128,-1,25
 510 757 510 757 512 698 c 1,26,-1
 155 -19 l 1,0,1
EndSplineSet
EndChar

StartChar: question
Encoding: 63 63 34
Width: 1161
Flags: W
LayerCount: 2
Fore
SplineSet
566 1525 m 0,0,1
 505 1525 505 1525 483 1494.5 c 128,-1,2
 461 1464 461 1464 461 1407 c 0,3,4
 461 1386 461 1386 465 1337 c 128,-1,5
 469 1288 469 1288 469 1263 c 0,6,7
 469 1090 469 1090 492 1000 c 1,8,9
 579 1037 579 1037 624.5 1106 c 128,-1,10
 670 1175 670 1175 670 1272 c 0,11,12
 670 1291 670 1291 670 1298 c 128,-1,13
 670 1305 670 1305 669.5 1327 c 128,-1,14
 669 1349 669 1349 667.5 1360.5 c 128,-1,15
 666 1372 666 1372 664 1393 c 128,-1,16
 662 1414 662 1414 658 1427 c 128,-1,17
 654 1440 654 1440 648.5 1457.5 c 128,-1,18
 643 1475 643 1475 635 1485 c 128,-1,19
 627 1495 627 1495 617.5 1505.5 c 128,-1,20
 608 1516 608 1516 594.5 1520.5 c 128,-1,21
 581 1525 581 1525 566 1525 c 0,0,1
862 199 m 0,22,23
 862 181 862 181 843 162 c 128,-1,24
 824 143 824 143 807 143 c 0,25,26
 774 143 774 143 740 210.5 c 128,-1,27
 706 278 706 278 677.5 382 c 128,-1,28
 649 486 649 486 625 590.5 c 128,-1,29
 601 695 601 695 580 790 c 128,-1,30
 559 885 559 885 548 914 c 1,31,-1
 495 914 l 1,32,33
 490 834 490 834 490 796 c 0,34,35
 490 698 490 698 512 503 c 128,-1,36
 534 308 534 308 534 210 c 0,37,38
 534 181 534 181 520.5 162 c 128,-1,39
 507 143 507 143 479 143 c 256,40,41
 451 143 451 143 428.5 161.5 c 128,-1,42
 406 180 406 180 406 208 c 0,43,44
 406 251 406 251 389 338.5 c 128,-1,45
 372 426 372 426 372 470 c 2,46,-1
 372 1454 l 2,47,48
 372 1510 372 1510 382.5 1545.5 c 128,-1,49
 393 1581 393 1581 417.5 1600.5 c 128,-1,50
 442 1620 442 1620 475 1627.5 c 128,-1,51
 508 1635 508 1635 560 1635 c 0,52,53
 601 1635 601 1635 635 1623 c 128,-1,54
 669 1611 669 1611 692 1591.5 c 128,-1,55
 715 1572 715 1572 732.5 1542.5 c 128,-1,56
 750 1513 750 1513 760.5 1482.5 c 128,-1,57
 771 1452 771 1452 777 1413.5 c 128,-1,58
 783 1375 783 1375 785 1342 c 128,-1,59
 787 1309 787 1309 787 1270 c 0,60,61
 787 1201 787 1201 774 1148.5 c 128,-1,62
 761 1096 761 1096 742 1067.5 c 128,-1,63
 723 1039 723 1039 704.5 1021 c 128,-1,64
 686 1003 686 1003 670.5 990.5 c 128,-1,65
 655 978 655 978 652 969 c 1,66,67
 655 893 655 893 827 314 c 1,68,69
 827 292 827 292 844.5 255.5 c 128,-1,70
 862 219 862 219 862 199 c 0,22,23
963 706 m 0,71,72
 963 989 963 989 938.5 1219 c 128,-1,73
 914 1449 914 1449 842 1655 c 1,74,-1
 842 1670 l 1,75,76
 811 1719 811 1719 740.5 1775.5 c 128,-1,77
 670 1832 670 1832 624 1832 c 0,78,79
 561 1832 561 1832 507 1811 c 128,-1,80
 453 1790 453 1790 414 1755 c 128,-1,81
 375 1720 375 1720 343.5 1667.5 c 128,-1,82
 312 1615 312 1615 291 1561 c 128,-1,83
 270 1507 270 1507 254.5 1438 c 128,-1,84
 239 1369 239 1369 231 1310 c 128,-1,85
 223 1251 223 1251 218 1180 c 128,-1,86
 213 1109 213 1109 212 1060 c 128,-1,87
 211 1011 211 1011 211 954 c 0,88,89
 211 180 211 180 345 27 c 0,90,91
 365 4 365 4 410 -25.5 c 128,-1,92
 455 -55 455 -55 467 -64 c 1,93,-1
 526 -64 l 1,94,-1
 526 -84 l 1,95,96
 609 -83 609 -83 676 -54 c 128,-1,97
 743 -25 743 -25 788 20 c 128,-1,98
 833 65 833 65 866 132.5 c 128,-1,99
 899 200 899 200 917 266 c 128,-1,100
 935 332 935 332 946 415.5 c 128,-1,101
 957 499 957 499 960 564 c 128,-1,102
 963 629 963 629 963 706 c 0,71,72
613 -190 m 0,103,104
 510 -190 510 -190 428.5 -156.5 c 128,-1,105
 347 -123 347 -123 293.5 -72 c 128,-1,106
 240 -21 240 -21 201 61.5 c 128,-1,107
 162 144 162 144 141.5 220 c 128,-1,108
 121 296 121 296 109.5 402.5 c 128,-1,109
 98 509 98 509 95.5 585 c 128,-1,110
 93 661 93 661 93 765 c 0,111,112
 93 785 93 785 93 833 c 1,113,114
 90 885 90 885 92 948.5 c 128,-1,115
 94 1012 94 1012 94.5 1082 c 128,-1,116
 95 1152 95 1152 103 1226 c 128,-1,117
 111 1300 111 1300 121 1373 c 128,-1,118
 131 1446 131 1446 152 1516.5 c 128,-1,119
 173 1587 173 1587 199 1650 c 128,-1,120
 225 1713 225 1713 265 1765.5 c 128,-1,121
 305 1818 305 1818 353 1856.5 c 128,-1,122
 401 1895 401 1895 466.5 1916.5 c 128,-1,123
 532 1938 532 1938 609 1938 c 0,124,125
 694 1938 694 1938 772.5 1886 c 128,-1,126
 851 1834 851 1834 907 1755 c 1,127,128
 942 1734 942 1734 971.5 1643 c 128,-1,129
 1001 1552 1001 1552 1020 1435 c 128,-1,130
 1039 1318 1039 1318 1052.5 1188.5 c 128,-1,131
 1066 1059 1066 1059 1071.5 960.5 c 128,-1,132
 1077 862 1077 862 1077 807 c 0,133,134
 1077 705 1077 705 1076 643.5 c 128,-1,135
 1075 582 1075 582 1066 464.5 c 128,-1,136
 1057 347 1057 347 1040.5 270.5 c 128,-1,137
 1024 194 1024 194 990 98.5 c 128,-1,138
 956 3 956 3 908 -53.5 c 128,-1,139
 860 -110 860 -110 784.5 -150 c 128,-1,140
 709 -190 709 -190 613 -190 c 0,103,104
EndSplineSet
EndChar

StartChar: at
Encoding: 64 64 35
Width: 1078
Flags: W
LayerCount: 2
Fore
SplineSet
518 1246 m 0,0,1
 500 1246 500 1246 485.5 1235.5 c 128,-1,2
 471 1225 471 1225 461.5 1203 c 128,-1,3
 452 1181 452 1181 444.5 1159 c 128,-1,4
 437 1137 437 1137 433 1101.5 c 128,-1,5
 429 1066 429 1066 426 1041.5 c 128,-1,6
 423 1017 423 1017 422 977.5 c 128,-1,7
 421 938 421 938 421 920.5 c 128,-1,8
 421 903 421 903 421 870 c 0,9,10
 421 860 421 860 421 855 c 0,11,12
 421 798 421 798 422 759.5 c 128,-1,13
 423 721 423 721 426 662.5 c 128,-1,14
 429 604 429 604 436 565 c 128,-1,15
 443 526 443 526 454.5 487.5 c 128,-1,16
 466 449 466 449 485 429.5 c 128,-1,17
 504 410 504 410 529 410 c 0,18,19
 571 410 571 410 615 484 c 128,-1,20
 659 558 659 558 659 605 c 2,21,-1
 659 759 l 2,22,23
 659 813 659 813 652.5 885.5 c 128,-1,24
 646 958 646 958 632 1044 c 128,-1,25
 618 1130 618 1130 588 1188 c 128,-1,26
 558 1246 558 1246 518 1246 c 0,0,1
463 -31 m 0,27,28
 560 -31 560 -31 619.5 -14 c 128,-1,29
 679 3 679 3 703.5 25.5 c 128,-1,30
 728 48 728 48 775.5 92 c 128,-1,31
 823 136 823 136 877 169 c 1,32,-1
 877 179 l 1,33,-1
 926 140 l 1,34,35
 910 81 910 81 857 29.5 c 128,-1,36
 804 -22 804 -22 736.5 -53.5 c 128,-1,37
 669 -85 669 -85 598.5 -102.5 c 128,-1,38
 528 -120 528 -120 470 -120 c 0,39,40
 90 -120 90 -120 90 956 c 0,41,42
 90 1042 90 1042 91.5 1096.5 c 128,-1,43
 93 1151 93 1151 101 1239.5 c 128,-1,44
 109 1328 109 1328 124.5 1386.5 c 128,-1,45
 140 1445 140 1445 170.5 1513.5 c 128,-1,46
 201 1582 201 1582 244 1622.5 c 128,-1,47
 287 1663 287 1663 353.5 1691 c 128,-1,48
 420 1719 420 1719 505 1719 c 0,49,50
 759 1719 759 1719 870 1467 c 0,51,52
 924 1345 924 1345 962 1098 c 0,53,54
 963 1094 963 1094 971 1041 c 0,55,56
 1002 840 1002 840 1002 767 c 0,57,58
 1002 732 1002 732 1001.5 708 c 128,-1,59
 1001 684 1001 684 997.5 643 c 128,-1,60
 994 602 994 602 987.5 573 c 128,-1,61
 981 544 981 544 968.5 510 c 128,-1,62
 956 476 956 476 938 455.5 c 128,-1,63
 920 435 920 435 892 420.5 c 128,-1,64
 864 406 864 406 829 406 c 0,65,66
 784 406 784 406 737 449 c 1,67,68
 701 386 701 386 640.5 346 c 128,-1,69
 580 306 580 306 514 306 c 0,70,71
 479 306 479 306 450.5 319 c 128,-1,72
 422 332 422 332 401 352 c 128,-1,73
 380 372 380 372 363.5 405.5 c 128,-1,74
 347 439 347 439 336.5 470 c 128,-1,75
 326 501 326 501 318.5 546 c 128,-1,76
 311 591 311 591 307.5 624.5 c 128,-1,77
 304 658 304 658 302 706.5 c 128,-1,78
 300 755 300 755 299.5 782 c 128,-1,79
 299 809 299 809 299 851 c 0,80,81
 299 906 299 906 299.5 941.5 c 128,-1,82
 300 977 300 977 304.5 1035 c 128,-1,83
 309 1093 309 1093 317 1131.5 c 128,-1,84
 325 1170 325 1170 341.5 1215 c 128,-1,85
 358 1260 358 1260 380.5 1287 c 128,-1,86
 403 1314 403 1314 438 1332.5 c 128,-1,87
 473 1351 473 1351 518 1351 c 0,88,89
 608 1351 608 1351 675 1284 c 0,90,91
 691 1268 691 1268 707 1202 c 128,-1,92
 723 1136 723 1136 737 1036 c 128,-1,93
 751 936 751 936 760.5 855 c 128,-1,94
 770 774 770 774 780 675 c 128,-1,95
 790 576 790 576 791 565 c 1,96,-1
 791 556 l 1,97,-1
 836 510 l 1,98,99
 857 522 857 522 869.5 581 c 128,-1,100
 882 640 882 640 884.5 687 c 128,-1,101
 887 734 887 734 887 776 c 0,102,103
 887 1123 887 1123 778 1404 c 1,104,105
 732 1517 732 1517 670.5 1564.5 c 128,-1,106
 609 1612 609 1612 496 1612 c 0,107,108
 441 1612 441 1612 397 1594.5 c 128,-1,109
 353 1577 353 1577 323 1546.5 c 128,-1,110
 293 1516 293 1516 270.5 1474 c 128,-1,111
 248 1432 248 1432 235.5 1382 c 128,-1,112
 223 1332 223 1332 214 1277 c 128,-1,113
 205 1222 205 1222 203.5 1165 c 128,-1,114
 202 1108 202 1108 200 1051.5 c 128,-1,115
 198 995 198 995 200 942 c 0,116,117
 200 931 200 931 200 924.5 c 128,-1,118
 200 918 200 918 200 908.5 c 128,-1,119
 200 899 200 899 200 891 c 0,120,121
 200 885 200 885 200 873 c 0,122,123
 199 -31 199 -31 463 -31 c 0,27,28
EndSplineSet
EndChar

StartChar: A
Encoding: 65 65 36
Width: 709
Flags: W
LayerCount: 2
Fore
SplineSet
482 447 m 1,0,1
 479 484 479 484 461.5 668.5 c 128,-1,2
 444 853 444 853 430.5 1016.5 c 128,-1,3
 417 1180 417 1180 417 1236 c 0,4,5
 417 1249 417 1249 418 1254 c 1,6,7
 411 1246 411 1246 387.5 1115.5 c 128,-1,8
 364 985 364 985 339.5 836.5 c 128,-1,9
 315 688 315 688 308 659 c 0,10,11
 303 640 303 640 290 598.5 c 128,-1,12
 277 557 277 557 269.5 525.5 c 128,-1,13
 262 494 262 494 261 464 c 1,14,15
 346 441 346 441 443 441 c 0,16,17
 458 441 458 441 482 447 c 1,0,1
490 1529 m 1,18,19
 530 1242 530 1242 574 782 c 128,-1,20
 618 322 618 322 618 70 c 0,21,22
 618 1 618 1 550 1 c 0,23,24
 484 1 484 1 484 54 c 2,25,-1
 484 321 l 1,26,27
 455 341 455 341 380.5 355 c 128,-1,28
 306 369 306 369 248 373 c 1,29,30
 223 331 223 331 209.5 201.5 c 128,-1,31
 196 72 196 72 166 23 c 1,32,33
 67 23 67 23 57 64 c 1,34,35
 83 102 83 102 135.5 355 c 128,-1,36
 188 608 188 608 243.5 918.5 c 128,-1,37
 299 1229 299 1229 310 1279 c 0,38,39
 365 1543 365 1543 429 1543 c 0,40,41
 467 1543 467 1543 490 1525 c 1,42,-1
 490 1529 l 1,18,19
EndSplineSet
EndChar

StartChar: B
Encoding: 66 66 37
Width: 625
Flags: W
LayerCount: 2
Fore
SplineSet
550 374 m 0,0,1
 545 354 545 354 536 319 c 1,2,3
 529 287 529 287 525 272.5 c 128,-1,4
 521 258 521 258 514 232.5 c 128,-1,5
 507 207 507 207 502 194.5 c 128,-1,6
 497 182 497 182 488 161.5 c 128,-1,7
 479 141 479 141 470 130.5 c 128,-1,8
 461 120 461 120 448 103.5 c 128,-1,9
 435 87 435 87 420 76.5 c 128,-1,10
 405 66 405 66 386 52.5 c 128,-1,11
 367 39 367 39 343.5 27 c 128,-1,12
 320 15 320 15 292 3 c 0,13,14
 280 -3 280 -3 252 -10 c 128,-1,15
 224 -17 224 -17 212 -17 c 0,16,17
 211 -17 211 -17 208 -17 c 0,18,19
 192 -17 192 -17 183 -16.5 c 128,-1,20
 174 -16 174 -16 157.5 -13.5 c 128,-1,21
 141 -11 141 -11 132 -6 c 128,-1,22
 123 -1 123 -1 115.5 9 c 128,-1,23
 108 19 108 19 108 34 c 0,24,25
 108 118 108 118 113 286 c 128,-1,26
 118 454 118 454 118 538 c 0,27,28
 118 676 118 676 111 954 c 128,-1,29
 104 1232 104 1232 104 1370 c 0,30,31
 104 1372 104 1372 104 1376 c 0,32,33
 104 1393 104 1393 104 1403 c 128,-1,34
 104 1413 104 1413 105.5 1432 c 128,-1,35
 107 1451 107 1451 110 1463.5 c 128,-1,36
 113 1476 113 1476 118.5 1491 c 128,-1,37
 124 1506 124 1506 132 1515 c 128,-1,38
 140 1524 140 1524 152.5 1530.5 c 128,-1,39
 165 1537 165 1537 181 1537 c 0,40,41
 275 1537 275 1537 344.5 1492.5 c 128,-1,42
 414 1448 414 1448 449 1372.5 c 128,-1,43
 484 1297 484 1297 484 1201 c 0,44,45
 484 1045 484 1045 359 869 c 1,46,47
 393 821 393 821 425 777 c 128,-1,48
 457 733 457 733 470 717.5 c 128,-1,49
 483 702 483 702 497 678.5 c 128,-1,50
 511 655 511 655 513 649.5 c 128,-1,51
 515 644 515 644 520 618 c 128,-1,52
 525 592 525 592 525.5 573 c 128,-1,53
 526 554 526 554 531 502 c 128,-1,54
 536 450 536 450 543 394 c 0,55,56
 544 390 544 390 547 382.5 c 128,-1,57
 550 375 550 375 550 374 c 0,0,1
292 785 m 1,58,-1
 292 786 l 1,59,-1
 222 786 l 1,60,61
 231 532 231 532 231 90 c 1,62,63
 330 106 330 106 387 184.5 c 128,-1,64
 444 263 444 263 444 369 c 0,65,66
 444 715 444 715 292 785 c 1,58,-1
243 1421 m 0,67,68
 215 1421 215 1421 215 1357 c 0,69,70
 215 1274 215 1274 219 1116.5 c 128,-1,71
 223 959 223 959 223 888 c 1,72,73
 244 893 244 893 263.5 911.5 c 128,-1,74
 283 930 283 930 297.5 953.5 c 128,-1,75
 312 977 312 977 326 1009.5 c 128,-1,76
 340 1042 340 1042 348.5 1068.5 c 128,-1,77
 357 1095 357 1095 367.5 1127 c 128,-1,78
 378 1159 378 1159 384 1173 c 1,79,-1
 384 1246 l 2,80,81
 384 1306 384 1306 341.5 1363.5 c 128,-1,82
 299 1421 299 1421 243 1421 c 0,67,68
EndSplineSet
EndChar

StartChar: C
Encoding: 67 67 38
Width: 685
Flags: W
LayerCount: 2
Fore
SplineSet
450 1444 m 1,0,-1
 450 1440 l 1,1,-1
 418 1440 l 1,2,-1
 418 1448 l 1,3,4
 361 1448 361 1448 320 1430 c 128,-1,5
 279 1412 279 1412 256 1385 c 128,-1,6
 233 1358 233 1358 220 1314.5 c 128,-1,7
 207 1271 207 1271 203.5 1232 c 128,-1,8
 200 1193 200 1193 200 1140 c 0,9,10
 200 1116 200 1116 203 1069 c 128,-1,11
 206 1022 206 1022 206 999 c 0,12,13
 206 975 206 975 197 927.5 c 128,-1,14
 188 880 188 880 188 856 c 0,15,16
 188 752 188 752 215.5 475 c 128,-1,17
 243 198 243 198 269 160 c 0,18,19
 315 93 315 93 423 93 c 0,20,21
 505 93 505 93 555 152 c 1,22,23
 590 152 590 152 620 162 c 1,24,-1
 620 135 l 2,25,26
 620 73 620 73 584.5 33.5 c 128,-1,27
 549 -6 549 -6 502 -19.5 c 128,-1,28
 455 -33 455 -33 396 -33 c 0,29,30
 327 -33 327 -33 260 13.5 c 128,-1,31
 193 60 193 60 163 124 c 0,32,33
 123 208 123 208 103 515 c 128,-1,34
 83 822 83 822 83 1037 c 0,35,36
 83 1154 83 1154 97 1226 c 1,37,38
 91 1259 91 1259 91 1290 c 0,39,40
 91 1416 91 1416 185 1490.5 c 128,-1,41
 279 1565 279 1565 417 1565 c 0,42,43
 466 1565 466 1565 513 1537.5 c 128,-1,44
 560 1510 560 1510 560 1465 c 0,45,46
 560 1443 560 1443 543 1431 c 128,-1,47
 526 1419 526 1419 503 1419 c 0,48,49
 465 1419 465 1419 450 1444 c 1,0,-1
EndSplineSet
EndChar

StartChar: D
Encoding: 68 68 39
Width: 691
Flags: W
LayerCount: 2
Fore
SplineSet
602 773 m 1,0,1
 591 754 591 754 591 711 c 0,2,3
 591 556 591 556 520 372 c 128,-1,4
 449 188 449 188 344 92 c 0,5,6
 322 72 322 72 311.5 63 c 128,-1,7
 301 54 301 54 276 34 c 128,-1,8
 251 14 251 14 231 4.5 c 128,-1,9
 211 -5 211 -5 196 -5 c 0,10,11
 158 -5 158 -5 127 12.5 c 128,-1,12
 96 30 96 30 96 65 c 1,13,14
 141 112 141 112 141 306 c 0,15,16
 141 420 141 420 122 645 c 128,-1,17
 103 870 103 870 103 982 c 0,18,19
 103 1018 103 1018 106 1093 c 128,-1,20
 109 1168 109 1168 109 1206 c 0,21,22
 109 1301 109 1301 93 1374 c 0,23,24
 91 1384 91 1384 77.5 1421.5 c 128,-1,25
 64 1459 64 1459 64 1481 c 0,26,27
 64 1498 64 1498 72 1511 c 128,-1,28
 80 1524 80 1524 96 1531.5 c 128,-1,29
 112 1539 112 1539 127 1543.5 c 128,-1,30
 142 1548 142 1548 165 1549.5 c 128,-1,31
 188 1551 188 1551 200 1551.5 c 128,-1,32
 212 1552 212 1552 231 1552 c 0,33,34
 237 1552 237 1552 240 1552 c 0,35,36
 282 1552 282 1552 330 1526.5 c 128,-1,37
 378 1501 378 1501 419 1462 c 128,-1,38
 460 1423 460 1423 493 1377 c 128,-1,39
 526 1331 526 1331 542 1290 c 0,40,41
 552 1265 552 1265 559 1231.5 c 128,-1,42
 566 1198 566 1198 570 1163.5 c 128,-1,43
 574 1129 574 1129 577 1092 c 128,-1,44
 580 1055 580 1055 582 1021 c 128,-1,45
 584 987 584 987 586.5 957.5 c 128,-1,46
 589 928 589 928 593 904 c 128,-1,47
 597 880 597 880 602 868 c 1,48,-1
 602 773 l 1,0,1
239 310 m 1,49,-1
 239 114 l 1,50,51
 296 154 296 154 341.5 222 c 128,-1,52
 387 290 387 290 415 366 c 128,-1,53
 443 442 443 442 461.5 531 c 128,-1,54
 480 620 480 620 487 698.5 c 128,-1,55
 494 777 494 777 494 854 c 0,56,57
 494 1429 494 1429 210 1429 c 1,58,-1
 210 1427 l 2,59,60
 210 1237 210 1237 224 864.5 c 128,-1,61
 238 492 238 492 239 310 c 1,49,-1
EndSplineSet
EndChar

StartChar: E
Encoding: 69 69 40
Width: 505
Flags: W
LayerCount: 2
Fore
SplineSet
228 105 m 1,0,1
 333 111 333 111 336 111 c 0,2,3
 450 111 450 111 450 57 c 2,4,-1
 450 50 l 1,5,6
 436 22 436 22 402.5 7 c 128,-1,7
 369 -8 369 -8 344 -10 c 128,-1,8
 319 -12 319 -12 278 -12 c 2,9,-1
 214 -12 l 2,10,11
 191 -12 191 -12 177 -10.5 c 128,-1,12
 163 -9 163 -9 145 -3 c 128,-1,13
 127 3 127 3 118.5 17.5 c 128,-1,14
 110 32 110 32 110 55 c 2,15,-1
 110 1533 l 1,16,17
 136 1533 136 1533 199 1542 c 128,-1,18
 262 1551 262 1551 287 1551 c 0,19,20
 318 1551 318 1551 349.5 1532.5 c 128,-1,21
 381 1514 381 1514 381 1484 c 0,22,23
 381 1423 381 1423 288 1423 c 0,24,25
 278 1423 278 1423 258.5 1424 c 128,-1,26
 239 1425 239 1425 229 1425 c 0,27,28
 214 1425 214 1425 207 1424 c 1,29,30
 207 1368 207 1368 215 1255 c 128,-1,31
 223 1142 223 1142 223 1086 c 0,32,33
 223 1045 223 1045 218 966.5 c 128,-1,34
 213 888 213 888 213 852 c 1,35,36
 224 854 224 854 243 859 c 128,-1,37
 262 864 262 864 278 867 c 128,-1,38
 294 870 294 870 309 870 c 0,39,40
 332 870 332 870 350.5 853 c 128,-1,41
 369 836 369 836 369 813 c 0,42,43
 369 788 369 788 354 769 c 128,-1,44
 339 750 339 750 315 750 c 0,45,46
 309 750 309 750 291.5 751 c 128,-1,47
 274 752 274 752 264 752 c 0,48,49
 240 752 240 752 228 737 c 1,50,-1
 228 105 l 1,0,1
EndSplineSet
EndChar

StartChar: F
Encoding: 70 70 41
Width: 452
Flags: W
LayerCount: 2
Fore
SplineSet
260 94 m 0,0,1
 260 92 260 92 258 87 c 128,-1,2
 256 82 256 82 256 81 c 0,3,4
 259 72 259 72 259 56 c 0,5,6
 259 30 259 30 240 14 c 128,-1,7
 221 -2 221 -2 190 -2 c 0,8,9
 131 -2 131 -2 131 129 c 0,10,11
 131 324 131 324 110.5 866 c 128,-1,12
 90 1408 90 1408 69 1440 c 1,13,14
 69 1472 69 1472 82.5 1494 c 128,-1,15
 96 1516 96 1516 114 1527.5 c 128,-1,16
 132 1539 132 1539 162 1545.5 c 128,-1,17
 192 1552 192 1552 213.5 1553 c 128,-1,18
 235 1554 235 1554 267 1554 c 0,19,20
 311 1554 311 1554 332.5 1540 c 128,-1,21
 354 1526 354 1526 354 1484 c 0,22,23
 354 1462 354 1462 337 1451 c 128,-1,24
 320 1440 320 1440 297 1440 c 0,25,26
 294 1440 294 1440 276.5 1441 c 128,-1,27
 259 1442 259 1442 247 1442 c 0,28,29
 190 1442 190 1442 190 1419 c 0,30,31
 190 1324 190 1324 205 1140.5 c 128,-1,32
 220 957 220 957 221 869 c 1,33,34
 225 870 225 870 268.5 880.5 c 128,-1,35
 312 891 312 891 335 891 c 128,-1,36
 358 891 358 891 374.5 871.5 c 128,-1,37
 391 852 391 852 391 828 c 0,38,39
 391 814 391 814 384.5 803.5 c 128,-1,40
 378 793 378 793 364.5 786.5 c 128,-1,41
 351 780 351 780 338.5 775 c 128,-1,42
 326 770 326 770 306 767.5 c 128,-1,43
 286 765 286 765 275 764 c 128,-1,44
 264 763 264 763 244 762 c 128,-1,45
 224 761 224 761 221 761 c 1,46,47
 221 650 221 650 240.5 428 c 128,-1,48
 260 206 260 206 260 94 c 0,0,1
EndSplineSet
EndChar

StartChar: G
Encoding: 71 71 42
Width: 771
Flags: W
LayerCount: 2
Fore
SplineSet
574 2 m 1,0,-1
 574 4 l 1,1,2
 562 -2 562 -2 531 -19.5 c 128,-1,3
 500 -37 500 -37 477 -45.5 c 128,-1,4
 454 -54 454 -54 430 -54 c 0,5,6
 375 -54 375 -54 328.5 -35 c 128,-1,7
 282 -16 282 -16 248.5 13.5 c 128,-1,8
 215 43 215 43 188.5 90 c 128,-1,9
 162 137 162 137 144.5 183 c 128,-1,10
 127 229 127 229 114.5 291 c 128,-1,11
 102 353 102 353 96 402 c 128,-1,12
 90 451 90 451 86 515.5 c 128,-1,13
 82 580 82 580 81.5 619 c 128,-1,14
 81 658 81 658 81 711 c 0,15,16
 81 730 81 730 80.5 781 c 128,-1,17
 80 832 80 832 80 862 c 0,18,19
 80 936 80 936 82 996.5 c 128,-1,20
 84 1057 84 1057 92.5 1135 c 128,-1,21
 101 1213 101 1213 115 1274 c 128,-1,22
 129 1335 129 1335 154.5 1396.5 c 128,-1,23
 180 1458 180 1458 215.5 1499 c 128,-1,24
 251 1540 251 1540 303.5 1565.5 c 128,-1,25
 356 1591 356 1591 421 1591 c 0,26,27
 503 1591 503 1591 503 1533 c 0,28,29
 503 1511 503 1511 487.5 1498 c 128,-1,30
 472 1485 472 1485 451 1485 c 0,31,32
 442 1485 442 1485 423 1490 c 128,-1,33
 404 1495 404 1495 395 1495 c 0,34,35
 359 1495 359 1495 329 1471 c 128,-1,36
 299 1447 299 1447 278.5 1402.5 c 128,-1,37
 258 1358 258 1358 242.5 1306.5 c 128,-1,38
 227 1255 227 1255 217.5 1187 c 128,-1,39
 208 1119 208 1119 202 1063 c 128,-1,40
 196 1007 196 1007 193.5 938 c 128,-1,41
 191 869 191 869 190.5 830 c 128,-1,42
 190 791 190 791 190 744 c 0,43,44
 190 729 190 729 189.5 687.5 c 128,-1,45
 189 646 189 646 189 617 c 0,46,47
 189 562 189 562 190.5 516.5 c 128,-1,48
 192 471 192 471 197.5 410.5 c 128,-1,49
 203 350 203 350 213 302.5 c 128,-1,50
 223 255 223 255 240.5 206 c 128,-1,51
 258 157 258 157 282.5 124.5 c 128,-1,52
 307 92 307 92 343.5 71.5 c 128,-1,53
 380 51 380 51 426 51 c 0,54,55
 513 51 513 51 571 137 c 1,56,57
 568 321 568 321 540 371 c 0,58,59
 539 371 539 371 509 367 c 128,-1,60
 479 363 479 363 463 363 c 0,61,62
 395 363 395 363 395 421 c 0,63,64
 395 441 395 441 415.5 455 c 128,-1,65
 436 469 436 469 466.5 476 c 128,-1,66
 497 483 497 483 522 486 c 128,-1,67
 547 489 547 489 565 489 c 0,68,69
 608 489 608 489 630 457 c 128,-1,70
 652 425 652 425 652 380 c 0,71,72
 652 318 652 318 672.5 197 c 128,-1,73
 693 76 693 76 693 15 c 0,74,75
 693 -8 693 -8 679 -24.5 c 128,-1,76
 665 -41 665 -41 643 -41 c 0,77,78
 591 -41 591 -41 574 2 c 1,0,-1
EndSplineSet
EndChar

StartChar: H
Encoding: 72 72 43
Width: 624
Flags: W
LayerCount: 2
Fore
SplineSet
374 1496 m 1,0,1
 373 1511 373 1511 390 1529 c 128,-1,2
 407 1547 407 1547 426 1547 c 0,3,4
 450 1547 450 1547 467 1511 c 128,-1,5
 484 1475 484 1475 484 1393 c 0,6,7
 484 1168 484 1168 503 717.5 c 128,-1,8
 522 267 522 267 522 43 c 0,9,10
 522 16 522 16 505 -7.5 c 128,-1,11
 488 -31 488 -31 462 -31 c 0,12,13
 435 -31 435 -31 422.5 -11 c 128,-1,14
 410 9 410 9 410 37 c 0,15,16
 410 419 410 419 393 759 c 1,17,18
 338 769 338 769 327 769 c 0,19,20
 246 769 246 769 210 753 c 1,21,22
 211 641 211 641 227.5 409.5 c 128,-1,23
 244 178 244 178 244 59 c 0,24,25
 244 39 244 39 232 22 c 128,-1,26
 220 5 220 5 201 5 c 0,27,28
 180 5 180 5 168.5 13 c 128,-1,29
 157 21 157 21 145 41 c 0,30,31
 134 60 134 60 129.5 177.5 c 128,-1,32
 125 295 125 295 124 435 c 128,-1,33
 123 575 123 575 121 602 c 0,34,35
 84 1134 84 1134 84 1510 c 2,36,-1
 84 1525 l 1,37,38
 87 1557 87 1557 129 1557 c 0,39,40
 151 1557 151 1557 169 1545.5 c 128,-1,41
 187 1534 187 1534 191 1514 c 1,42,43
 184 1441 184 1441 184 1360 c 0,44,45
 184 1290 184 1290 191 1149.5 c 128,-1,46
 198 1009 198 1009 198 939 c 0,47,48
 198 927 198 927 197 901 c 128,-1,49
 196 875 196 875 196 862 c 0,50,51
 196 833 196 833 200 809 c 1,52,53
 232 810 232 810 295.5 816.5 c 128,-1,54
 359 823 359 823 392 824 c 1,55,56
 392 932 392 932 383 1156.5 c 128,-1,57
 374 1381 374 1381 374 1496 c 1,0,1
EndSplineSet
EndChar

StartChar: I
Encoding: 73 73 44
Width: 489
Flags: W
LayerCount: 2
Fore
SplineSet
378 19 m 2,0,-1
 121 19 l 2,1,2
 110 19 110 19 98.5 21 c 128,-1,3
 87 23 87 23 74.5 34 c 128,-1,4
 62 45 62 45 62 64 c 0,5,6
 62 113 62 113 124 113 c 0,7,8
 137 113 137 113 158 112.5 c 128,-1,9
 179 112 179 112 187 112 c 0,10,11
 197 112 197 112 197 158 c 0,12,13
 197 316 197 316 178 631.5 c 128,-1,14
 159 947 159 947 159 1105 c 0,15,16
 159 1140 159 1140 161 1209.5 c 128,-1,17
 163 1279 163 1279 163 1314 c 0,18,19
 163 1380 163 1380 158 1428 c 1,20,21
 131 1419 131 1419 110 1419 c 0,22,23
 62 1419 62 1419 62 1468 c 0,24,25
 62 1493 62 1493 93 1511.5 c 128,-1,26
 124 1530 124 1530 170 1538 c 128,-1,27
 216 1546 216 1546 252.5 1549.5 c 128,-1,28
 289 1553 289 1553 315 1553 c 0,29,30
 339 1553 339 1553 357 1536.5 c 128,-1,31
 375 1520 375 1520 375 1497 c 0,32,33
 375 1475 375 1475 361.5 1458.5 c 128,-1,34
 348 1442 348 1442 327 1442 c 0,35,36
 320 1442 320 1442 308 1442.5 c 128,-1,37
 296 1443 296 1443 291 1443 c 0,38,39
 271 1443 271 1443 261.5 1434.5 c 128,-1,40
 252 1426 252 1426 252 1401 c 0,41,42
 252 1201 252 1201 278 802 c 128,-1,43
 304 403 304 403 304 203 c 2,44,-1
 304 115 l 1,45,46
 312 115 312 115 325 115.5 c 128,-1,47
 338 116 338 116 346 116 c 0,48,49
 429 116 429 116 429 82 c 1,50,51
 437 48 437 48 421.5 33.5 c 128,-1,52
 406 19 406 19 378 19 c 2,0,-1
EndSplineSet
EndChar

StartChar: J
Encoding: 74 74 45
Width: 475
Flags: W
LayerCount: 2
Fore
SplineSet
352 315 m 0,0,1
 352 120 352 120 308 2.5 c 128,-1,2
 264 -115 264 -115 153 -194 c 1,3,4
 121 -194 121 -194 100 -178 c 128,-1,5
 79 -162 79 -162 79 -131 c 0,6,7
 79 -106 79 -106 104.5 -83 c 128,-1,8
 130 -60 130 -60 159 -48 c 1,9,10
 241 55 241 55 241 241 c 0,11,12
 241 343 241 343 230.5 533 c 128,-1,13
 220 723 220 723 218 802 c 0,14,15
 217 856 217 856 216 959.5 c 128,-1,16
 215 1063 215 1063 214 1127.5 c 128,-1,17
 213 1192 213 1192 206.5 1281.5 c 128,-1,18
 200 1371 200 1371 188 1445 c 1,19,20
 181 1444 181 1444 161 1439 c 128,-1,21
 141 1434 141 1434 127 1431.5 c 128,-1,22
 113 1429 113 1429 99 1429 c 0,23,24
 78 1429 78 1429 62.5 1444.5 c 128,-1,25
 47 1460 47 1460 47 1481 c 0,26,27
 47 1553 47 1553 292 1553 c 0,28,29
 410 1553 410 1553 410 1497 c 0,30,31
 410 1466 410 1466 382 1454.5 c 128,-1,32
 354 1443 354 1443 319 1444 c 1,33,-1
 319 1429 l 2,34,35
 319 1376 319 1376 317 1270.5 c 128,-1,36
 315 1165 315 1165 315 1112 c 0,37,38
 315 979 315 979 333.5 713.5 c 128,-1,39
 352 448 352 448 352 315 c 0,0,1
EndSplineSet
EndChar

StartChar: K
Encoding: 75 75 46
Width: 691
Flags: W
LayerCount: 2
Fore
SplineSet
334 955 m 1,0,1
 364 876 364 876 497.5 456.5 c 128,-1,2
 631 37 631 37 631 11 c 0,3,4
 631 -14 631 -14 611 -31 c 128,-1,5
 591 -48 591 -48 566 -48 c 0,6,7
 557 -48 557 -48 541 -44 c 128,-1,8
 525 -40 525 -40 518 -40 c 1,9,10
 468 253 468 253 416 468.5 c 128,-1,11
 364 684 364 684 278 880 c 1,12,13
 269 863 269 863 255 836 c 128,-1,14
 241 809 241 809 236.5 799.5 c 128,-1,15
 232 790 232 790 225 771.5 c 128,-1,16
 218 753 218 753 216 738.5 c 128,-1,17
 214 724 214 724 212 702 c 128,-1,18
 210 680 210 680 210 650 c 0,19,20
 210 586 210 586 216.5 460 c 128,-1,21
 223 334 223 334 223 270 c 0,22,23
 223 -7 223 -7 153 -7 c 0,24,25
 93 -7 93 -7 93 108 c 0,26,27
 93 200 93 200 106.5 384 c 128,-1,28
 120 568 120 568 120 660 c 0,29,30
 120 701 120 701 121.5 836 c 128,-1,31
 123 971 123 971 123 1049 c 0,32,33
 123 1272 123 1272 111 1369 c 0,34,35
 110 1380 110 1380 101.5 1418.5 c 128,-1,36
 93 1457 93 1457 93 1476 c 0,37,38
 93 1502 93 1502 109.5 1521.5 c 128,-1,39
 126 1541 126 1541 151 1541 c 0,40,41
 227 1541 227 1541 227 1375 c 0,42,43
 227 1374 227 1374 218 954 c 1,44,45
 225 972 225 972 256 1054 c 128,-1,46
 287 1136 287 1136 320 1221 c 128,-1,47
 353 1306 353 1306 390.5 1394.5 c 128,-1,48
 428 1483 428 1483 461 1539.5 c 128,-1,49
 494 1596 494 1596 513 1596 c 0,50,51
 536 1596 536 1596 553.5 1580.5 c 128,-1,52
 571 1565 571 1565 571 1542 c 0,53,54
 571 1522 571 1522 459 1288 c 128,-1,55
 347 1054 347 1054 334 991 c 1,56,-1
 334 955 l 1,0,1
EndSplineSet
EndChar

StartChar: L
Encoding: 76 76 47
Width: 485
Flags: W
LayerCount: 2
Fore
SplineSet
241 102 m 1,0,-1
 387 102 l 1,1,2
 392 99 392 99 402.5 92.5 c 128,-1,3
 413 86 413 86 417.5 83 c 128,-1,4
 422 80 422 80 426.5 72 c 128,-1,5
 431 64 431 64 431 54 c 0,6,7
 431 31 431 31 416 13.5 c 128,-1,8
 401 -4 401 -4 379 -4 c 0,9,10
 375 -4 375 -4 369.5 -3 c 128,-1,11
 364 -2 364 -2 357.5 0 c 128,-1,12
 351 2 351 2 348 3 c 1,13,14
 331 -1 331 -1 309 -1 c 0,15,16
 298 -1 298 -1 276 0.5 c 128,-1,17
 254 2 254 2 243 2 c 1,18,19
 222 -23 222 -23 185 -23 c 0,20,21
 159 -23 159 -23 137.5 -3.5 c 128,-1,22
 116 16 116 16 116 42 c 0,23,24
 116 58 116 58 122.5 87.5 c 128,-1,25
 129 117 129 117 129 132 c 0,26,27
 129 365 129 365 108.5 830.5 c 128,-1,28
 88 1296 88 1296 88 1529 c 0,29,30
 88 1548 88 1548 103 1559.5 c 128,-1,31
 118 1571 118 1571 138 1571 c 0,32,33
 163 1571 163 1571 181.5 1554 c 128,-1,34
 200 1537 200 1537 200 1512 c 0,35,36
 200 1389 200 1389 210.5 1143 c 128,-1,37
 221 897 221 897 221 775 c 0,38,39
 221 739 221 739 217 710 c 1,40,-1
 217 701 l 1,41,42
 220 642 220 642 226.5 533 c 128,-1,43
 233 424 233 424 237 335 c 128,-1,44
 241 246 241 246 241 167 c 2,45,-1
 241 102 l 1,0,-1
EndSplineSet
EndChar

StartChar: M
Encoding: 77 77 48
Width: 854
Flags: W
LayerCount: 2
Fore
SplineSet
593 1529 m 1,0,1
 598 1556 598 1556 619.5 1571.5 c 128,-1,2
 641 1587 641 1587 671 1587 c 0,3,4
 684 1587 684 1587 695 1579 c 128,-1,5
 706 1571 706 1571 712.5 1559 c 128,-1,6
 719 1547 719 1547 719 1535 c 0,7,8
 719 1292 719 1292 732 807 c 128,-1,9
 745 322 745 322 745 79 c 0,10,11
 745 18 745 18 704 -17 c 1,12,13
 682 -32 682 -32 677 -23 c 1,14,15
 666 -26 666 -26 657.5 -26.5 c 128,-1,16
 649 -27 649 -27 644 -24.5 c 128,-1,17
 639 -22 639 -22 635.5 -17 c 128,-1,18
 632 -12 632 -12 631 -6 c 128,-1,19
 630 0 630 0 629.5 8.5 c 128,-1,20
 629 17 629 17 629 24 c 128,-1,21
 629 31 629 31 629.5 41 c 128,-1,22
 630 51 630 51 630 57 c 0,23,24
 626 213 626 213 626 301 c 128,-1,25
 626 389 626 389 627.5 544 c 128,-1,26
 629 699 629 699 627 1132 c 1,27,28
 616 1068 616 1068 580.5 890.5 c 128,-1,29
 545 713 545 713 524 577 c 1,30,31
 519 552 519 552 511 498 c 128,-1,32
 503 444 503 444 495.5 401.5 c 128,-1,33
 488 359 488 359 477 315 c 128,-1,34
 466 271 466 271 449.5 246.5 c 128,-1,35
 433 222 433 222 411 222 c 0,36,37
 393 222 393 222 380.5 236 c 128,-1,38
 368 250 368 250 362 276 c 128,-1,39
 356 302 356 302 353.5 324 c 128,-1,40
 351 346 351 346 349 375.5 c 128,-1,41
 347 405 347 405 347 413 c 0,42,43
 335 511 335 511 281 805.5 c 128,-1,44
 227 1100 227 1100 209 1210 c 1,45,46
 207 1020 207 1020 207 925 c 0,47,48
 207 783 207 783 215.5 499 c 128,-1,49
 224 215 224 215 224 73 c 0,50,51
 224 29 224 29 193 -4 c 1,52,53
 142 -4 142 -4 124 30 c 128,-1,54
 106 64 106 64 106 122 c 0,55,56
 106 179 106 179 109.5 293 c 128,-1,57
 113 407 113 407 113 464 c 0,58,59
 113 597 113 597 109.5 861 c 128,-1,60
 106 1125 106 1125 106 1257 c 0,61,62
 106 1390 106 1390 109 1522 c 1,63,-1
 166 1554 l 1,64,65
 194 1551 194 1551 227.5 1453 c 128,-1,66
 261 1355 261 1355 293 1194 c 128,-1,67
 325 1033 325 1033 349 893 c 128,-1,68
 373 753 373 753 396.5 597.5 c 128,-1,69
 420 442 420 442 423 424 c 1,70,71
 429 458 429 458 453.5 598 c 128,-1,72
 478 738 478 738 487 789.5 c 128,-1,73
 496 841 496 841 516 961.5 c 128,-1,74
 536 1082 536 1082 546.5 1155 c 128,-1,75
 557 1228 557 1228 570.5 1328.5 c 128,-1,76
 584 1429 584 1429 593 1517 c 1,77,-1
 593 1529 l 1,0,1
EndSplineSet
EndChar

StartChar: N
Encoding: 78 78 49
Width: 764
Flags: W
LayerCount: 2
Fore
SplineSet
235 1112 m 1,0,1
 236 1154 236 1154 217.5 1219.5 c 128,-1,2
 199 1285 199 1285 197 1298 c 1,3,-1
 197 2 l 1,4,-1
 125 2 l 1,5,-1
 125 40 l 1,6,7
 129 55 129 55 124 103 c 128,-1,8
 119 151 119 151 119 177 c 0,9,10
 119 283 119 283 106 521 c 128,-1,11
 93 759 93 759 93 812 c 2,12,-1
 93 1073 l 2,13,14
 93 1136 93 1136 100 1261 c 128,-1,15
 107 1386 107 1386 107 1449 c 0,16,17
 107 1477 107 1477 107.5 1486 c 128,-1,18
 108 1495 108 1495 111.5 1513 c 128,-1,19
 115 1531 115 1531 122.5 1537 c 128,-1,20
 130 1543 130 1543 145.5 1548.5 c 128,-1,21
 161 1554 161 1554 184 1554 c 0,22,23
 200 1554 200 1554 215 1546 c 128,-1,24
 230 1538 230 1538 240 1523.5 c 128,-1,25
 250 1509 250 1509 250 1492 c 0,26,27
 250 1459 250 1459 258 1425.5 c 128,-1,28
 266 1392 266 1392 281 1350.5 c 128,-1,29
 296 1309 296 1309 302 1288 c 0,30,31
 308 1265 308 1265 312.5 1236 c 128,-1,32
 317 1207 317 1207 319 1184 c 128,-1,33
 321 1161 321 1161 324 1131 c 128,-1,34
 327 1101 327 1101 332 1078 c 0,35,36
 347 995 347 995 377 884.5 c 128,-1,37
 407 774 407 774 433.5 689 c 128,-1,38
 460 604 460 604 483 496.5 c 128,-1,39
 506 389 506 389 511 298 c 1,40,41
 527 268 527 268 531 225 c 1,42,43
 531 344 531 344 534 582 c 128,-1,44
 537 820 537 820 537 939 c 2,45,-1
 537 1545 l 1,46,47
 549 1596 549 1596 604 1596 c 0,48,49
 635 1596 635 1596 647.5 1572.5 c 128,-1,50
 660 1549 660 1549 660 1516 c 2,51,-1
 660 1504 l 1,52,53
 647 1477 647 1477 647 1444 c 0,54,55
 647 1319 647 1319 643 1066 c 128,-1,56
 639 813 639 813 639 687 c 2,57,-1
 639 61 l 2,58,59
 639 38 639 38 629.5 20 c 128,-1,60
 620 2 620 2 599 -9.5 c 128,-1,61
 578 -21 578 -21 549 -21 c 0,62,63
 533 -21 533 -21 521.5 -14 c 128,-1,64
 510 -7 510 -7 504 3 c 128,-1,65
 498 13 498 13 493.5 28 c 128,-1,66
 489 43 489 43 487 56.5 c 128,-1,67
 485 70 485 70 482.5 86.5 c 128,-1,68
 480 103 480 103 478 113 c 0,69,70
 455 205 455 205 400.5 399.5 c 128,-1,71
 346 594 346 594 309 745 c 128,-1,72
 272 896 272 896 250 1037 c 0,73,74
 248 1044 248 1044 247.5 1056 c 128,-1,75
 247 1068 247 1068 246.5 1076.5 c 128,-1,76
 246 1085 246 1085 243 1095 c 128,-1,77
 240 1105 240 1105 235 1112 c 1,0,1
EndSplineSet
EndChar

StartChar: O
Encoding: 79 79 50
Width: 694
Flags: W
LayerCount: 2
Fore
SplineSet
304 1477 m 0,0,1
 285 1477 285 1477 268 1463 c 128,-1,2
 251 1449 251 1449 239 1421 c 128,-1,3
 227 1393 227 1393 217 1361.5 c 128,-1,4
 207 1330 207 1330 200.5 1284.5 c 128,-1,5
 194 1239 194 1239 189 1202 c 128,-1,6
 184 1165 184 1165 181 1114 c 128,-1,7
 178 1063 178 1063 176 1031 c 128,-1,8
 174 999 174 999 173.5 954 c 128,-1,9
 173 909 173 909 173 894 c 128,-1,10
 173 879 173 879 173 852 c 0,11,12
 173 786 173 786 183 669 c 128,-1,13
 193 552 193 552 214.5 406.5 c 128,-1,14
 236 261 236 261 279.5 158 c 128,-1,15
 323 55 323 55 379 55 c 0,16,17
 419 55 419 55 447 131.5 c 128,-1,18
 475 208 475 208 486.5 323 c 128,-1,19
 498 438 498 438 502 517 c 128,-1,20
 506 596 506 596 506 653 c 0,21,22
 506 693 506 693 505.5 731 c 128,-1,23
 505 769 505 769 502.5 841.5 c 128,-1,24
 500 914 500 914 494 977.5 c 128,-1,25
 488 1041 488 1041 479 1118 c 128,-1,26
 470 1195 470 1195 454.5 1255 c 128,-1,27
 439 1315 439 1315 419 1367.5 c 128,-1,28
 399 1420 399 1420 369.5 1448.5 c 128,-1,29
 340 1477 340 1477 304 1477 c 0,0,1
568 215 m 0,30,31
 568 161 568 161 545.5 99.5 c 128,-1,32
 523 38 523 38 476.5 -9.5 c 128,-1,33
 430 -57 430 -57 375 -57 c 128,-1,34
 320 -57 320 -57 274.5 -19 c 128,-1,35
 229 19 229 19 199.5 78.5 c 128,-1,36
 170 138 170 138 147 220.5 c 128,-1,37
 124 303 124 303 112 381.5 c 128,-1,38
 100 460 100 460 92.5 547 c 128,-1,39
 85 634 85 634 83 691.5 c 128,-1,40
 81 749 81 749 81 799 c 0,41,42
 81 851 81 851 83.5 906.5 c 128,-1,43
 86 962 86 962 90.5 1038.5 c 128,-1,44
 95 1115 95 1115 97 1146 c 0,45,46
 98 1164 98 1164 99 1206 c 128,-1,47
 100 1248 100 1248 101 1277 c 128,-1,48
 102 1306 102 1306 107 1348.5 c 128,-1,49
 112 1391 112 1391 119 1421 c 128,-1,50
 126 1451 126 1451 140.5 1484 c 128,-1,51
 155 1517 155 1517 175 1537.5 c 128,-1,52
 195 1558 195 1558 225.5 1571.5 c 128,-1,53
 256 1585 256 1585 295 1585 c 0,54,55
 335 1585 335 1585 369 1574 c 128,-1,56
 403 1563 403 1563 426.5 1545.5 c 128,-1,57
 450 1528 450 1528 469.5 1499.5 c 128,-1,58
 489 1471 489 1471 501.5 1444 c 128,-1,59
 514 1417 514 1417 524 1379 c 128,-1,60
 534 1341 534 1341 539 1311.5 c 128,-1,61
 544 1282 544 1282 550 1242 c 0,62,63
 599 892 599 892 599 618 c 0,64,65
 599 573 599 573 590 487 c 128,-1,66
 581 401 581 401 581 359 c 2,67,-1
 581 350 l 1,68,69
 568 293 568 293 568 215 c 0,30,31
EndSplineSet
EndChar

StartChar: P
Encoding: 80 80 51
Width: 551
Flags: W
LayerCount: 2
Fore
SplineSet
360 1158 m 2,0,-1
 360 1159 l 2,1,2
 360 1213 360 1213 354 1249.5 c 128,-1,3
 348 1286 348 1286 339.5 1311.5 c 128,-1,4
 331 1337 331 1337 306 1363 c 128,-1,5
 281 1389 281 1389 258.5 1406.5 c 128,-1,6
 236 1424 236 1424 187 1459 c 1,7,8
 188 1351 188 1351 196.5 1135 c 128,-1,9
 205 919 205 919 205 811 c 1,10,11
 284 886 284 886 322 969 c 128,-1,12
 360 1052 360 1052 360 1158 c 2,0,-1
67 1520 m 1,13,14
 99 1566 99 1566 145 1566 c 0,15,16
 221 1566 221 1566 283.5 1532 c 128,-1,17
 346 1498 346 1498 385 1441.5 c 128,-1,18
 424 1385 424 1385 445 1316.5 c 128,-1,19
 466 1248 466 1248 466 1175 c 0,20,21
 466 1025 466 1025 401 902.5 c 128,-1,22
 336 780 336 780 210 712 c 1,23,24
 210 609 210 609 218 396.5 c 128,-1,25
 226 184 226 184 226 74 c 0,26,27
 226 37 226 37 210 13 c 128,-1,28
 194 -11 194 -11 158 -11 c 0,29,30
 133 -11 133 -11 121 10.5 c 128,-1,31
 109 32 109 32 109 58 c 0,32,33
 109 151 109 151 114 400.5 c 128,-1,34
 119 650 119 650 119 789 c 0,35,36
 119 1275 119 1275 67 1520 c 1,13,14
EndSplineSet
EndChar

StartChar: Q
Encoding: 81 81 52
Width: 720
Flags: W
LayerCount: 2
Fore
SplineSet
297 20 m 1,0,1
 242 57 242 57 202 107 c 128,-1,2
 162 157 162 157 139.5 208 c 128,-1,3
 117 259 117 259 103.5 324 c 128,-1,4
 90 389 90 389 86 445.5 c 128,-1,5
 82 502 82 502 82 574 c 0,6,7
 82 630 82 630 87 741 c 128,-1,8
 92 852 92 852 92 908 c 0,9,10
 92 923 92 923 91 971.5 c 128,-1,11
 90 1020 90 1020 90 1052 c 0,12,13
 90 1576 90 1576 311 1576 c 0,14,15
 392 1576 392 1576 462 1517.5 c 128,-1,16
 532 1459 532 1459 551 1377 c 0,17,18
 586 1222 586 1222 596 1054.5 c 128,-1,19
 606 887 606 887 606 659 c 0,20,21
 606 642 606 642 606 611 c 0,22,23
 606 525 606 525 605.5 484 c 128,-1,24
 605 443 605 443 599 378 c 128,-1,25
 593 313 593 313 580 271 c 128,-1,26
 567 229 567 229 542.5 175.5 c 128,-1,27
 518 122 518 122 481 70 c 1,28,29
 483 62 483 62 488 29.5 c 128,-1,30
 493 -3 493 -3 499.5 -33.5 c 128,-1,31
 506 -64 506 -64 515 -96.5 c 128,-1,32
 524 -129 524 -129 537.5 -149 c 128,-1,33
 551 -169 551 -169 567 -169 c 0,34,35
 582 -169 582 -169 587 -169 c 128,-1,36
 592 -169 592 -169 607 -170 c 128,-1,37
 622 -171 622 -171 629 -174.5 c 128,-1,38
 636 -178 636 -178 645.5 -183 c 128,-1,39
 655 -188 655 -188 659 -197.5 c 128,-1,40
 663 -207 663 -207 663 -219 c 0,41,42
 663 -282 663 -282 572 -282 c 0,43,44
 537 -282 537 -282 487 -253 c 1,45,-1
 487 -252 l 1,46,47
 460 -239 460 -239 441.5 -216 c 128,-1,48
 423 -193 423 -193 413 -161 c 128,-1,49
 403 -129 403 -129 397.5 -102.5 c 128,-1,50
 392 -76 392 -76 387 -37 c 128,-1,51
 382 2 382 2 378 20 c 1,52,-1
 297 20 l 1,0,1
494 793 m 2,53,54
 494 852 494 852 488.5 918 c 128,-1,55
 483 984 483 984 474 1064.5 c 128,-1,56
 465 1145 465 1145 461 1188 c 0,57,58
 460 1201 460 1201 458 1226 c 128,-1,59
 456 1251 456 1251 455 1266 c 128,-1,60
 454 1281 454 1281 451 1305 c 128,-1,61
 448 1329 448 1329 444.5 1343.5 c 128,-1,62
 441 1358 441 1358 434.5 1378 c 128,-1,63
 428 1398 428 1398 420 1410 c 128,-1,64
 412 1422 412 1422 400 1435.5 c 128,-1,65
 388 1449 388 1449 373 1456.5 c 128,-1,66
 358 1464 358 1464 338 1469 c 128,-1,67
 318 1474 318 1474 294 1474 c 0,68,69
 258 1474 258 1474 233.5 1368.5 c 128,-1,70
 209 1263 209 1263 199.5 1103.5 c 128,-1,71
 190 944 190 944 186.5 838.5 c 128,-1,72
 183 733 183 733 183 653 c 0,73,74
 183 598 183 598 185 543 c 128,-1,75
 187 488 187 488 198 400.5 c 128,-1,76
 209 313 209 313 226.5 248.5 c 128,-1,77
 244 184 244 184 280 134 c 128,-1,78
 316 84 316 84 364 80 c 1,79,-1
 364 82 l 1,80,81
 379 108 379 108 411 108 c 1,82,-1
 411 107 l 1,83,84
 452 146 452 146 473 206 c 128,-1,85
 494 266 494 266 494 327 c 2,86,-1
 494 793 l 2,53,54
EndSplineSet
EndChar

StartChar: R
Encoding: 82 82 53
Width: 601
Flags: W
LayerCount: 2
Fore
SplineSet
308 1207 m 1,0,1
 308 1245 308 1245 301 1297 c 128,-1,2
 294 1349 294 1349 273 1403 c 128,-1,3
 252 1457 252 1457 221 1463 c 1,4,5
 221 1398 221 1398 215.5 1258 c 128,-1,6
 210 1118 210 1118 210 1045 c 0,7,8
 210 982 210 982 212 951 c 1,9,10
 246 984 246 984 278 1030 c 1,11,-1
 308 1207 l 1,0,1
102 44 m 2,12,-1
 102 60 l 2,13,14
 102 260 102 260 109 660.5 c 128,-1,15
 116 1061 116 1061 116 1261 c 2,16,-1
 116 1513 l 2,17,18
 116 1537 116 1537 126 1547 c 128,-1,19
 136 1557 136 1557 170 1557 c 0,20,21
 232 1557 232 1557 282 1525.5 c 128,-1,22
 332 1494 332 1494 362 1444 c 128,-1,23
 392 1394 392 1394 408 1335 c 128,-1,24
 424 1276 424 1276 424 1217 c 0,25,26
 424 1188 424 1188 419 1156 c 128,-1,27
 414 1124 414 1124 409.5 1101.5 c 128,-1,28
 405 1079 405 1079 392 1040.5 c 128,-1,29
 379 1002 379 1002 373.5 988 c 128,-1,30
 368 974 368 974 350 929 c 128,-1,31
 332 884 332 884 329 876 c 1,32,33
 330 796 330 796 355.5 676.5 c 128,-1,34
 381 557 381 557 403 483.5 c 128,-1,35
 425 410 425 410 476.5 254 c 128,-1,36
 528 98 528 98 535 76 c 1,37,-1
 535 71 l 2,38,39
 535 53 535 53 535 46.5 c 128,-1,40
 535 40 535 40 532.5 24 c 128,-1,41
 530 8 530 8 525.5 0.5 c 128,-1,42
 521 -7 521 -7 511 -14 c 128,-1,43
 501 -21 501 -21 486 -21 c 0,44,45
 448 -21 448 -21 412 34 c 1,46,-1
 412 41 l 1,47,48
 407 123 407 123 361.5 266 c 128,-1,49
 316 409 316 409 307 450 c 0,50,51
 294 509 294 509 269.5 647.5 c 128,-1,52
 245 786 245 786 227 859 c 1,53,-1
 227 52 l 2,54,55
 227 -13 227 -13 160 -13 c 0,56,57
 136 -13 136 -13 119 3.5 c 128,-1,58
 102 20 102 20 102 44 c 2,12,-1
EndSplineSet
EndChar

StartChar: S
Encoding: 83 83 54
Width: 581
Flags: W
LayerCount: 2
Fore
SplineSet
427 685 m 1,0,1
 434 659 434 659 451 603 c 128,-1,2
 468 547 468 547 477.5 513.5 c 128,-1,3
 487 480 487 480 495 432 c 128,-1,4
 503 384 503 384 503 342 c 0,5,6
 503 278 503 278 485.5 212 c 128,-1,7
 468 146 468 146 435.5 87.5 c 128,-1,8
 403 29 403 29 347.5 -8 c 128,-1,9
 292 -45 292 -45 223 -45 c 0,10,11
 196 -45 196 -45 163 -40 c 128,-1,12
 130 -35 130 -35 97 -18 c 128,-1,13
 64 -1 64 -1 64 24 c 0,14,15
 64 47 64 47 75.5 63 c 128,-1,16
 87 79 87 79 110 79 c 128,-1,17
 133 79 133 79 170.5 63.5 c 128,-1,18
 208 48 208 48 223 48 c 0,19,20
 263 48 263 48 295 83 c 128,-1,21
 327 118 327 118 345 169.5 c 128,-1,22
 363 221 363 221 372.5 270 c 128,-1,23
 382 319 382 319 382 355 c 0,24,25
 382 447 382 447 352 545 c 128,-1,26
 322 643 322 643 278.5 729 c 128,-1,27
 235 815 235 815 192 901 c 128,-1,28
 149 987 149 987 119 1085 c 128,-1,29
 89 1183 89 1183 89 1275 c 0,30,31
 89 1345 89 1345 113 1411.5 c 128,-1,32
 137 1478 137 1478 190.5 1526 c 128,-1,33
 244 1574 244 1574 317 1574 c 0,34,35
 354 1574 354 1574 389 1553.5 c 128,-1,36
 424 1533 424 1533 438 1500 c 1,37,-1
 438 1456 l 1,38,39
 352 1456 352 1456 323 1476 c 1,40,41
 285 1472 285 1472 257 1439.5 c 128,-1,42
 229 1407 229 1407 217.5 1367.5 c 128,-1,43
 206 1328 206 1328 206 1290 c 0,44,45
 206 1223 206 1223 229 1139.5 c 128,-1,46
 252 1056 252 1056 284 982.5 c 128,-1,47
 316 909 316 909 348.5 846 c 128,-1,48
 381 783 381 783 404 743 c 128,-1,49
 427 703 427 703 427 701 c 2,50,-1
 427 685 l 1,0,1
EndSplineSet
EndChar

StartChar: T
Encoding: 84 84 55
Width: 543
Flags: W
LayerCount: 2
Fore
SplineSet
375 611 m 1,0,-1
 375 610 l 1,1,2
 361 545 361 545 361 454 c 0,3,4
 361 392 361 392 369.5 270 c 128,-1,5
 378 148 378 148 378 86 c 0,6,7
 378 -14 378 -14 319 -14 c 0,8,9
 285 -14 285 -14 269 18 c 128,-1,10
 253 50 253 50 253 89 c 0,11,12
 253 144 253 144 261 253 c 128,-1,13
 269 362 269 362 269 416 c 0,14,15
 269 522 269 522 255 735 c 128,-1,16
 241 948 241 948 241 1054 c 0,17,18
 241 1070 241 1070 242.5 1132 c 128,-1,19
 244 1194 244 1194 244 1233 c 0,20,21
 244 1380 244 1380 225 1424 c 1,22,23
 210 1423 210 1423 172 1418 c 128,-1,24
 134 1413 134 1413 114 1413 c 0,25,26
 88 1413 88 1413 67.5 1428.5 c 128,-1,27
 47 1444 47 1444 47 1469 c 0,28,29
 47 1493 47 1493 96 1510.5 c 128,-1,30
 145 1528 145 1528 215.5 1536 c 128,-1,31
 286 1544 286 1544 338 1547 c 128,-1,32
 390 1550 390 1550 423 1550 c 0,33,34
 448 1550 448 1550 468.5 1533.5 c 128,-1,35
 489 1517 489 1517 489 1492 c 128,-1,36
 489 1467 489 1467 471 1452.5 c 128,-1,37
 453 1438 453 1438 427 1438 c 0,38,39
 414 1438 414 1438 390 1440 c 128,-1,40
 366 1442 366 1442 354 1442 c 0,41,42
 340 1442 340 1442 333 1441 c 1,43,44
 347 1323 347 1323 347 1189 c 0,45,46
 347 1146 347 1146 345 1057.5 c 128,-1,47
 343 969 343 969 343 925 c 0,48,49
 343 738 343 738 375 611 c 1,0,-1
EndSplineSet
EndChar

StartChar: U
Encoding: 85 85 56
Width: 752
Flags: W
LayerCount: 2
Fore
SplineSet
651 460 m 2,0,-1
 651 429 l 2,1,2
 651 426 651 426 648.5 418.5 c 128,-1,3
 646 411 646 411 646 407 c 0,4,5
 646 390 646 390 646.5 350 c 128,-1,6
 647 310 647 310 647 288 c 0,7,8
 647 236 647 236 643.5 195.5 c 128,-1,9
 640 155 640 155 628 109 c 128,-1,10
 616 63 616 63 595.5 33 c 128,-1,11
 575 3 575 3 537 -17 c 128,-1,12
 499 -37 499 -37 447 -37 c 0,13,14
 384 -37 384 -37 335.5 -11.5 c 128,-1,15
 287 14 287 14 259.5 52 c 128,-1,16
 232 90 232 90 210 148 c 128,-1,17
 188 206 188 206 177.5 256 c 128,-1,18
 167 306 167 306 152 371 c 128,-1,19
 137 436 137 436 125 474 c 0,20,21
 123 479 123 479 102.5 932 c 128,-1,22
 82 1385 82 1385 82 1435 c 1,23,24
 67 1452 67 1452 67 1477 c 128,-1,25
 67 1502 67 1502 84.5 1521 c 128,-1,26
 102 1540 102 1540 126 1540 c 0,27,28
 200 1540 200 1540 200 1394 c 0,29,30
 200 1276 200 1276 209.5 1038.5 c 128,-1,31
 219 801 219 801 219 682 c 1,32,33
 231 655 231 655 239.5 573 c 128,-1,34
 248 491 248 491 248 444 c 0,35,36
 248 400 248 400 262.5 333.5 c 128,-1,37
 277 267 277 267 302 199 c 128,-1,38
 327 131 327 131 369.5 83 c 128,-1,39
 412 35 412 35 460 35 c 0,40,41
 483 35 483 35 500 49.5 c 128,-1,42
 517 64 517 64 525 82 c 128,-1,43
 533 100 533 100 537.5 129.5 c 128,-1,44
 542 159 542 159 542.5 176.5 c 128,-1,45
 543 194 543 194 543 219 c 2,46,-1
 543 1138 l 2,47,48
 543 1196 543 1196 521 1313.5 c 128,-1,49
 499 1431 499 1431 499 1489 c 0,50,51
 499 1514 499 1514 519.5 1529.5 c 128,-1,52
 540 1545 540 1545 566 1545 c 1,53,-1
 628 1497 l 1,54,-1
 628 1463 l 2,55,56
 628 1443 628 1443 619 1401.5 c 128,-1,57
 610 1360 610 1360 610 1338 c 0,58,59
 610 1219 610 1219 625 989.5 c 128,-1,60
 640 760 640 760 641 649 c 1,61,-1
 641 646 l 1,62,63
 639 635 639 635 642 614 c 128,-1,64
 645 593 645 593 645 586 c 0,65,66
 645 563 645 563 648 520.5 c 128,-1,67
 651 478 651 478 651 460 c 2,0,-1
EndSplineSet
EndChar

StartChar: V
Encoding: 86 86 57
Width: 664
Flags: W
LayerCount: 2
Fore
SplineSet
554 1569 m 2,0,-1
 597 1569 l 1,1,2
 583 1436 583 1436 524 988 c 128,-1,3
 465 540 465 540 444 288 c 0,4,5
 442 264 442 264 441.5 214 c 128,-1,6
 441 164 441 164 439 126.5 c 128,-1,7
 437 89 437 89 431 49.5 c 128,-1,8
 425 10 425 10 410 -12 c 128,-1,9
 395 -34 395 -34 370 -34 c 0,10,11
 341 -34 341 -34 322 -12 c 1,12,13
 275 183 275 183 182 768.5 c 128,-1,14
 89 1354 89 1354 51 1523 c 1,15,16
 63 1563 63 1563 111 1563 c 0,17,18
 122 1563 122 1563 130.5 1560 c 128,-1,19
 139 1557 139 1557 145 1549.5 c 128,-1,20
 151 1542 151 1542 155 1536 c 128,-1,21
 159 1530 159 1530 162 1518.5 c 128,-1,22
 165 1507 165 1507 166.5 1500.5 c 128,-1,23
 168 1494 168 1494 169.5 1481 c 128,-1,24
 171 1468 171 1468 172 1465 c 0,25,26
 191 1347 191 1347 225.5 1111.5 c 128,-1,27
 260 876 260 876 290 690.5 c 128,-1,28
 320 505 320 505 354 339 c 1,29,30
 367 455 367 455 403.5 708.5 c 128,-1,31
 440 962 440 962 459.5 1156 c 128,-1,32
 479 1350 479 1350 479 1528 c 1,33,34
 511 1569 511 1569 554 1569 c 2,0,-1
EndSplineSet
EndChar

StartChar: W
Encoding: 87 87 58
Width: 950
Flags: W
LayerCount: 2
Fore
SplineSet
380 1286 m 2,0,1
 380 1286 380 1286 380 1325 c 0,2,3
 380 1347 380 1347 396.5 1367.5 c 128,-1,4
 413 1388 413 1388 434 1388 c 0,5,6
 468 1388 468 1388 492.5 1374 c 128,-1,7
 517 1360 517 1360 517 1328 c 2,8,-1
 517 1297 l 2,9,10
 517 1170 517 1170 539.5 1030.5 c 128,-1,11
 562 891 562 891 598.5 723 c 128,-1,12
 635 555 635 555 650 461 c 1,13,14
 661 574 661 574 690 788.5 c 128,-1,15
 719 1003 719 1003 736 1176.5 c 128,-1,16
 753 1350 753 1350 753 1506 c 0,17,18
 753 1551 753 1551 768 1571.5 c 128,-1,19
 783 1592 783 1592 827 1592 c 0,20,21
 851 1592 851 1592 870.5 1576 c 128,-1,22
 890 1560 890 1560 890 1536 c 0,23,24
 890 1510 890 1510 869 1489 c 1,25,26
 838 1321 838 1321 814.5 988 c 128,-1,27
 791 655 791 655 765 498 c 0,28,29
 747 390 747 390 739.5 340 c 128,-1,30
 732 290 732 290 723 202 c 128,-1,31
 714 114 714 114 714 43 c 0,32,33
 714 12 714 12 698.5 -8 c 128,-1,34
 683 -28 683 -28 653 -28 c 0,35,36
 628 -28 628 -28 610 5 c 128,-1,37
 592 38 592 38 582 92.5 c 128,-1,38
 572 147 572 147 566.5 196.5 c 128,-1,39
 561 246 561 246 557.5 299.5 c 128,-1,40
 554 353 554 353 552 365 c 0,41,42
 539 470 539 470 499 665.5 c 128,-1,43
 459 861 459 861 453 893 c 1,44,45
 429 709 429 709 415.5 598 c 128,-1,46
 402 487 402 487 390 325.5 c 128,-1,47
 378 164 378 164 378 28 c 0,48,49
 378 6 378 6 359.5 -11.5 c 128,-1,50
 341 -29 341 -29 319 -29 c 0,51,52
 244 -29 244 -29 244 127 c 0,53,54
 244 223 244 223 159.5 828.5 c 128,-1,55
 75 1434 75 1434 52 1491 c 1,56,57
 78 1540 78 1540 123 1540 c 0,58,59
 145 1540 145 1540 162.5 1519.5 c 128,-1,60
 180 1499 180 1499 190.5 1463.5 c 128,-1,61
 201 1428 201 1428 208 1386.5 c 128,-1,62
 215 1345 215 1345 218 1297 c 128,-1,63
 221 1249 221 1249 222.5 1210.5 c 128,-1,64
 224 1172 224 1172 225 1135 c 128,-1,65
 226 1098 226 1098 227 1086 c 0,66,67
 233 1018 233 1018 242.5 937 c 128,-1,68
 252 856 252 856 261 797.5 c 128,-1,69
 270 739 270 739 284 645 c 128,-1,70
 298 551 298 551 305 503 c 1,71,72
 309 535 309 535 325 676 c 128,-1,73
 341 817 341 817 351 908 c 128,-1,74
 361 999 361 999 370.5 1113 c 128,-1,75
 380 1227 380 1227 380 1286 c 2,0,1
EndSplineSet
EndChar

StartChar: X
Encoding: 88 88 59
Width: 578
Flags: W
LayerCount: 2
Fore
SplineSet
102 1473 m 2,0,-1
 102 1478 l 1,1,2
 110 1496 110 1496 125.5 1508 c 128,-1,3
 141 1520 141 1520 160 1520 c 128,-1,4
 179 1520 179 1520 191.5 1514.5 c 128,-1,5
 204 1509 204 1509 210 1496 c 128,-1,6
 216 1483 216 1483 218.5 1474 c 128,-1,7
 221 1465 221 1465 223 1443.5 c 128,-1,8
 225 1422 225 1422 226 1415 c 0,9,10
 235 1351 235 1351 264.5 1234.5 c 128,-1,11
 294 1118 294 1118 301 1087 c 1,12,13
 304 1097 304 1097 326.5 1229 c 128,-1,14
 349 1361 349 1361 378.5 1455.5 c 128,-1,15
 408 1550 408 1550 443 1550 c 0,16,17
 466 1550 466 1550 485 1538 c 128,-1,18
 504 1526 504 1526 504 1505 c 0,19,20
 504 1491 504 1491 499.5 1477 c 128,-1,21
 495 1463 495 1463 487 1445 c 128,-1,22
 479 1427 479 1427 476 1419 c 0,23,24
 454 1360 454 1360 402.5 1105.5 c 128,-1,25
 351 851 351 851 351 796 c 0,26,27
 351 782 351 782 374.5 663.5 c 128,-1,28
 398 545 398 545 428 400.5 c 128,-1,29
 458 256 458 256 459 248 c 1,30,-1
 459 236 l 1,31,32
 461 211 461 211 475 160 c 128,-1,33
 489 109 489 109 489 80 c 0,34,35
 489 58 489 58 472.5 41 c 128,-1,36
 456 24 456 24 433 24 c 0,37,38
 407 24 407 24 390 36 c 128,-1,39
 373 48 373 48 373 73 c 0,40,41
 373 118 373 118 368.5 164.5 c 128,-1,42
 364 211 364 211 354 264 c 128,-1,43
 344 317 344 317 336.5 351 c 128,-1,44
 329 385 329 385 314 448.5 c 128,-1,45
 299 512 299 512 293 538 c 1,46,47
 217 214 217 214 192 77 c 0,48,49
 187 47 187 47 182 31.5 c 128,-1,50
 177 16 177 16 161 1.5 c 128,-1,51
 145 -13 145 -13 118 -13 c 0,52,53
 98 -13 98 -13 80.5 0 c 128,-1,54
 63 13 63 13 63 33 c 0,55,56
 63 56 63 56 70.5 83 c 128,-1,57
 78 110 78 110 91.5 144.5 c 128,-1,58
 105 179 105 179 109 193 c 0,59,60
 146 313 146 313 190.5 521.5 c 128,-1,61
 235 730 235 730 235 819 c 0,62,63
 235 894 235 894 214 986.5 c 128,-1,64
 193 1079 193 1079 168.5 1151.5 c 128,-1,65
 144 1224 144 1224 123 1313.5 c 128,-1,66
 102 1403 102 1403 102 1473 c 2,0,-1
EndSplineSet
EndChar

StartChar: Y
Encoding: 89 89 60
Width: 522
Flags: W
LayerCount: 2
Fore
SplineSet
240 25 m 0,0,1
 240 91 240 91 245 223 c 128,-1,2
 250 355 250 355 250 421 c 0,3,4
 250 481 250 481 230.5 598.5 c 128,-1,5
 211 716 211 716 211 776 c 0,6,7
 211 859 211 859 186.5 961.5 c 128,-1,8
 162 1064 162 1064 132 1145.5 c 128,-1,9
 102 1227 102 1227 77.5 1329 c 128,-1,10
 53 1431 53 1431 53 1513 c 0,11,12
 53 1531 53 1531 75 1538.5 c 128,-1,13
 97 1546 97 1546 118 1546 c 0,14,15
 133 1546 133 1546 149 1534 c 128,-1,16
 165 1522 165 1522 166 1507 c 0,17,18
 186 1271 186 1271 268 1006 c 1,19,20
 272 1024 272 1024 277.5 1091.5 c 128,-1,21
 283 1159 283 1159 290.5 1230 c 128,-1,22
 298 1301 298 1301 310 1373.5 c 128,-1,23
 322 1446 322 1446 343 1492.5 c 128,-1,24
 364 1539 364 1539 392 1539 c 0,25,26
 446 1539 446 1539 446 1517 c 0,27,28
 446 1402 446 1402 397 1174 c 128,-1,29
 348 946 348 946 348 828 c 0,30,31
 348 816 348 816 351 792.5 c 128,-1,32
 354 769 354 769 354 757 c 2,33,-1
 354 726 l 2,34,35
 354 636 354 636 353.5 454.5 c 128,-1,36
 353 273 353 273 353 183 c 0,37,38
 353 166 353 166 352.5 132 c 128,-1,39
 352 98 352 98 352 81 c 2,40,-1
 352 35 l 2,41,42
 352 8 352 8 334 -8.5 c 128,-1,43
 316 -25 316 -25 292 -25 c 0,44,45
 271 -25 271 -25 255.5 -10.5 c 128,-1,46
 240 4 240 4 240 25 c 0,0,1
EndSplineSet
EndChar

StartChar: Z
Encoding: 90 90 61
Width: 494
Flags: W
LayerCount: 2
Fore
SplineSet
79 1549 m 1,0,-1
 108 1550 l 1,1,2
 135 1543 135 1543 165 1543 c 0,3,4
 197 1543 197 1543 261.5 1553.5 c 128,-1,5
 326 1564 326 1564 358 1564 c 0,6,7
 382 1564 382 1564 398 1546.5 c 128,-1,8
 414 1529 414 1529 414 1505 c 0,9,10
 414 1451 414 1451 395 1343 c 128,-1,11
 376 1235 376 1235 374 1224 c 0,12,13
 362 1136 362 1136 335 909.5 c 128,-1,14
 308 683 308 683 284.5 521 c 128,-1,15
 261 359 261 359 231 209 c 0,16,17
 226 186 226 186 209 145.5 c 128,-1,18
 192 105 192 105 187 85 c 1,19,20
 192 85 192 85 231 89 c 128,-1,21
 270 93 270 93 295 93 c 0,22,23
 403 93 403 93 403 30 c 2,24,-1
 403 21 l 1,25,-1
 371 -11 l 1,26,27
 329 -11 329 -11 244.5 -15 c 128,-1,28
 160 -19 160 -19 118 -19 c 0,29,30
 79 -19 79 -19 60 31 c 1,31,32
 107 106 107 106 165.5 420.5 c 128,-1,33
 224 735 224 735 261.5 1028 c 128,-1,34
 299 1321 299 1321 307 1451 c 1,35,36
 300 1450 300 1450 278 1447.5 c 128,-1,37
 256 1445 256 1445 233 1443 c 128,-1,38
 210 1441 210 1441 190 1441 c 0,39,40
 79 1441 79 1441 79 1506 c 2,41,-1
 79 1549 l 1,0,-1
EndSplineSet
EndChar

StartChar: bracketleft
Encoding: 91 91 62
Width: 523
Flags: W
LayerCount: 2
Fore
SplineSet
385 -68 m 0,0,1
 385 -92 385 -92 365 -102 c 128,-1,2
 345 -112 345 -112 319 -112 c 0,3,4
 289 -112 289 -112 257 -110 c 128,-1,5
 225 -108 225 -108 178 -101.5 c 128,-1,6
 131 -95 131 -95 101.5 -77.5 c 128,-1,7
 72 -60 72 -60 72 -35 c 0,8,9
 72 49 72 49 93.5 217.5 c 128,-1,10
 115 386 115 386 115 470 c 0,11,12
 115 639 115 639 141.5 975 c 128,-1,13
 168 1311 168 1311 168 1480 c 0,14,15
 168 1545 168 1545 207 1576 c 1,16,-1
 285 1576 l 2,17,18
 309 1576 309 1576 333 1574 c 128,-1,19
 357 1572 357 1572 392 1566.5 c 128,-1,20
 427 1561 427 1561 449 1546.5 c 128,-1,21
 471 1532 471 1532 471 1511 c 128,-1,22
 471 1490 471 1490 453.5 1477.5 c 128,-1,23
 436 1465 436 1465 415 1465 c 0,24,25
 396 1465 396 1465 358 1471.5 c 128,-1,26
 320 1478 320 1478 300 1478 c 0,27,28
 262 1478 262 1478 262 1458 c 0,29,30
 262 1330 262 1330 256 1172 c 128,-1,31
 250 1014 250 1014 245 927 c 128,-1,32
 240 840 240 840 226 628 c 128,-1,33
 212 416 212 416 209 370 c 0,34,35
 207 337 207 337 194.5 223.5 c 128,-1,36
 182 110 182 110 182 48 c 2,37,-1
 182 6 l 1,38,39
 185 6 185 6 191 6 c 0,40,41
 385 7 385 7 385 -68 c 0,0,1
EndSplineSet
EndChar

StartChar: backslash
Encoding: 92 92 63
Width: 561
Flags: W
LayerCount: 2
Fore
SplineSet
463 -30 m 1,0,-1
 463 -31 l 1,1,2
 448 -31 448 -31 433 -16.5 c 128,-1,3
 418 -2 418 -2 406.5 23.5 c 128,-1,4
 395 49 395 49 385 77 c 128,-1,5
 375 105 375 105 366 141 c 128,-1,6
 357 177 357 177 351.5 202.5 c 128,-1,7
 346 228 346 228 340 257.5 c 128,-1,8
 334 287 334 287 333 293 c 0,9,10
 293 478 293 478 213.5 822 c 128,-1,11
 134 1166 134 1166 102 1312 c 0,12,13
 97 1333 97 1333 85.5 1372 c 128,-1,14
 74 1411 74 1411 67 1443.5 c 128,-1,15
 60 1476 60 1476 60 1505 c 0,16,17
 60 1527 60 1527 76.5 1541 c 128,-1,18
 93 1555 93 1555 115 1555 c 0,19,20
 128 1555 128 1555 137.5 1548 c 128,-1,21
 147 1541 147 1541 153 1527 c 128,-1,22
 159 1513 159 1513 162 1503 c 128,-1,23
 165 1493 165 1493 168 1474.5 c 128,-1,24
 171 1456 171 1456 172 1453 c 0,25,26
 195 1353 195 1353 255.5 1131.5 c 128,-1,27
 316 910 316 910 367 722.5 c 128,-1,28
 418 535 418 535 459.5 335 c 128,-1,29
 501 135 501 135 501 31 c 0,30,31
 501 -6 501 -6 463 -30 c 1,0,-1
EndSplineSet
EndChar

StartChar: bracketright
Encoding: 93 93 64
Width: 506
Flags: W
LayerCount: 2
Fore
SplineSet
263 1458 m 2,0,-1
 263 1476 l 1,1,2
 242 1476 242 1476 197 1470.5 c 128,-1,3
 152 1465 152 1465 128 1465 c 0,4,5
 54 1465 54 1465 54 1511 c 0,6,7
 54 1533 54 1533 77 1547.5 c 128,-1,8
 100 1562 100 1562 136 1568 c 128,-1,9
 172 1574 172 1574 197.5 1576 c 128,-1,10
 223 1578 223 1578 247 1578 c 2,11,-1
 319 1578 l 1,12,13
 331 1573 331 1573 338.5 1567.5 c 128,-1,14
 346 1562 346 1562 350 1558.5 c 128,-1,15
 354 1555 354 1555 356 1544 c 128,-1,16
 358 1533 358 1533 358.5 1529 c 128,-1,17
 359 1525 359 1525 358.5 1506.5 c 128,-1,18
 358 1488 358 1488 358 1481 c 0,19,20
 358 1318 358 1318 376 995 c 128,-1,21
 394 672 394 672 394 510 c 0,22,23
 394 418 394 418 414.5 237 c 128,-1,24
 435 56 435 56 435 -35 c 0,25,26
 435 -60 435 -60 405.5 -77.5 c 128,-1,27
 376 -95 376 -95 328.5 -101.5 c 128,-1,28
 281 -108 281 -108 249 -110 c 128,-1,29
 217 -112 217 -112 187 -112 c 0,30,31
 121 -112 121 -112 121 -68 c 0,32,33
 121 -55 121 -55 126 -44.5 c 128,-1,34
 131 -34 131 -34 141 -27 c 128,-1,35
 151 -20 151 -20 161.5 -14 c 128,-1,36
 172 -8 172 -8 188.5 -5 c 128,-1,37
 205 -2 205 -2 217 0.5 c 128,-1,38
 229 3 229 3 248 4 c 128,-1,39
 267 5 267 5 276 5.5 c 128,-1,40
 285 6 285 6 302.5 6 c 128,-1,41
 320 6 320 6 323 6 c 1,42,-1
 323 48 l 1,43,44
 319 250 319 250 291 725.5 c 128,-1,45
 263 1201 263 1201 263 1458 c 2,0,-1
EndSplineSet
EndChar

StartChar: asciicircum
Encoding: 94 94 65
Width: 355
Flags: W
LayerCount: 2
Fore
SplineSet
108 1575 m 0,0,1
 108 1606 108 1606 124.5 1631 c 128,-1,2
 141 1656 141 1656 171 1656 c 128,-1,3
 201 1656 201 1656 223 1634.5 c 128,-1,4
 245 1613 245 1613 245 1583 c 0,5,6
 245 1555 245 1555 227 1535 c 128,-1,7
 209 1515 209 1515 181 1515 c 0,8,9
 151 1515 151 1515 129.5 1530.5 c 128,-1,10
 108 1546 108 1546 108 1575 c 0,0,1
EndSplineSet
EndChar

StartChar: underscore
Encoding: 95 95 66
Width: 982
Flags: W
LayerCount: 2
Fore
SplineSet
141 -137 m 0,0,1
 120 -137 120 -137 105 -121.5 c 128,-1,2
 90 -106 90 -106 90 -85 c 0,3,4
 90 -23 90 -23 308 -23 c 0,5,6
 353 -23 353 -23 415.5 -21.5 c 128,-1,7
 478 -20 478 -20 485 -20 c 0,8,9
 538 -20 538 -20 648 -10 c 128,-1,10
 758 0 758 0 814 0 c 0,11,12
 839 0 839 0 860 -17 c 128,-1,13
 881 -34 881 -34 881 -58 c 0,14,15
 881 -100 881 -100 849 -110 c 0,16,17
 828 -116 828 -116 724 -115 c 0,18,19
 705 -115 705 -115 690 -115 c 0,20,21
 600 -115 600 -115 417.5 -126 c 128,-1,22
 235 -137 235 -137 141 -137 c 0,0,1
EndSplineSet
EndChar

StartChar: grave
Encoding: 96 96 67
Width: 583
Flags: W
LayerCount: 2
Fore
SplineSet
215 1598 m 1,0,1
 193 1596 193 1596 180 1596 c 0,2,3
 91 1596 91 1596 91 1658 c 0,4,5
 91 1709 91 1709 119 1726 c 1,6,7
 188 1726 188 1726 214 1714 c 1,8,9
 224 1708 224 1708 233 1701 c 1,10,11
 237 1700 237 1700 277 1687 c 128,-1,12
 317 1674 317 1674 342.5 1664 c 128,-1,13
 368 1654 368 1654 402.5 1638 c 128,-1,14
 437 1622 437 1622 455 1603 c 128,-1,15
 473 1584 473 1584 473 1565 c 0,16,17
 473 1548 473 1548 458 1536.5 c 128,-1,18
 443 1525 443 1525 425 1525 c 0,19,20
 416 1525 416 1525 395.5 1531 c 128,-1,21
 375 1537 375 1537 347.5 1547 c 128,-1,22
 320 1557 320 1557 297.5 1565.5 c 128,-1,23
 275 1574 275 1574 248 1585 c 128,-1,24
 221 1596 221 1596 215 1598 c 1,0,1
EndSplineSet
EndChar

StartChar: a
Encoding: 97 97 68
Width: 674
Flags: W
LayerCount: 2
Fore
SplineSet
597 41 m 2,0,-1
 597 39 l 2,1,2
 597 -7 597 -7 566 -19 c 1,3,4
 523 -19 523 -19 499 -5 c 128,-1,5
 475 9 475 9 475 49 c 0,6,7
 475 122 475 122 445 298 c 1,8,9
 436 298 436 298 414.5 301 c 128,-1,10
 393 304 393 304 382 304 c 2,11,-1
 314 304 l 1,12,13
 291 314 291 314 233 314 c 1,14,15
 233 312 233 312 230.5 287.5 c 128,-1,16
 228 263 228 263 226.5 248 c 128,-1,17
 225 233 225 233 221.5 203.5 c 128,-1,18
 218 174 218 174 214 153.5 c 128,-1,19
 210 133 210 133 204 105.5 c 128,-1,20
 198 78 198 78 190.5 59.5 c 128,-1,21
 183 41 183 41 174 23.5 c 128,-1,22
 165 6 165 6 153 -2.5 c 128,-1,23
 141 -11 141 -11 128 -11 c 0,24,25
 104 -11 104 -11 83.5 4.5 c 128,-1,26
 63 20 63 20 63 44 c 1,27,28
 80 109 80 109 96 177.5 c 128,-1,29
 112 246 112 246 127 326 c 128,-1,30
 142 406 142 406 151.5 458 c 128,-1,31
 161 510 161 510 177.5 607.5 c 128,-1,32
 194 705 194 705 201 744 c 0,33,34
 209 790 209 790 236.5 911.5 c 128,-1,35
 264 1033 264 1033 273 1100 c 0,36,37
 275 1115 275 1115 279.5 1180 c 128,-1,38
 284 1245 284 1245 292 1291.5 c 128,-1,39
 300 1338 300 1338 317 1363 c 1,40,-1
 386 1363 l 2,41,42
 456 1363 456 1363 456 1321 c 0,43,44
 456 926 456 926 533 536 c 0,45,46
 537 513 537 513 548 472 c 128,-1,47
 559 431 559 431 565.5 396.5 c 128,-1,48
 572 362 572 362 572 331 c 0,49,50
 572 324 572 324 566.5 310 c 128,-1,51
 561 296 561 296 561 290 c 0,52,53
 561 265 561 265 579 168 c 128,-1,54
 597 71 597 71 597 41 c 2,0,-1
432 375 m 1,55,56
 426 405 426 405 426 451 c 0,57,58
 426 539 426 539 417.5 634.5 c 128,-1,59
 409 730 409 730 393 856 c 128,-1,60
 377 982 377 982 371 1038 c 1,61,62
 359 980 359 980 324.5 844 c 128,-1,63
 290 708 290 708 271 605.5 c 128,-1,64
 252 503 252 503 251 408 c 1,65,66
 286 385 286 385 432 375 c 1,55,56
EndSplineSet
EndChar

StartChar: b
Encoding: 98 98 69
Width: 542
Flags: W
LayerCount: 2
Fore
SplineSet
378 1296 m 0,0,1
 378 1250 378 1250 408.5 1161.5 c 128,-1,2
 439 1073 439 1073 439 1028 c 0,3,4
 439 889 439 889 415 815 c 0,5,6
 399 766 399 766 356 705 c 1,7,8
 415 648 415 648 433 561.5 c 128,-1,9
 451 475 451 475 451 360 c 0,10,11
 451 300 451 300 441 246 c 128,-1,12
 431 192 431 192 408 143 c 128,-1,13
 385 94 385 94 351.5 58 c 128,-1,14
 318 22 318 22 267.5 1 c 128,-1,15
 217 -20 217 -20 155 -20 c 0,16,17
 133 -20 133 -20 119 -10.5 c 128,-1,18
 105 -1 105 -1 99.5 17.5 c 128,-1,19
 94 36 94 36 92.5 50.5 c 128,-1,20
 91 65 91 65 91 88 c 0,21,22
 91 161 91 161 101 306 c 128,-1,23
 111 451 111 451 111 524 c 0,24,25
 111 632 111 632 115.5 848.5 c 128,-1,26
 120 1065 120 1065 120 1173 c 0,27,28
 120 1244 120 1244 118 1279 c 1,29,-1
 118 1298 l 2,30,31
 118 1383 118 1383 176 1383 c 0,32,33
 222 1383 222 1383 300 1357 c 128,-1,34
 378 1331 378 1331 378 1296 c 0,0,1
220 244 m 1,35,36
 207 222 207 222 207 176 c 2,37,-1
 207 84 l 1,38,39
 273 100 273 100 307 165.5 c 128,-1,40
 341 231 341 231 341 308 c 0,41,42
 341 343 341 343 339.5 376.5 c 128,-1,43
 338 410 338 410 331 458 c 128,-1,44
 324 506 324 506 312 542 c 128,-1,45
 300 578 300 578 276.5 607 c 128,-1,46
 253 636 253 636 222 643 c 1,47,48
 214 525 214 525 214 333 c 0,49,50
 214 269 214 269 220 244 c 1,35,36
220 1288 m 1,51,-1
 220 763 l 1,52,53
 323 766 323 766 323 1012 c 0,54,55
 323 1041 323 1041 318 1081.5 c 128,-1,56
 313 1122 313 1122 302.5 1169.5 c 128,-1,57
 292 1217 292 1217 270.5 1251 c 128,-1,58
 249 1285 249 1285 220 1288 c 1,51,-1
EndSplineSet
EndChar

StartChar: c
Encoding: 99 99 70
Width: 568
Flags: W
LayerCount: 2
Fore
SplineSet
499 52 m 0,0,1
 499 -29 499 -29 385 -29 c 0,2,3
 338 -29 338 -29 288.5 -15.5 c 128,-1,4
 239 -2 239 -2 214 14 c 0,5,6
 78 102 78 102 78 495 c 0,7,8
 78 509 78 509 77.5 549.5 c 128,-1,9
 77 590 77 590 77 615 c 0,10,11
 77 1204 77 1204 221 1310 c 0,12,13
 262 1340 262 1340 308.5 1352 c 128,-1,14
 355 1364 355 1364 427 1364 c 0,15,16
 449 1364 449 1364 467.5 1348 c 128,-1,17
 486 1332 486 1332 486 1311 c 2,18,-1
 486 1303 l 1,19,20
 467 1256 467 1256 387 1256 c 0,21,22
 381 1256 381 1256 369 1257 c 128,-1,23
 357 1258 357 1258 350 1258 c 0,24,25
 316 1258 316 1258 289.5 1221 c 128,-1,26
 263 1184 263 1184 249 1132 c 128,-1,27
 235 1080 235 1080 226 1015.5 c 128,-1,28
 217 951 217 951 214.5 905.5 c 128,-1,29
 212 860 212 860 212 827 c 2,30,-1
 212 817 l 2,31,32
 212 751 212 751 205.5 619.5 c 128,-1,33
 199 488 199 488 199 422 c 0,34,35
 199 387 199 387 200 359.5 c 128,-1,36
 201 332 201 332 205.5 295 c 128,-1,37
 210 258 210 258 218 229.5 c 128,-1,38
 226 201 226 201 240.5 171.5 c 128,-1,39
 255 142 255 142 275 123 c 128,-1,40
 295 104 295 104 325 91.5 c 128,-1,41
 355 79 355 79 393 79 c 0,42,43
 417 79 417 79 437 97 c 1,44,45
 461 97 461 97 480 86 c 128,-1,46
 499 75 499 75 499 52 c 0,0,1
EndSplineSet
EndChar

StartChar: d
Encoding: 100 100 71
Width: 645
Flags: W
LayerCount: 2
Fore
SplineSet
239 141 m 2,0,-1
 239 92 l 1,1,-1
 276 92 l 1,2,3
 331 159 331 159 363.5 213.5 c 128,-1,4
 396 268 396 268 414 330.5 c 128,-1,5
 432 393 432 393 437.5 454.5 c 128,-1,6
 443 516 443 516 443 612 c 0,7,8
 443 1230 443 1230 231 1258 c 1,9,10
 216 1177 216 1177 216 1045 c 0,11,12
 216 894 216 894 227.5 593 c 128,-1,13
 239 292 239 292 239 141 c 2,0,-1
296 -12 m 1,14,-1
 156 -12 l 2,15,16
 104 -12 104 -12 104 256 c 0,17,18
 104 364 104 364 107 579 c 128,-1,19
 110 794 110 794 110 901 c 0,20,21
 110 1080 110 1080 103 1237 c 1,22,23
 86 1257 86 1257 86 1286 c 0,24,25
 86 1312 86 1312 109 1332.5 c 128,-1,26
 132 1353 132 1353 158 1353 c 0,27,28
 197 1353 197 1353 220 1317 c 1,29,30
 235 1311 235 1311 264.5 1306 c 128,-1,31
 294 1301 294 1301 308 1294 c 0,32,33
 422 1241 422 1241 486.5 1106.5 c 128,-1,34
 551 972 551 972 551 808 c 0,35,36
 551 794 551 794 549 759 c 128,-1,37
 547 724 547 724 547 705 c 2,38,-1
 547 593 l 2,39,40
 547 531 547 531 545.5 486.5 c 128,-1,41
 544 442 544 442 538 386.5 c 128,-1,42
 532 331 532 331 521.5 289.5 c 128,-1,43
 511 248 511 248 492.5 202 c 128,-1,44
 474 156 474 156 448 120.5 c 128,-1,45
 422 85 422 85 383.5 50 c 128,-1,46
 345 15 345 15 296 -12 c 1,14,-1
EndSplineSet
EndChar

StartChar: e
Encoding: 101 101 72
Width: 517
Flags: W
LayerCount: 2
Fore
SplineSet
102 36 m 1,0,1
 101 65 101 65 106.5 107 c 128,-1,2
 112 149 112 149 112 174 c 0,3,4
 112 217 112 217 107 304.5 c 128,-1,5
 102 392 102 392 102 436 c 0,6,7
 102 536 102 536 109 735 c 128,-1,8
 116 934 116 934 116 1034 c 0,9,10
 116 1063 116 1063 110.5 1120.5 c 128,-1,11
 105 1178 105 1178 105 1207 c 0,12,13
 105 1352 105 1352 191 1352 c 0,14,15
 215 1352 215 1352 236 1337 c 1,16,17
 244 1336 244 1336 274.5 1333.5 c 128,-1,18
 305 1331 305 1331 328 1327 c 128,-1,19
 351 1323 351 1323 378.5 1315.5 c 128,-1,20
 406 1308 406 1308 421 1294 c 128,-1,21
 436 1280 436 1280 436 1261 c 0,22,23
 436 1239 436 1239 418.5 1222.5 c 128,-1,24
 401 1206 401 1206 376 1197 c 1,25,26
 282 1229 282 1229 221 1236 c 1,27,28
 224 1192 224 1192 224 1148 c 0,29,30
 224 1099 224 1099 219.5 1001 c 128,-1,31
 215 903 215 903 215 854 c 0,32,33
 215 852 215 852 221 822 c 1,34,35
 229 822 229 822 254 823.5 c 128,-1,36
 279 825 279 825 294 825 c 0,37,38
 393 825 393 825 393 769 c 0,39,40
 393 739 393 739 375.5 716 c 128,-1,41
 358 693 358 693 328 693 c 0,42,43
 294 693 294 693 270 711 c 1,44,-1
 218 711 l 1,45,46
 224 633 224 633 224 563 c 0,47,48
 224 512 224 512 222 445 c 128,-1,49
 220 378 220 378 217.5 310.5 c 128,-1,50
 215 243 215 243 215 192 c 0,51,52
 215 169 215 169 217.5 151.5 c 128,-1,53
 220 134 220 134 227.5 115.5 c 128,-1,54
 235 97 235 97 250.5 87 c 128,-1,55
 266 77 266 77 289 77 c 0,56,57
 297 77 297 77 325 79.5 c 128,-1,58
 353 82 353 82 370 82 c 0,59,60
 448 82 448 82 448 32 c 0,61,62
 448 1 448 1 421 -13 c 128,-1,63
 394 -27 394 -27 360 -27 c 2,64,-1
 167 -27 l 2,65,66
 141 -27 141 -27 122.5 -9 c 128,-1,67
 104 9 104 9 102 36 c 1,0,1
EndSplineSet
EndChar

StartChar: f
Encoding: 102 102 73
Width: 541
Flags: W
LayerCount: 2
Fore
SplineSet
119 975 m 0,0,1
 111 845 111 845 105.5 517.5 c 128,-1,2
 100 190 100 190 84 13 c 1,3,-1
 141 -30 l 1,4,5
 210 -30 210 -30 210 72 c 2,6,-1
 210 652 l 1,7,8
 248 640 248 640 291 640 c 0,9,10
 319 640 319 640 341 656.5 c 128,-1,11
 363 673 363 673 363 700 c 0,12,13
 363 754 363 754 264 754 c 0,14,15
 256 754 256 754 243 753.5 c 128,-1,16
 230 753 230 753 226 753 c 1,17,-1
 226 808 l 2,18,19
 226 878 226 878 235.5 1015.5 c 128,-1,20
 245 1153 245 1153 245 1219 c 2,21,-1
 245 1243 l 1,22,23
 335 1243 335 1243 376 1223 c 1,24,25
 480 1223 480 1223 480 1281 c 0,26,27
 480 1308 480 1308 447.5 1326 c 128,-1,28
 415 1344 415 1344 364 1351.5 c 128,-1,29
 313 1359 313 1359 277.5 1361.5 c 128,-1,30
 242 1364 242 1364 211 1364 c 0,31,32
 181 1364 181 1364 156.5 1348 c 128,-1,33
 132 1332 132 1332 132 1303 c 0,34,35
 132 1213 132 1213 119 975 c 0,0,1
EndSplineSet
EndChar

StartChar: g
Encoding: 103 103 74
Width: 654
Flags: W
LayerCount: 2
Fore
SplineSet
371 624 m 1,0,-1
 371 623 l 1,1,2
 571 623 571 623 571 560 c 0,3,4
 571 534 571 534 560 485 c 128,-1,5
 549 436 549 436 549 411 c 0,6,7
 549 376 549 376 554 303 c 128,-1,8
 559 230 559 230 559 194 c 0,9,10
 559 135 559 135 550 93 c 1,11,12
 514 60 514 60 484 38.5 c 128,-1,13
 454 17 454 17 415 0.5 c 128,-1,14
 376 -16 376 -16 339 -16 c 0,15,16
 290 -16 290 -16 249 10.5 c 128,-1,17
 208 37 208 37 168 105 c 1,18,19
 130 165 130 165 101 344.5 c 128,-1,20
 72 524 72 524 72 622 c 0,21,22
 72 664 72 664 75 710 c 128,-1,23
 78 756 78 756 84 814.5 c 128,-1,24
 90 873 90 873 92 903 c 0,25,26
 92 908 92 908 93 917 c 0,27,28
 97 973 97 973 99.5 1002.5 c 128,-1,29
 102 1032 102 1032 110.5 1085.5 c 128,-1,30
 119 1139 119 1139 129 1170 c 128,-1,31
 139 1201 139 1201 158 1240.5 c 128,-1,32
 177 1280 177 1280 202 1301.5 c 128,-1,33
 227 1323 227 1323 264 1338.5 c 128,-1,34
 301 1354 301 1354 347 1354 c 0,35,36
 424 1354 424 1354 424 1302 c 0,37,38
 424 1278 424 1278 406.5 1262.5 c 128,-1,39
 389 1247 389 1247 366 1247 c 0,40,41
 361 1247 361 1247 354 1248.5 c 128,-1,42
 347 1250 347 1250 340.5 1251 c 128,-1,43
 334 1252 334 1252 329 1252 c 0,44,45
 299 1252 299 1252 275.5 1214 c 128,-1,46
 252 1176 252 1176 238 1112 c 128,-1,47
 224 1048 224 1048 214.5 980 c 128,-1,48
 205 912 205 912 201 835 c 128,-1,49
 197 758 197 758 195.5 712 c 128,-1,50
 194 666 194 666 194 629 c 0,51,52
 194 589 194 589 194.5 558.5 c 128,-1,53
 195 528 195 528 196.5 482.5 c 128,-1,54
 198 437 198 437 201.5 402 c 128,-1,55
 205 367 205 367 211 324.5 c 128,-1,56
 217 282 217 282 225.5 250.5 c 128,-1,57
 234 219 234 219 246.5 187.5 c 128,-1,58
 259 156 259 156 275 136 c 128,-1,59
 291 116 291 116 313 103.5 c 128,-1,60
 335 91 335 91 361 91 c 0,61,62
 450 91 450 91 448 436 c 0,63,64
 448 440 448 440 448 441.5 c 128,-1,65
 448 443 448 443 448 445.5 c 128,-1,66
 448 448 448 448 448 450 c 2,67,-1
 448 511 l 1,68,69
 435 519 435 519 406 519 c 0,70,71
 401 519 401 519 389 518.5 c 128,-1,72
 377 518 377 518 370 518 c 0,73,74
 341 518 341 518 324 527.5 c 128,-1,75
 307 537 307 537 307 565 c 0,76,77
 307 594 307 594 325.5 609 c 128,-1,78
 344 624 344 624 371 624 c 1,0,-1
EndSplineSet
EndChar

StartChar: h
Encoding: 104 104 75
Width: 627
Flags: W
LayerCount: 2
Fore
SplineSet
525 38 m 0,0,1
 525 20 525 20 509.5 10 c 128,-1,2
 494 0 494 0 472 0 c 0,3,4
 446 0 446 0 425 12.5 c 128,-1,5
 404 25 404 25 403 46 c 0,6,7
 392 250 392 250 392 548 c 2,8,-1
 392 556 l 1,9,10
 393 567 393 567 392 587.5 c 128,-1,11
 391 608 391 608 391 615 c 0,12,13
 391 618 391 618 390.5 624.5 c 128,-1,14
 390 631 390 631 390 634 c 2,15,-1
 390 636 l 1,16,17
 374 632 374 632 344 632 c 0,18,19
 322 632 322 632 280 641 c 128,-1,20
 238 650 238 650 217 651 c 1,21,22
 217 619 217 619 214 542.5 c 128,-1,23
 211 466 211 466 211 425 c 2,24,-1
 211 416 l 2,25,26
 211 360 211 360 219.5 247.5 c 128,-1,27
 228 135 228 135 228 79 c 0,28,29
 228 49 228 49 213.5 27 c 128,-1,30
 199 5 199 5 171 5 c 0,31,32
 130 5 130 5 114.5 79.5 c 128,-1,33
 99 154 99 154 99 283 c 0,34,35
 99 340 99 340 102 447.5 c 128,-1,36
 105 555 105 555 105 595 c 0,37,38
 105 624 105 624 105.5 661 c 128,-1,39
 106 698 106 698 106 712 c 0,40,41
 106 732 106 732 108 772 c 128,-1,42
 110 812 110 812 110 832 c 0,43,44
 110 909 110 909 103 1063 c 128,-1,45
 96 1217 96 1217 96 1294 c 0,46,47
 96 1318 96 1318 113 1336.5 c 128,-1,48
 130 1355 130 1355 154 1355 c 0,49,50
 219 1355 219 1355 219 1233 c 0,51,52
 219 1148 219 1148 215 977.5 c 128,-1,53
 211 807 211 807 211 722 c 1,54,55
 247 712 247 712 319 712 c 2,56,-1
 397 712 l 1,57,-1
 397 755 l 2,58,59
 397 849 397 849 383 1037.5 c 128,-1,60
 369 1226 369 1226 369 1320 c 0,61,62
 369 1343 369 1343 386.5 1358.5 c 128,-1,63
 404 1374 404 1374 427 1374 c 0,64,65
 431 1374 431 1374 441 1375.5 c 128,-1,66
 451 1377 451 1377 457.5 1376.5 c 128,-1,67
 464 1376 464 1376 471.5 1372.5 c 128,-1,68
 479 1369 479 1369 483 1357.5 c 128,-1,69
 487 1346 487 1346 487 1326 c 0,70,71
 487 1111 487 1111 506 682 c 128,-1,72
 525 253 525 253 525 38 c 0,0,1
EndSplineSet
EndChar

StartChar: i
Encoding: 105 105 76
Width: 551
Flags: W
LayerCount: 2
Fore
SplineSet
280 22 m 0,0,1
 262 22 262 22 233 20 c 128,-1,2
 204 18 204 18 191 18 c 0,3,4
 134 18 134 18 115 55 c 1,5,6
 115 85 115 85 122.5 101.5 c 128,-1,7
 130 118 130 118 154 118 c 2,8,-1
 212 118 l 1,9,10
 212 121 212 121 214 130.5 c 128,-1,11
 216 140 216 140 216 145 c 0,12,13
 216 218 216 218 209 363 c 128,-1,14
 202 508 202 508 202 580 c 0,15,16
 202 656 202 656 207.5 808 c 128,-1,17
 213 960 213 960 213 1036 c 0,18,19
 213 1151 213 1151 203 1254 c 1,20,-1
 164 1254 l 2,21,22
 157 1254 157 1254 149.5 1254 c 128,-1,23
 142 1254 142 1254 132 1254 c 128,-1,24
 122 1254 122 1254 117 1254 c 0,25,26
 87 1254 87 1254 70 1265.5 c 128,-1,27
 53 1277 53 1277 53 1309 c 0,28,29
 53 1357 53 1357 164 1356 c 0,30,31
 169 1356 169 1356 171 1356 c 0,32,33
 434 1356 434 1356 434 1286 c 0,34,35
 434 1275 434 1275 422 1248 c 1,36,-1
 317 1248 l 1,37,38
 325 1173 325 1173 325 1072 c 0,39,40
 325 1007 325 1007 319.5 876.5 c 128,-1,41
 314 746 314 746 314 681 c 0,42,43
 314 608 314 608 321.5 463 c 128,-1,44
 329 318 329 318 329 246 c 2,45,-1
 329 185 l 2,46,47
 329 167 329 167 322 130 c 1,48,-1
 409 130 l 2,49,50
 493 130 493 130 493 79 c 0,51,52
 493 56 493 56 478.5 40 c 128,-1,53
 464 24 464 24 446 24 c 0,54,55
 431 24 431 24 401.5 23.5 c 128,-1,56
 372 23 372 23 357 23 c 0,57,58
 352 23 352 23 326.5 22.5 c 128,-1,59
 301 22 301 22 280 22 c 0,0,1
EndSplineSet
EndChar

StartChar: j
Encoding: 106 106 77
Width: 569
Flags: W
LayerCount: 2
Fore
SplineSet
103 -254 m 1,0,-1
 42 -193 l 1,1,2
 174 -110 174 -110 217.5 -35 c 128,-1,3
 261 40 261 40 261 187 c 0,4,5
 261 362 261 362 252 710 c 128,-1,6
 243 1058 243 1058 243 1233 c 2,7,-1
 243 1242 l 1,8,9
 240 1242 240 1242 221 1244 c 128,-1,10
 202 1246 202 1246 192 1247.5 c 128,-1,11
 182 1249 182 1249 162.5 1252.5 c 128,-1,12
 143 1256 143 1256 131 1261 c 128,-1,13
 119 1266 119 1266 106 1273 c 128,-1,14
 93 1280 93 1280 87 1290 c 128,-1,15
 81 1300 81 1300 81 1312 c 0,16,17
 81 1332 81 1332 104 1345.5 c 128,-1,18
 127 1359 127 1359 148 1359 c 0,19,20
 190 1359 190 1359 270 1349 c 128,-1,21
 350 1339 350 1339 431.5 1312.5 c 128,-1,22
 513 1286 513 1286 513 1253 c 0,23,24
 513 1231 513 1231 496.5 1218 c 128,-1,25
 480 1205 480 1205 457 1205 c 0,26,27
 436 1205 436 1205 398 1214.5 c 128,-1,28
 360 1224 360 1224 353 1225 c 1,29,-1
 353 1208 l 2,30,31
 353 1070 353 1070 363 795 c 128,-1,32
 373 520 373 520 373 382 c 0,33,34
 373 367 373 367 371.5 336.5 c 128,-1,35
 370 306 370 306 370 290 c 0,36,37
 370 260 370 260 371.5 201 c 128,-1,38
 373 142 373 142 373 114 c 0,39,40
 373 54 373 54 368 10 c 128,-1,41
 363 -34 363 -34 347 -81 c 128,-1,42
 331 -128 331 -128 302 -160.5 c 128,-1,43
 273 -193 273 -193 223 -218 c 128,-1,44
 173 -243 173 -243 103 -254 c 1,0,-1
EndSplineSet
EndChar

StartChar: k
Encoding: 107 107 78
Width: 696
Flags: W
LayerCount: 2
Fore
SplineSet
603 1289 m 0,0,1
 603 1287 603 1287 554.5 1207 c 128,-1,2
 506 1127 506 1127 450.5 1035.5 c 128,-1,3
 395 944 395 944 383 919 c 1,4,5
 383 898 383 898 381 858 c 128,-1,6
 379 818 379 818 379 797 c 0,7,8
 379 709 379 709 449.5 468 c 128,-1,9
 520 227 520 227 567 149 c 0,10,11
 573 140 573 140 593.5 112 c 128,-1,12
 614 84 614 84 623.5 63 c 128,-1,13
 633 42 633 42 633 19 c 128,-1,14
 633 -4 633 -4 615.5 -19.5 c 128,-1,15
 598 -35 598 -35 575 -35 c 0,16,17
 527 -35 527 -35 475 66.5 c 128,-1,18
 423 168 423 168 382.5 315 c 128,-1,19
 342 462 342 462 317.5 572.5 c 128,-1,20
 293 683 293 683 281 752 c 1,21,22
 247 717 247 717 228.5 658.5 c 128,-1,23
 210 600 210 600 210 578 c 2,24,-1
 210 17 l 2,25,26
 210 -31 210 -31 165 -31 c 0,27,28
 134 -31 134 -31 115.5 -13.5 c 128,-1,29
 97 4 97 4 97 34 c 2,30,-1
 97 656 l 2,31,32
 97 767 97 767 116.5 987.5 c 128,-1,33
 136 1208 136 1208 136 1318 c 1,34,35
 154 1357 154 1357 197 1357 c 0,36,37
 221 1357 221 1357 235.5 1337 c 128,-1,38
 250 1317 250 1317 250 1288 c 0,39,40
 250 1272 250 1272 247 1207.5 c 128,-1,41
 244 1143 244 1143 239.5 1053.5 c 128,-1,42
 235 964 235 964 233 915 c 1,43,-1
 233 808 l 1,44,45
 239 819 239 819 308.5 970 c 128,-1,46
 378 1121 378 1121 439 1232.5 c 128,-1,47
 500 1344 500 1344 524 1344 c 0,48,49
 554 1344 554 1344 578.5 1330 c 128,-1,50
 603 1316 603 1316 603 1289 c 0,0,1
EndSplineSet
EndChar

StartChar: l
Encoding: 108 108 79
Width: 522
Flags: W
LayerCount: 2
Fore
SplineSet
213 545 m 0,0,1
 213 490 213 490 209 383 c 128,-1,2
 205 276 205 276 205 219 c 0,3,4
 205 78 205 78 274 78 c 0,5,6
 282 78 282 78 311.5 79.5 c 128,-1,7
 341 81 341 81 359 81 c 0,8,9
 469 81 469 81 469 21 c 0,10,11
 469 -1 469 -1 450 -15.5 c 128,-1,12
 431 -30 431 -30 407 -33 c 1,13,14
 332 -9 332 -9 224 -9 c 1,15,16
 191 -28 191 -28 154 -28 c 0,17,18
 130 -28 130 -28 113 -7 c 128,-1,19
 96 14 96 14 96 39 c 0,20,21
 96 192 96 192 106 497 c 128,-1,22
 116 802 116 802 116 954 c 2,23,-1
 116 969 l 1,24,25
 110 1033 110 1033 110 1161 c 0,26,27
 110 1355 110 1355 181 1355 c 0,28,29
 202 1355 202 1355 217.5 1340 c 128,-1,30
 233 1325 233 1325 233 1304 c 0,31,32
 233 1278 233 1278 226 1226 c 128,-1,33
 219 1174 219 1174 219 1148 c 0,34,35
 219 1066 219 1066 222 902 c 128,-1,36
 225 738 225 738 225 656 c 1,37,38
 213 627 213 627 213 545 c 0,0,1
EndSplineSet
EndChar

StartChar: m
Encoding: 109 109 80
Width: 878
Flags: W
LayerCount: 2
Fore
SplineSet
766 93 m 1,0,1
 775 71 775 71 775 54 c 0,2,3
 775 22 775 22 759 -6 c 128,-1,4
 743 -34 743 -34 717 -34 c 0,5,6
 653 -34 653 -34 653 94 c 0,7,8
 653 125 653 125 654.5 188.5 c 128,-1,9
 656 252 656 252 656 283 c 0,10,11
 656 482 656 482 652 639 c 1,12,13
 655 732 655 732 655 1125 c 1,14,15
 624 933 624 933 569 610 c 128,-1,16
 514 287 514 287 509 255 c 0,17,18
 507 248 507 248 505 230 c 128,-1,19
 503 212 503 212 501 199 c 128,-1,20
 499 186 499 186 493.5 169 c 128,-1,21
 488 152 488 152 481 141 c 128,-1,22
 474 130 474 130 462 122 c 128,-1,23
 450 114 450 114 433 114 c 0,24,25
 373 114 373 114 361 202 c 0,26,27
 345 327 345 327 295.5 641.5 c 128,-1,28
 246 956 246 956 222 1065 c 1,29,30
 206 364 206 364 206 89 c 0,31,32
 206 79 206 79 207.5 58 c 128,-1,33
 209 37 209 37 209 28 c 0,34,35
 209 -5 209 -5 195.5 -22.5 c 128,-1,36
 182 -40 182 -40 143 -40 c 0,37,38
 122 -40 122 -40 103 -25.5 c 128,-1,39
 84 -11 84 -11 85 9 c 0,40,41
 86 44 86 44 108.5 529.5 c 128,-1,42
 131 1015 131 1015 131 1261 c 1,43,44
 134 1313 134 1313 147 1330.5 c 128,-1,45
 160 1348 160 1348 198 1351 c 0,46,47
 208 1352 208 1352 216 1348 c 128,-1,48
 224 1344 224 1344 230.5 1334.5 c 128,-1,49
 237 1325 237 1325 241.5 1317 c 128,-1,50
 246 1309 246 1309 250 1292.5 c 128,-1,51
 254 1276 254 1276 256 1267.5 c 128,-1,52
 258 1259 258 1259 261 1240.5 c 128,-1,53
 264 1222 264 1222 265 1217 c 0,54,55
 270 1187 270 1187 297 1062.5 c 128,-1,56
 324 938 324 938 333 873 c 1,57,58
 389 545 389 545 432 243 c 1,59,60
 495 580 495 580 587 1179 c 0,61,62
 587 1184 587 1184 589.5 1203 c 128,-1,63
 592 1222 592 1222 593.5 1231 c 128,-1,64
 595 1240 595 1240 599 1258 c 128,-1,65
 603 1276 603 1276 606.5 1286 c 128,-1,66
 610 1296 610 1296 617 1309.5 c 128,-1,67
 624 1323 624 1323 631.5 1330 c 128,-1,68
 639 1337 639 1337 651 1342.5 c 128,-1,69
 663 1348 663 1348 676 1348 c 0,70,71
 703 1348 703 1348 727 1333 c 128,-1,72
 751 1318 751 1318 751 1292 c 0,73,74
 751 884 751 884 760 640 c 0,75,76
 761 609 761 609 764.5 534.5 c 128,-1,77
 768 460 768 460 768 423 c 2,78,-1
 766 93 l 1,0,1
EndSplineSet
EndChar

StartChar: n
Encoding: 110 110 81
Width: 769
Flags: W
LayerCount: 2
Fore
SplineSet
223 278 m 2,0,-1
 223 46 l 2,1,2
 223 19 223 19 209 0.5 c 128,-1,3
 195 -18 195 -18 170 -18 c 0,4,5
 103 -18 103 -18 103 107 c 0,6,7
 103 227 103 227 101 468 c 128,-1,8
 99 709 99 709 99 829 c 0,9,10
 99 892 99 892 105 1020 c 128,-1,11
 111 1148 111 1148 111 1211 c 0,12,13
 111 1349 111 1349 186 1349 c 0,14,15
 203 1349 203 1349 217.5 1336 c 128,-1,16
 232 1323 232 1323 239.5 1308.5 c 128,-1,17
 247 1294 247 1294 251 1280 c 1,18,19
 279 1148 279 1148 348.5 900.5 c 128,-1,20
 418 653 418 653 444 524 c 1,21,22
 463 461 463 461 493 337.5 c 128,-1,23
 523 214 523 214 540 152 c 1,24,25
 548 596 548 596 548 1228 c 0,26,27
 548 1236 548 1236 546.5 1254.5 c 128,-1,28
 545 1273 545 1273 545 1283 c 0,29,30
 545 1311 545 1311 555.5 1327.5 c 128,-1,31
 566 1344 566 1344 596 1344 c 0,32,33
 616 1344 616 1344 632 1332 c 128,-1,34
 648 1320 648 1320 656 1301.5 c 128,-1,35
 664 1283 664 1283 664 1264 c 0,36,37
 664 983 664 983 648 542 c 128,-1,38
 632 101 632 101 600 -9 c 1,39,40
 596 -10 596 -10 583 -14.5 c 128,-1,41
 570 -19 570 -19 563.5 -20.5 c 128,-1,42
 557 -22 557 -22 546.5 -24 c 128,-1,43
 536 -26 536 -26 528 -26 c 0,44,45
 501 -26 501 -26 489 -11.5 c 128,-1,46
 477 3 477 3 470.5 33 c 128,-1,47
 464 63 464 63 459 73 c 1,48,49
 447 120 447 120 391.5 364 c 128,-1,50
 336 608 336 608 283 831.5 c 128,-1,51
 230 1055 230 1055 211 1114 c 1,52,-1
 211 808 l 2,53,54
 211 757 211 757 217 561 c 128,-1,55
 223 365 223 365 223 278 c 2,0,-1
EndSplineSet
EndChar

StartChar: o
Encoding: 111 111 82
Width: 669
Flags: W
LayerCount: 2
Fore
SplineSet
193 913 m 0,0,1
 193 880 193 880 192.5 815 c 128,-1,2
 192 750 192 750 192 717 c 0,3,4
 192 692 192 692 193 658 c 128,-1,5
 194 624 194 624 195.5 568.5 c 128,-1,6
 197 513 197 513 201.5 458.5 c 128,-1,7
 206 404 206 404 212 343.5 c 128,-1,8
 218 283 218 283 228 231.5 c 128,-1,9
 238 180 238 180 250.5 137.5 c 128,-1,10
 263 95 263 95 281.5 71 c 128,-1,11
 300 47 300 47 321 47 c 0,12,13
 351 47 351 47 374 77 c 128,-1,14
 397 107 397 107 411 157.5 c 128,-1,15
 425 208 425 208 435 263.5 c 128,-1,16
 445 319 445 319 449.5 382 c 128,-1,17
 454 445 454 445 455.5 487 c 128,-1,18
 457 529 457 529 457 564 c 0,19,20
 457 585 457 585 458.5 657 c 128,-1,21
 460 729 460 729 460 775 c 0,22,23
 460 837 460 837 458 889 c 128,-1,24
 456 941 456 941 450 1000.5 c 128,-1,25
 444 1060 444 1060 432.5 1105.5 c 128,-1,26
 421 1151 421 1151 404.5 1189.5 c 128,-1,27
 388 1228 388 1228 361.5 1248.5 c 128,-1,28
 335 1269 335 1269 301 1269 c 0,29,30
 299 1269 299 1269 297 1269 c 0,31,32
 264 1269 264 1269 241.5 1248.5 c 128,-1,33
 219 1228 219 1228 208.5 1191 c 128,-1,34
 198 1154 198 1154 194 1117 c 128,-1,35
 190 1080 190 1080 190 1033 c 0,36,37
 190 1008 190 1008 191.5 967 c 128,-1,38
 193 926 193 926 193 913 c 0,0,1
329 -38 m 0,39,40
 284 -38 284 -38 246 -12 c 128,-1,41
 208 14 208 14 182.5 55.5 c 128,-1,42
 157 97 157 97 137.5 155.5 c 128,-1,43
 118 214 118 214 107 273.5 c 128,-1,44
 96 333 96 333 89.5 400.5 c 128,-1,45
 83 468 83 468 80.5 520.5 c 128,-1,46
 78 573 78 573 78 626 c 0,47,48
 78 651 78 651 77.5 692.5 c 128,-1,49
 77 734 77 734 77 751 c 0,50,51
 77 754 77 754 77 760 c 128,-1,52
 77 766 77 766 77 774.5 c 128,-1,53
 77 783 77 783 77 791 c 0,54,55
 77 830 77 830 78 867 c 128,-1,56
 79 904 79 904 83.5 962 c 128,-1,57
 88 1020 88 1020 95.5 1069 c 128,-1,58
 103 1118 103 1118 118 1172 c 128,-1,59
 133 1226 133 1226 153 1263.5 c 128,-1,60
 173 1301 173 1301 204 1326 c 128,-1,61
 235 1351 235 1351 273 1353 c 1,62,63
 297 1345 297 1345 324.5 1339 c 128,-1,64
 352 1333 352 1333 369 1329.5 c 128,-1,65
 386 1326 386 1326 405.5 1317 c 128,-1,66
 425 1308 425 1308 443 1288.5 c 128,-1,67
 461 1269 461 1269 480 1237 c 0,68,69
 529 1157 529 1157 549.5 1037.5 c 128,-1,70
 570 918 570 918 570 798 c 2,71,-1
 570 551 l 2,72,73
 570 515 570 515 569.5 482.5 c 128,-1,74
 569 450 569 450 566 403 c 128,-1,75
 563 356 563 356 558 316.5 c 128,-1,76
 553 277 553 277 544 230.5 c 128,-1,77
 535 184 535 184 523 147 c 128,-1,78
 511 110 511 110 492.5 74.5 c 128,-1,79
 474 39 474 39 451 15 c 128,-1,80
 428 -9 428 -9 397 -23.5 c 128,-1,81
 366 -38 366 -38 329 -38 c 0,39,40
EndSplineSet
EndChar

StartChar: p
Encoding: 112 112 83
Width: 540
Flags: W
LayerCount: 2
Fore
SplineSet
226 1228 m 1,0,-1
 226 1115 l 2,1,2
 226 1051 226 1051 220 918 c 128,-1,3
 214 785 214 785 215 716 c 1,4,-1
 215 713 l 1,5,6
 339 730 339 730 339 1059 c 0,7,8
 339 1093 339 1093 335 1119 c 128,-1,9
 331 1145 331 1145 320 1171.5 c 128,-1,10
 309 1198 309 1198 285.5 1213 c 128,-1,11
 262 1228 262 1228 226 1228 c 1,0,-1
114 1080 m 0,12,13
 114 1201 114 1201 97 1270 c 1,14,15
 102 1296 102 1296 116.5 1319 c 128,-1,16
 131 1342 131 1342 153 1342 c 2,17,-1
 243 1342 l 2,18,19
 302 1342 302 1342 344.5 1315.5 c 128,-1,20
 387 1289 387 1289 409 1243.5 c 128,-1,21
 431 1198 431 1198 441 1149 c 128,-1,22
 451 1100 451 1100 451 1044 c 0,23,24
 451 1000 451 1000 450.5 975.5 c 128,-1,25
 450 951 450 951 448 914.5 c 128,-1,26
 446 878 446 878 441.5 857 c 128,-1,27
 437 836 437 836 429 807 c 128,-1,28
 421 778 421 778 409.5 760 c 128,-1,29
 398 742 398 742 380 720.5 c 128,-1,30
 362 699 362 699 339 684 c 128,-1,31
 316 669 316 669 285 654.5 c 128,-1,32
 254 640 254 640 216 628 c 1,33,-1
 216 409 l 2,34,35
 216 344 216 344 224 215 c 128,-1,36
 232 86 232 86 232 21 c 0,37,38
 232 -5 232 -5 214 -22 c 128,-1,39
 196 -39 196 -39 170 -39 c 2,40,-1
 120 -39 l 1,41,42
 108 17 108 17 108 128 c 0,43,44
 108 215 108 215 105.5 389.5 c 128,-1,45
 103 564 103 564 103 652 c 0,46,47
 103 682 103 682 107 765.5 c 128,-1,48
 111 849 111 849 111 885 c 0,49,50
 111 913 111 913 112.5 979 c 128,-1,51
 114 1045 114 1045 114 1080 c 0,12,13
EndSplineSet
EndChar

StartChar: q
Encoding: 113 113 84
Width: 654
Flags: W
LayerCount: 2
Fore
SplineSet
283 1288 m 0,0,1
 253 1288 253 1288 230 1210.5 c 128,-1,2
 207 1133 207 1133 196.5 1023.5 c 128,-1,3
 186 914 186 914 181.5 830 c 128,-1,4
 177 746 177 746 177 699 c 0,5,6
 177 664 177 664 177.5 637 c 128,-1,7
 178 610 178 610 179 546 c 128,-1,8
 180 482 180 482 183.5 431 c 128,-1,9
 187 380 187 380 192.5 313 c 128,-1,10
 198 246 198 246 208 196 c 128,-1,11
 218 146 218 146 230.5 100.5 c 128,-1,12
 243 55 243 55 262 30.5 c 128,-1,13
 281 6 281 6 304 6 c 1,14,15
 331 18 331 18 361 18 c 0,16,17
 381 18 381 18 405 122.5 c 128,-1,18
 429 227 429 227 445.5 395 c 128,-1,19
 462 563 462 563 462 726 c 0,20,21
 462 842 462 842 453 938 c 128,-1,22
 444 1034 444 1034 424 1115.5 c 128,-1,23
 404 1197 404 1197 368 1242.5 c 128,-1,24
 332 1288 332 1288 283 1288 c 0,0,1
504 -434 m 1,25,-1
 504 -432 l 1,26,27
 393 -432 393 -432 353 -385 c 1,28,29
 353 -362 353 -362 352 -339.5 c 128,-1,30
 351 -317 351 -317 348 -291 c 128,-1,31
 345 -265 345 -265 342.5 -247 c 128,-1,32
 340 -229 340 -229 335 -198.5 c 128,-1,33
 330 -168 330 -168 327.5 -154.5 c 128,-1,34
 325 -141 325 -141 318.5 -106.5 c 128,-1,35
 312 -72 312 -72 310 -62 c 1,36,37
 252 -48 252 -48 212.5 -22.5 c 128,-1,38
 173 3 173 3 150.5 44.5 c 128,-1,39
 128 86 128 86 117.5 130.5 c 128,-1,40
 107 175 107 175 100 241 c 0,41,42
 78 449 78 449 78 754 c 0,43,44
 78 797 78 797 79 836 c 128,-1,45
 80 875 80 875 84.5 940.5 c 128,-1,46
 89 1006 89 1006 97 1059.5 c 128,-1,47
 105 1113 105 1113 120.5 1173 c 128,-1,48
 136 1233 136 1233 157.5 1274 c 128,-1,49
 179 1315 179 1315 212.5 1342 c 128,-1,50
 246 1369 246 1369 288 1369 c 1,51,52
 303 1362 303 1362 336 1354.5 c 128,-1,53
 369 1347 369 1347 383 1341 c 0,54,55
 422 1322 422 1322 452 1288 c 128,-1,56
 482 1254 482 1254 500.5 1207.5 c 128,-1,57
 519 1161 519 1161 530.5 1114.5 c 128,-1,58
 542 1068 542 1068 547.5 1009.5 c 128,-1,59
 553 951 553 951 554.5 908.5 c 128,-1,60
 556 866 556 866 556 812 c 0,61,62
 556 31 556 31 406 -49 c 1,63,64
 406 -82 406 -82 411 -122.5 c 128,-1,65
 416 -163 416 -163 420 -185 c 128,-1,66
 424 -207 424 -207 436 -261.5 c 128,-1,67
 448 -316 448 -316 450 -326 c 1,68,69
 554 -326 554 -326 554 -384 c 0,70,71
 554 -405 554 -405 539.5 -419.5 c 128,-1,72
 525 -434 525 -434 504 -434 c 1,25,-1
EndSplineSet
EndChar

StartChar: r
Encoding: 114 114 85
Width: 557
Flags: W
LayerCount: 2
Fore
SplineSet
187 520 m 0,0,1
 187 452 187 452 199.5 293.5 c 128,-1,2
 212 135 212 135 212 86 c 0,3,4
 212 43 212 43 195.5 19 c 128,-1,5
 179 -5 179 -5 158 -5 c 0,6,7
 128 -5 128 -5 120 36 c 1,8,9
 122 112 122 112 122 149 c 0,10,11
 122 333 122 333 104.5 708 c 128,-1,12
 87 1083 87 1083 87 1268 c 0,13,14
 87 1365 87 1365 155 1365 c 0,15,16
 262 1365 262 1365 335 1309 c 128,-1,17
 408 1253 408 1253 408 1149 c 0,18,19
 408 1009 408 1009 386 931 c 128,-1,20
 364 853 364 853 303 736 c 1,21,22
 314 687 314 687 341.5 540.5 c 128,-1,23
 369 394 369 394 396 293 c 128,-1,24
 423 192 423 192 462 107 c 0,25,26
 464 102 464 102 475 81 c 128,-1,27
 486 60 486 60 491 45.5 c 128,-1,28
 496 31 496 31 496 17 c 0,29,30
 496 -4 496 -4 483.5 -19.5 c 128,-1,31
 471 -35 471 -35 450 -35 c 0,32,33
 415 -35 415 -35 383 28.5 c 128,-1,34
 351 92 351 92 327 188.5 c 128,-1,35
 303 285 303 285 283.5 384 c 128,-1,36
 264 483 264 483 246 571.5 c 128,-1,37
 228 660 228 660 215 689 c 1,38,39
 215 663 215 663 201 606 c 128,-1,40
 187 549 187 549 187 520 c 0,0,1
306 1098 m 0,41,42
 306 1135 306 1135 303 1161.5 c 128,-1,43
 300 1188 300 1188 290.5 1220.5 c 128,-1,44
 281 1253 281 1253 257.5 1270.5 c 128,-1,45
 234 1288 234 1288 198 1289 c 1,46,47
 198 1288 198 1288 194.5 1276.5 c 128,-1,48
 191 1265 191 1265 191 1260 c 0,49,50
 191 1176 191 1176 195 1017.5 c 128,-1,51
 199 859 199 859 199 787 c 1,52,53
 247 812 247 812 276.5 917.5 c 128,-1,54
 306 1023 306 1023 306 1098 c 0,41,42
EndSplineSet
EndChar

StartChar: s
Encoding: 115 115 86
Width: 500
Flags: W
LayerCount: 2
Fore
SplineSet
176 1075 m 0,0,1
 176 1014 176 1014 194 953 c 128,-1,2
 212 892 212 892 239.5 844.5 c 128,-1,3
 267 797 267 797 298.5 739.5 c 128,-1,4
 330 682 330 682 357.5 628 c 128,-1,5
 385 574 385 574 403 498.5 c 128,-1,6
 421 423 421 423 421 342 c 0,7,8
 421 281 421 281 408.5 221 c 128,-1,9
 396 161 396 161 369.5 105 c 128,-1,10
 343 49 343 49 293.5 13.5 c 128,-1,11
 244 -22 244 -22 179 -23 c 1,12,-1
 179 -28 l 1,13,14
 141 -23 141 -23 110 -2.5 c 128,-1,15
 79 18 79 18 75 51 c 1,16,-1
 75 86 l 1,17,18
 83 85 83 85 107 80.5 c 128,-1,19
 131 76 131 76 150.5 73.5 c 128,-1,20
 170 71 170 71 183 71 c 0,21,22
 222 71 222 71 251 105 c 128,-1,23
 280 139 280 139 294 190 c 128,-1,24
 308 241 308 241 314.5 286 c 128,-1,25
 321 331 321 331 321 367 c 0,26,27
 321 439 321 439 296 513 c 128,-1,28
 271 587 271 587 235 650.5 c 128,-1,29
 199 714 199 714 162.5 779.5 c 128,-1,30
 126 845 126 845 101 924.5 c 128,-1,31
 76 1004 76 1004 76 1086 c 0,32,33
 76 1130 76 1130 86.5 1178 c 128,-1,34
 97 1226 97 1226 117.5 1273 c 128,-1,35
 138 1320 138 1320 175.5 1350.5 c 128,-1,36
 213 1381 213 1381 261 1381 c 0,37,38
 297 1381 297 1381 329.5 1358 c 128,-1,39
 362 1335 362 1335 362 1300 c 0,40,41
 362 1281 362 1281 346.5 1271 c 128,-1,42
 331 1261 331 1261 312 1261 c 0,43,44
 290 1261 290 1261 269 1273 c 1,45,46
 245 1272 245 1272 226 1249 c 128,-1,47
 207 1226 207 1226 196.5 1192.5 c 128,-1,48
 186 1159 186 1159 181 1128 c 128,-1,49
 176 1097 176 1097 176 1075 c 0,0,1
EndSplineSet
EndChar

StartChar: t
Encoding: 116 116 87
Width: 552
Flags: W
LayerCount: 2
Fore
SplineSet
283 260 m 1,0,1
 275 286 275 286 250 722.5 c 128,-1,2
 225 1159 225 1159 223 1255 c 1,3,4
 105 1258 105 1258 70 1281 c 0,5,6
 49 1295 49 1295 49 1316 c 0,7,8
 49 1335 49 1335 71 1347.5 c 128,-1,9
 93 1360 93 1360 114 1360 c 0,10,11
 160 1360 160 1360 253 1350.5 c 128,-1,12
 346 1341 346 1341 392 1341 c 0,13,14
 397 1341 397 1341 408 1341.5 c 128,-1,15
 419 1342 419 1342 425 1342 c 0,16,17
 489 1342 489 1342 489 1293 c 0,18,19
 489 1268 489 1268 468 1252.5 c 128,-1,20
 447 1237 447 1237 421 1237 c 0,21,22
 402 1237 402 1237 368 1243.5 c 128,-1,23
 334 1250 334 1250 327 1251 c 1,24,25
 327 1250 327 1250 325 1242 c 128,-1,26
 323 1234 323 1234 323 1230 c 0,27,28
 323 1036 323 1036 357 649 c 128,-1,29
 391 262 391 262 391 67 c 0,30,31
 391 42 391 42 372.5 24 c 128,-1,32
 354 6 354 6 329 6 c 2,33,-1
 283 6 l 1,34,35
 283 32 283 32 281 98 c 128,-1,36
 279 164 279 164 279 190 c 0,37,38
 279 203 279 203 281 228 c 128,-1,39
 283 253 283 253 283 260 c 1,0,1
EndSplineSet
EndChar

StartChar: u
Encoding: 117 117 88
Width: 698
Flags: W
LayerCount: 2
Fore
SplineSet
583 878 m 1,0,1
 574 834 574 834 569 739.5 c 128,-1,2
 564 645 564 645 561.5 550 c 128,-1,3
 559 455 559 455 546 347.5 c 128,-1,4
 533 240 533 240 511 158.5 c 128,-1,5
 489 77 489 77 440.5 23 c 128,-1,6
 392 -31 392 -31 322 -31 c 0,7,8
 273 -31 273 -31 235 -9.5 c 128,-1,9
 197 12 197 12 173 52.5 c 128,-1,10
 149 93 149 93 133 139.5 c 128,-1,11
 117 186 117 186 109 247 c 128,-1,12
 101 308 101 308 98 360 c 128,-1,13
 95 412 95 412 95 473 c 0,14,15
 95 586 95 586 100.5 753 c 128,-1,16
 106 920 106 920 106 1013 c 0,17,18
 106 1190 106 1190 81 1306 c 1,19,-1
 81 1355 l 1,20,21
 130 1355 130 1355 158.5 1317 c 128,-1,22
 187 1279 187 1279 187 1232 c 2,23,-1
 187 241 l 2,24,25
 187 162 187 162 226.5 96.5 c 128,-1,26
 266 31 266 31 343 31 c 0,27,28
 430 31 430 31 459 537 c 0,29,30
 459 543 459 543 459 546 c 128,-1,31
 459 549 459 549 459.5 552.5 c 128,-1,32
 460 556 460 556 460 559 c 0,33,34
 486 1021 486 1021 486 1307 c 0,35,36
 486 1313 486 1313 485.5 1324.5 c 128,-1,37
 485 1336 485 1336 485 1341 c 0,38,39
 485 1365 485 1365 496 1377 c 128,-1,40
 507 1389 507 1389 541 1389 c 0,41,42
 569 1389 569 1389 584 1372 c 128,-1,43
 599 1355 599 1355 601.5 1337.5 c 128,-1,44
 604 1320 604 1320 604 1290 c 0,45,46
 604 1255 604 1255 597 1186 c 128,-1,47
 590 1117 590 1117 590 1084 c 0,48,49
 590 1056 590 1056 585.5 999 c 128,-1,50
 581 942 581 942 581 913 c 0,51,52
 581 907 581 907 582 895.5 c 128,-1,53
 583 884 583 884 583 878 c 1,0,1
EndSplineSet
EndChar

StartChar: v
Encoding: 118 118 89
Width: 732
Flags: W
LayerCount: 2
Fore
SplineSet
373 247 m 1,0,1
 389 328 389 328 413 532 c 0,2,3
 432 698 432 698 490.5 1003.5 c 128,-1,4
 549 1309 549 1309 561 1378 c 1,5,-1
 607 1378 l 2,6,7
 610 1378 610 1378 618 1377 c 128,-1,8
 626 1376 626 1376 629.5 1375.5 c 128,-1,9
 633 1375 633 1375 639 1373 c 128,-1,10
 645 1371 645 1371 647.5 1368.5 c 128,-1,11
 650 1366 650 1366 652 1361.5 c 128,-1,12
 654 1357 654 1357 654 1351 c 0,13,14
 654 1272 654 1272 633.5 1181 c 128,-1,15
 613 1090 613 1090 584.5 988.5 c 128,-1,16
 556 887 556 887 545 821 c 0,17,18
 535 758 535 758 523 633 c 128,-1,19
 511 508 511 508 502 449 c 0,20,21
 496 411 496 411 476.5 338.5 c 128,-1,22
 457 266 457 266 451 230 c 0,23,24
 448 215 448 215 445.5 176.5 c 128,-1,25
 443 138 443 138 439 108 c 128,-1,26
 435 78 435 78 425.5 45.5 c 128,-1,27
 416 13 416 13 395 -5.5 c 128,-1,28
 374 -24 374 -24 342 -24 c 1,29,-1
 296 7 l 1,30,31
 296 256 296 256 248.5 515 c 128,-1,32
 201 774 201 774 114 1110 c 0,33,34
 110 1126 110 1126 94.5 1173 c 128,-1,35
 79 1220 79 1220 68.5 1259.5 c 128,-1,36
 58 1299 58 1299 58 1319 c 0,37,38
 58 1338 58 1338 73.5 1352 c 128,-1,39
 89 1366 89 1366 108 1366 c 0,40,41
 130 1366 130 1366 147 1349 c 128,-1,42
 164 1332 164 1332 174 1301 c 128,-1,43
 184 1270 184 1270 190 1243.5 c 128,-1,44
 196 1217 196 1217 201.5 1182.5 c 128,-1,45
 207 1148 207 1148 209 1139 c 0,46,47
 313 665 313 665 373 247 c 1,0,1
EndSplineSet
EndChar

StartChar: w
Encoding: 119 119 90
Width: 841
Flags: W
LayerCount: 2
Fore
SplineSet
719 1046 m 1,0,1
 721 1087 721 1087 728.5 1139.5 c 128,-1,2
 736 1192 736 1192 743.5 1242 c 128,-1,3
 751 1292 751 1292 752 1329 c 0,4,5
 752 1352 752 1352 737.5 1364.5 c 128,-1,6
 723 1377 723 1377 700 1377 c 0,7,8
 637 1377 637 1377 637 1327 c 0,9,10
 637 1310 637 1310 644 1292 c 1,11,12
 644 1240 644 1240 628.5 1138 c 128,-1,13
 613 1036 613 1036 613 984 c 0,14,15
 613 593 613 593 579 307 c 1,16,17
 567 400 567 400 553 572 c 128,-1,18
 539 744 539 744 521 883 c 128,-1,19
 503 1022 503 1022 471 1143 c 1,20,-1
 471 1160 l 2,21,22
 471 1184 471 1184 455 1197 c 128,-1,23
 439 1210 439 1210 416 1210 c 2,24,-1
 361 1210 l 1,25,26
 359 1172 359 1172 347 1047 c 128,-1,27
 335 922 335 922 335 858 c 0,28,29
 335 811 335 811 332 759 c 128,-1,30
 329 707 329 707 326 668.5 c 128,-1,31
 323 630 323 630 315 567 c 128,-1,32
 307 504 307 504 303 476.5 c 128,-1,33
 299 449 299 449 288 376 c 128,-1,34
 277 303 277 303 274 283 c 1,35,36
 269 423 269 423 226 727.5 c 128,-1,37
 183 1032 183 1032 183 1195 c 0,38,39
 183 1329 183 1329 117 1329 c 0,40,41
 75 1329 75 1329 58 1293 c 1,42,43
 78 1248 78 1248 89.5 1186.5 c 128,-1,44
 101 1125 101 1125 104 1078 c 128,-1,45
 107 1031 107 1031 110 957 c 128,-1,46
 113 883 113 883 115 850 c 0,47,48
 120 788 120 788 137.5 674.5 c 128,-1,49
 155 561 155 561 160 522 c 0,50,51
 162 505 162 505 164.5 431.5 c 128,-1,52
 167 358 167 358 172.5 284 c 128,-1,53
 178 210 178 210 188 132.5 c 128,-1,54
 198 55 198 55 219.5 6 c 128,-1,55
 241 -43 241 -43 272 -43 c 0,56,57
 294 -43 294 -43 310.5 -18.5 c 128,-1,58
 327 6 327 6 336.5 49.5 c 128,-1,59
 346 93 346 93 351.5 128 c 128,-1,60
 357 163 357 163 360.5 210 c 128,-1,61
 364 257 364 257 365 262 c 0,62,63
 372 318 372 318 390.5 437.5 c 128,-1,64
 409 557 409 557 419 649 c 128,-1,65
 429 741 429 741 429 826 c 0,66,67
 429 874 429 874 435 942 c 1,68,69
 450 834 450 834 465 630 c 128,-1,70
 480 426 480 426 490 337 c 0,71,72
 494 300 494 300 504.5 239 c 128,-1,73
 515 178 515 178 522 125 c 128,-1,74
 529 72 529 72 529 25 c 0,75,76
 529 3 529 3 533 -16.5 c 128,-1,77
 537 -36 537 -36 549 -52.5 c 128,-1,78
 561 -69 561 -69 581 -69 c 0,79,80
 656 -69 656 -69 656 139 c 0,81,82
 656 163 656 163 659 185.5 c 128,-1,83
 662 208 662 208 669 241 c 128,-1,84
 676 274 676 274 678 286 c 0,85,86
 719 519 719 519 719 896 c 2,87,-1
 719 1046 l 1,0,1
EndSplineSet
EndChar

StartChar: x
Encoding: 120 120 91
Width: 531
Flags: W
LayerCount: 2
Fore
SplineSet
210 660 m 0,0,1
 210 718 210 718 158 951.5 c 128,-1,2
 106 1185 106 1185 82 1219 c 1,3,-1
 82 1241 l 1,4,5
 65 1258 65 1258 65 1292 c 0,6,7
 65 1312 65 1312 84.5 1323 c 128,-1,8
 104 1334 104 1334 126 1334 c 0,9,10
 150 1334 150 1334 164.5 1317.5 c 128,-1,11
 179 1301 179 1301 182.5 1282.5 c 128,-1,12
 186 1264 186 1264 189 1234 c 128,-1,13
 192 1204 192 1204 194 1194 c 0,14,15
 203 1150 203 1150 227 1049 c 128,-1,16
 251 948 251 948 262 894 c 1,17,18
 266 918 266 918 281.5 1000 c 128,-1,19
 297 1082 297 1082 304.5 1137.5 c 128,-1,20
 312 1193 312 1193 312 1238 c 0,21,22
 312 1279 312 1279 328 1311 c 128,-1,23
 344 1343 344 1343 374 1340 c 0,24,25
 388 1339 388 1339 395.5 1332 c 128,-1,26
 403 1325 403 1325 404.5 1310 c 128,-1,27
 406 1295 406 1295 405.5 1281.5 c 128,-1,28
 405 1268 405 1268 403.5 1243.5 c 128,-1,29
 402 1219 402 1219 402 1202 c 2,30,-1
 402 1109 l 1,31,32
 376 1039 376 1039 343 876.5 c 128,-1,33
 310 714 310 714 310 646 c 0,34,35
 310 573 310 573 346.5 450.5 c 128,-1,36
 383 328 383 328 419.5 215.5 c 128,-1,37
 456 103 456 103 456 54 c 0,38,39
 456 32 456 32 439.5 17.5 c 128,-1,40
 423 3 423 3 401 3 c 0,41,42
 378 3 378 3 354 17 c 1,43,44
 340 80 340 80 307 219.5 c 128,-1,45
 274 359 274 359 259 433 c 1,46,47
 254 405 254 405 241 281 c 128,-1,48
 228 157 228 157 209 93 c 1,49,50
 210 86 210 86 210 69 c 0,51,52
 210 -7 210 -7 157 -7 c 0,53,54
 134 -7 134 -7 114.5 5.5 c 128,-1,55
 95 18 95 18 95 40 c 0,56,57
 95 111 95 111 113 197 c 128,-1,58
 131 283 131 283 152.5 350 c 128,-1,59
 174 417 174 417 192 503 c 128,-1,60
 210 589 210 589 210 660 c 0,0,1
EndSplineSet
EndChar

StartChar: y
Encoding: 121 121 92
Width: 580
Flags: W
LayerCount: 2
Fore
SplineSet
379 109 m 2,0,1
 379 80 379 80 377.5 62.5 c 128,-1,2
 376 45 376 45 371 21 c 128,-1,3
 366 -3 366 -3 352 -15.5 c 128,-1,4
 338 -28 338 -28 316 -28 c 0,5,6
 279 -28 279 -28 259 17 c 1,7,8
 282 62 282 62 282 364 c 0,9,10
 282 421 282 421 274 524.5 c 128,-1,11
 266 628 266 628 265 664 c 1,12,13
 225 733 225 733 141.5 981.5 c 128,-1,14
 58 1230 58 1230 58 1288 c 2,15,-1
 58 1299 l 1,16,-1
 104 1333 l 1,17,18
 139 1332 139 1332 177.5 1242.5 c 128,-1,19
 216 1153 216 1153 254 1015.5 c 128,-1,20
 292 878 292 878 292 877 c 1,21,22
 300 899 300 899 324 1029.5 c 128,-1,23
 348 1160 348 1160 380 1261 c 128,-1,24
 412 1362 412 1362 452 1362 c 0,25,26
 471 1362 471 1362 486.5 1350 c 128,-1,27
 502 1338 502 1338 502 1319 c 0,28,29
 502 1252 502 1252 483 1170.5 c 128,-1,30
 464 1089 464 1089 440.5 1024.5 c 128,-1,31
 417 960 417 960 398 877.5 c 128,-1,32
 379 795 379 795 379 726 c 2,33,-1
 379 109 l 2,0,1
EndSplineSet
EndChar

StartChar: z
Encoding: 122 122 93
Width: 550
Flags: W
LayerCount: 2
Fore
SplineSet
302 111 m 1,0,-1
 302 112 l 1,1,2
 385 112 385 112 385 62 c 0,3,4
 385 37 385 37 363 24.5 c 128,-1,5
 341 12 341 12 314 12 c 0,6,7
 294 12 294 12 253.5 15 c 128,-1,8
 213 18 213 18 193 18 c 0,9,10
 180 18 180 18 157 7 c 128,-1,11
 134 -4 134 -4 120 -4 c 0,12,13
 98 -4 98 -4 81.5 11 c 128,-1,14
 65 26 65 26 65 48 c 0,15,16
 65 78 65 78 76.5 127.5 c 128,-1,17
 88 177 88 177 111 252.5 c 128,-1,18
 134 328 134 328 136 335 c 0,19,20
 152 391 152 391 174.5 498 c 128,-1,21
 197 605 197 605 209 651 c 0,22,23
 227 720 227 720 268.5 840 c 128,-1,24
 310 960 310 960 337 1061 c 128,-1,25
 364 1162 364 1162 368 1256 c 1,26,27
 344 1255 344 1255 288 1249.5 c 128,-1,28
 232 1244 232 1244 201 1244 c 0,29,30
 179 1244 179 1244 163.5 1261.5 c 128,-1,31
 148 1279 148 1279 148 1301 c 0,32,33
 148 1359 148 1359 356 1359 c 0,34,35
 358 1359 358 1359 363 1359 c 0,36,37
 385 1359 385 1359 398 1358 c 128,-1,38
 411 1357 411 1357 431.5 1352.5 c 128,-1,39
 452 1348 452 1348 463 1335 c 128,-1,40
 474 1322 474 1322 474 1302 c 0,41,42
 474 1230 474 1230 429.5 1106.5 c 128,-1,43
 385 983 385 983 377 933 c 0,44,45
 359 823 359 823 311 670 c 128,-1,46
 263 517 263 517 224.5 374 c 128,-1,47
 186 231 186 231 181 107 c 1,48,-1
 216 107 l 2,49,50
 230 107 230 107 259 109 c 128,-1,51
 288 111 288 111 302 111 c 1,0,-1
EndSplineSet
EndChar

StartChar: braceleft
Encoding: 123 123 94
Width: 600
Flags: W
LayerCount: 2
Fore
SplineSet
399 -48 m 0,0,1
 283 -48 283 -48 240 14.5 c 128,-1,2
 197 77 197 77 197 198 c 2,3,-1
 197 621 l 2,4,5
 197 659 197 659 186.5 682 c 128,-1,6
 176 705 176 705 160.5 711 c 128,-1,7
 145 717 145 717 127 720 c 128,-1,8
 109 723 109 723 93.5 723.5 c 128,-1,9
 78 724 78 724 67.5 734 c 128,-1,10
 57 744 57 744 57 766 c 0,11,12
 57 793 57 793 71.5 804 c 128,-1,13
 86 815 86 815 106 816 c 128,-1,14
 126 817 126 817 146.5 821.5 c 128,-1,15
 167 826 167 826 181.5 848.5 c 128,-1,16
 196 871 196 871 196 916 c 0,17,18
 196 933 196 933 191 1010.5 c 128,-1,19
 186 1088 186 1088 186 1130 c 0,20,21
 186 1204 186 1204 199 1226 c 1,22,23
 194 1256 194 1256 194 1280 c 0,24,25
 194 1374 194 1374 247 1434.5 c 128,-1,26
 300 1495 300 1495 399 1495 c 0,27,28
 422 1495 422 1495 452 1490.5 c 128,-1,29
 482 1486 482 1486 512 1471 c 128,-1,30
 542 1456 542 1456 542 1435 c 0,31,32
 542 1413 542 1413 524.5 1401 c 128,-1,33
 507 1389 507 1389 485 1389 c 0,34,35
 468 1389 468 1389 435 1398.5 c 128,-1,36
 402 1408 402 1408 384 1408 c 0,37,38
 286 1408 286 1408 286 1157 c 0,39,40
 286 1135 286 1135 290 1062 c 128,-1,41
 294 989 294 989 294 947 c 0,42,43
 294 815 294 815 258 768 c 1,44,45
 295 722 295 722 295 622 c 2,46,-1
 295 192 l 2,47,48
 295 168 295 168 295.5 150.5 c 128,-1,49
 296 133 296 133 301 110.5 c 128,-1,50
 306 88 306 88 315 73.5 c 128,-1,51
 324 59 324 59 341.5 49 c 128,-1,52
 359 39 359 39 384 39 c 0,53,54
 405 39 405 39 444.5 50.5 c 128,-1,55
 484 62 484 62 505 62 c 0,56,57
 513 62 513 62 517.5 44.5 c 128,-1,58
 522 27 522 27 522 16 c 0,59,60
 522 -8 522 -8 498 -23.5 c 128,-1,61
 474 -39 474 -39 448.5 -43.5 c 128,-1,62
 423 -48 423 -48 399 -48 c 0,0,1
EndSplineSet
EndChar

StartChar: bar
Encoding: 124 124 95
Width: 341
Flags: W
LayerCount: 2
Fore
SplineSet
124 114 m 0,0,1
 124 347 124 347 117 812.5 c 128,-1,2
 110 1278 110 1278 110 1510 c 0,3,4
 110 1584 110 1584 181 1584 c 0,5,6
 199 1584 199 1584 211 1568 c 128,-1,7
 223 1552 223 1552 223 1533 c 0,8,9
 223 1340 223 1340 226.5 955.5 c 128,-1,10
 230 571 230 571 230 379 c 2,11,-1
 230 -29 l 2,12,13
 230 -50 230 -50 213 -65 c 128,-1,14
 196 -80 196 -80 175 -80 c 0,15,16
 124 -80 124 -80 124 114 c 0,0,1
EndSplineSet
EndChar

StartChar: braceright
Encoding: 125 125 96
Width: 595
Flags: W
LayerCount: 2
Fore
SplineSet
203 1495 m 0,0,1
 317 1495 317 1495 361 1432 c 128,-1,2
 405 1369 405 1369 405 1249 c 2,3,-1
 405 876 l 2,4,5
 405 831 405 831 418.5 807.5 c 128,-1,6
 432 784 432 784 451 779.5 c 128,-1,7
 470 775 470 775 489 774 c 128,-1,8
 508 773 508 773 521.5 764 c 128,-1,9
 535 755 535 755 535 731 c 0,10,11
 535 704 535 704 521.5 693 c 128,-1,12
 508 682 508 682 489.5 681 c 128,-1,13
 471 680 471 680 452 676 c 128,-1,14
 433 672 433 672 419.5 649 c 128,-1,15
 406 626 406 626 406 581 c 0,16,17
 406 566 406 566 410 474 c 128,-1,18
 414 382 414 382 414 330 c 0,19,20
 414 239 414 239 403 221 c 1,21,22
 407 196 407 196 407 166 c 0,23,24
 407 72 407 72 354.5 12 c 128,-1,25
 302 -48 302 -48 203 -48 c 0,26,27
 180 -48 180 -48 150 -43.5 c 128,-1,28
 120 -39 120 -39 90 -24 c 128,-1,29
 60 -9 60 -9 60 12 c 0,30,31
 60 34 60 34 77.5 46 c 128,-1,32
 95 58 95 58 117 58 c 0,33,34
 134 58 134 58 167 48.5 c 128,-1,35
 200 39 200 39 218 39 c 0,36,37
 316 39 316 39 316 289 c 0,38,39
 316 313 316 313 311 398.5 c 128,-1,40
 306 484 306 484 306 534 c 0,41,42
 306 681 306 681 344 729 c 1,43,44
 307 776 307 776 307 875 c 0,45,46
 307 887 307 887 312 976.5 c 128,-1,47
 317 1066 317 1066 317 1127 c 0,48,49
 317 1408 317 1408 218 1408 c 0,50,51
 197 1408 197 1408 157.5 1396.5 c 128,-1,52
 118 1385 118 1385 97 1385 c 0,53,54
 89 1385 89 1385 84.5 1402.5 c 128,-1,55
 80 1420 80 1420 80 1431 c 0,56,57
 80 1455 80 1455 104 1470.5 c 128,-1,58
 128 1486 128 1486 153.5 1490.5 c 128,-1,59
 179 1495 179 1495 203 1495 c 0,0,1
EndSplineSet
EndChar

StartChar: exclamdown
Encoding: 161 161 97
Width: 346
Flags: W
LayerCount: 2
Fore
SplineSet
161 1250 m 0,0,1
 188 1250 188 1250 202.5 1189 c 128,-1,2
 217 1128 217 1128 217 1074 c 0,3,4
 217 894 217 894 237.5 535.5 c 128,-1,5
 258 177 258 177 258 -2 c 0,6,7
 258 -23 258 -23 243.5 -37.5 c 128,-1,8
 229 -52 229 -52 208 -52 c 0,9,10
 175 -52 175 -52 148 -28.5 c 128,-1,11
 121 -5 121 -5 121 27 c 0,12,13
 121 139 121 139 126 363 c 128,-1,14
 131 587 131 587 131 699 c 0,15,16
 131 752 131 752 127 866 c 128,-1,17
 123 980 123 980 123 1038 c 0,18,19
 123 1148 123 1148 133 1222 c 1,20,21
 142 1250 142 1250 161 1250 c 0,0,1
159 1395 m 0,22,23
 126 1395 126 1395 100 1421.5 c 128,-1,24
 74 1448 74 1448 74 1481 c 2,25,-1
 74 1487 l 1,26,27
 78 1572 78 1572 152 1572 c 0,28,29
 192 1572 192 1572 217.5 1552.5 c 128,-1,30
 243 1533 243 1533 243 1494 c 0,31,32
 243 1453 243 1453 220.5 1424 c 128,-1,33
 198 1395 198 1395 159 1395 c 0,22,23
EndSplineSet
EndChar

StartChar: cent
Encoding: 162 162 98
Width: 666
Flags: W
LayerCount: 2
Fore
SplineSet
520 1140 m 1,0,-1
 520 1135 l 2,1,2
 520 1118 520 1118 506.5 1101 c 128,-1,3
 493 1084 493 1084 476 1084 c 0,4,5
 454 1084 454 1084 435.5 1100.5 c 128,-1,6
 417 1117 417 1117 408 1140 c 1,7,-1
 350 1140 l 1,8,9
 390 609 390 609 406 428 c 0,10,11
 407 424 407 424 405.5 415 c 128,-1,12
 404 406 404 406 404 403 c 0,13,14
 404 399 404 399 406 391 c 1,15,16
 434 392 434 392 456 401.5 c 128,-1,17
 478 411 478 411 498 432 c 128,-1,18
 518 453 518 453 527.5 466 c 128,-1,19
 537 479 537 479 558 511 c 1,20,21
 617 511 617 511 617 451 c 0,22,23
 617 398 617 398 542 352 c 128,-1,24
 467 306 467 306 405 301 c 1,25,-1
 405 222 l 2,26,27
 405 190 405 190 412 125 c 128,-1,28
 419 60 419 60 419 28 c 0,29,30
 419 8 419 8 404.5 -6 c 128,-1,31
 390 -20 390 -20 371 -20 c 1,32,33
 369 -18 369 -18 364 -11.5 c 128,-1,34
 359 -5 359 -5 358 -3 c 128,-1,35
 357 -1 357 -1 353 4 c 128,-1,36
 349 9 349 9 348.5 11.5 c 128,-1,37
 348 14 348 14 345.5 19 c 128,-1,38
 343 24 343 24 342.5 28 c 128,-1,39
 342 32 342 32 341 38 c 128,-1,40
 340 44 340 44 339.5 50.5 c 128,-1,41
 339 57 339 57 339 65 c 0,42,43
 339 88 339 88 335 133.5 c 128,-1,44
 331 179 331 179 331 202 c 0,45,46
 331 227 331 227 324 313 c 1,47,48
 280 329 280 329 245.5 348.5 c 128,-1,49
 211 368 211 368 186.5 393 c 128,-1,50
 162 418 162 418 144 441 c 128,-1,51
 126 464 126 464 115 498 c 128,-1,52
 104 532 104 532 97.5 557.5 c 128,-1,53
 91 583 91 583 88 626 c 128,-1,54
 85 669 85 669 84.5 697.5 c 128,-1,55
 84 726 84 726 84 777 c 0,56,57
 84 841 84 841 85.5 882.5 c 128,-1,58
 87 924 87 924 96 987 c 128,-1,59
 105 1050 105 1050 121.5 1093.5 c 128,-1,60
 138 1137 138 1137 171 1181.5 c 128,-1,61
 204 1226 204 1226 250 1254 c 1,62,63
 249 1267 249 1267 245.5 1290 c 128,-1,64
 242 1313 242 1313 240 1332 c 128,-1,65
 238 1351 238 1351 238 1368 c 0,66,67
 238 1456 238 1456 292 1456 c 1,68,69
 317 1440 317 1440 321.5 1426.5 c 128,-1,70
 326 1413 326 1413 326 1371 c 0,71,72
 326 1332 326 1332 336 1254 c 1,73,74
 345 1251 345 1251 369.5 1244.5 c 128,-1,75
 394 1238 394 1238 409 1233.5 c 128,-1,76
 424 1229 424 1229 446.5 1219.5 c 128,-1,77
 469 1210 469 1210 483 1200 c 128,-1,78
 497 1190 497 1190 507.5 1174.5 c 128,-1,79
 518 1159 518 1159 520 1140 c 1,0,-1
262 1150 m 1,80,81
 220 1095 220 1095 201.5 990 c 128,-1,82
 183 885 183 885 183 790 c 0,83,84
 183 428 183 428 327 406 c 1,85,86
 316 627 316 627 262 1150 c 1,80,81
EndSplineSet
EndChar

StartChar: sterling
Encoding: 163 163 99
Width: 764
Flags: W
LayerCount: 2
Fore
SplineSet
293 1539 m 1,0,-1
 293 1519 l 1,1,2
 272 1494 272 1494 238.5 1400 c 128,-1,3
 205 1306 205 1306 205 1270 c 0,4,5
 205 1066 205 1066 224 976 c 1,6,7
 256 977 256 977 324 989.5 c 128,-1,8
 392 1002 392 1002 429 1002 c 0,9,10
 450 1002 450 1002 465.5 987.5 c 128,-1,11
 481 973 481 973 481 952 c 0,12,13
 481 930 481 930 462 915.5 c 128,-1,14
 443 901 443 901 412 895.5 c 128,-1,15
 381 890 381 890 351 888 c 128,-1,16
 321 886 321 886 288.5 885.5 c 128,-1,17
 256 885 256 885 245 883 c 1,18,19
 256 823 256 823 285 724.5 c 128,-1,20
 314 626 314 626 333 539.5 c 128,-1,21
 352 453 352 453 352 378 c 0,22,23
 352 357 352 357 349.5 336 c 128,-1,24
 347 315 347 315 341 291 c 128,-1,25
 335 267 335 267 331 252.5 c 128,-1,26
 327 238 327 238 317.5 209 c 128,-1,27
 308 180 308 180 305 169 c 1,28,29
 344 166 344 166 432.5 145.5 c 128,-1,30
 521 125 521 125 570 125 c 0,31,32
 624 125 624 125 663 144 c 1,33,-1
 712 109 l 1,34,35
 712 27 712 27 606 27 c 0,36,37
 587 27 587 27 552.5 30.5 c 128,-1,38
 518 34 518 34 506 34 c 2,39,-1
 440 34 l 1,40,41
 342 71 342 71 306 71 c 0,42,43
 281 71 281 71 219 46 c 128,-1,44
 157 21 157 21 122 2 c 1,45,-1
 122 6 l 1,46,47
 100 8 100 8 82 20 c 128,-1,48
 64 32 64 32 64 53 c 0,49,50
 64 84 64 84 85.5 102 c 128,-1,51
 107 120 107 120 143 133.5 c 128,-1,52
 179 147 179 147 193 158 c 0,53,54
 224 182 224 182 239.5 253 c 128,-1,55
 255 324 255 324 255 382 c 0,56,57
 255 458 255 458 239.5 534.5 c 128,-1,58
 224 611 224 611 191 720 c 128,-1,59
 158 829 158 829 148 867 c 1,60,61
 129 870 129 870 116.5 884.5 c 128,-1,62
 104 899 104 899 104 918 c 0,63,64
 104 950 104 950 131 966 c 1,65,66
 130 1008 130 1008 118 1099 c 128,-1,67
 106 1190 106 1190 106 1238 c 0,68,69
 106 1274 106 1274 108.5 1315 c 128,-1,70
 111 1356 111 1356 120 1415.5 c 128,-1,71
 129 1475 129 1475 143.5 1520.5 c 128,-1,72
 158 1566 158 1566 186 1599 c 128,-1,73
 214 1632 214 1632 251 1632 c 2,74,-1
 316 1632 l 2,75,76
 353 1632 353 1632 393.5 1589.5 c 128,-1,77
 434 1547 434 1547 458.5 1493 c 128,-1,78
 483 1439 483 1439 483 1403 c 2,79,-1
 483 1394 l 1,80,-1
 451 1359 l 1,81,82
 440 1359 440 1359 431 1360 c 128,-1,83
 422 1361 422 1361 415 1364.5 c 128,-1,84
 408 1368 408 1368 404 1370 c 128,-1,85
 400 1372 400 1372 394.5 1380 c 128,-1,86
 389 1388 389 1388 387 1390.5 c 128,-1,87
 385 1393 385 1393 378.5 1405.5 c 128,-1,88
 372 1418 372 1418 370 1422 c 1,89,-1
 370 1459 l 1,90,91
 358 1483 358 1483 352 1509 c 1,92,93
 329 1534 329 1534 293 1539 c 1,0,-1
EndSplineSet
EndChar

StartChar: currency
Encoding: 164 164 100
Width: 899
Flags: W
LayerCount: 2
Fore
SplineSet
235 696 m 0,0,1
 235 692 235 692 237.5 683 c 128,-1,2
 240 674 240 674 240 669 c 0,3,4
 240 655 240 655 237.5 627.5 c 128,-1,5
 235 600 235 600 235 585 c 0,6,7
 235 468 235 468 291 421 c 1,8,9
 291 359 291 359 335 332 c 128,-1,10
 379 305 379 305 447 305 c 0,11,12
 503 305 503 305 547 341.5 c 128,-1,13
 591 378 591 378 616 431 c 128,-1,14
 641 484 641 484 657 552.5 c 128,-1,15
 673 621 673 621 678 675.5 c 128,-1,16
 683 730 683 730 683 779 c 0,17,18
 683 837 683 837 664 939 c 128,-1,19
 645 1041 645 1041 620 1071 c 1,20,21
 598 1075 598 1075 583 1092.5 c 128,-1,22
 568 1110 568 1110 566 1132 c 1,23,24
 520 1181 520 1181 438 1181 c 0,25,26
 420 1181 420 1181 382 1151 c 128,-1,27
 344 1121 344 1121 327 1100 c 1,28,-1
 327 1086 l 2,29,30
 327 1082 327 1082 327.5 1070 c 128,-1,31
 328 1058 328 1058 328 1052 c 128,-1,32
 328 1046 328 1046 326 1036.5 c 128,-1,33
 324 1027 324 1027 320.5 1022 c 128,-1,34
 317 1017 317 1017 310 1013 c 128,-1,35
 303 1009 303 1009 293 1009 c 0,36,37
 275 1009 275 1009 255 887 c 128,-1,38
 235 765 235 765 235 696 c 0,0,1
684 251 m 1,39,-1
 684 293 l 1,40,41
 635 251 635 251 558.5 228 c 128,-1,42
 482 205 482 205 410 205 c 0,43,44
 310 205 310 205 221 290 c 1,45,46
 195 234 195 234 178 218 c 1,47,48
 158 201 158 201 135 201 c 0,49,50
 104 201 104 201 87.5 222.5 c 128,-1,51
 71 244 71 244 71 276 c 0,52,53
 71 293 71 293 87.5 314.5 c 128,-1,54
 104 336 104 336 127 358.5 c 128,-1,55
 150 381 150 381 157 392 c 1,56,57
 125 452 125 452 125 567 c 0,58,59
 125 971 125 971 197 1078 c 1,60,61
 191 1090 191 1090 145.5 1135.5 c 128,-1,62
 100 1181 100 1181 100 1209 c 0,63,64
 100 1228 100 1228 114.5 1241.5 c 128,-1,65
 129 1255 129 1255 148 1255 c 0,66,67
 157 1255 157 1255 166.5 1252.5 c 128,-1,68
 176 1250 176 1250 183 1247.5 c 128,-1,69
 190 1245 190 1245 198.5 1238 c 128,-1,70
 207 1231 207 1231 211.5 1227.5 c 128,-1,71
 216 1224 216 1224 224.5 1214 c 128,-1,72
 233 1204 233 1204 235.5 1201 c 128,-1,73
 238 1198 238 1198 247 1186 c 128,-1,74
 256 1174 256 1174 257 1172 c 1,75,76
 259 1174 259 1174 282.5 1200.5 c 128,-1,77
 306 1227 306 1227 319.5 1241 c 128,-1,78
 333 1255 333 1255 355 1270 c 128,-1,79
 377 1285 377 1285 392 1285 c 0,80,81
 512 1285 512 1285 623 1216 c 1,82,83
 631 1226 631 1226 654.5 1267 c 128,-1,84
 678 1308 678 1308 700.5 1329.5 c 128,-1,85
 723 1351 723 1351 754 1351 c 1,86,-1
 807 1304 l 1,87,88
 805 1277 805 1277 781.5 1241.5 c 128,-1,89
 758 1206 758 1206 735 1178 c 128,-1,90
 712 1150 712 1150 712 1141 c 0,91,92
 712 1081 712 1081 757 959.5 c 128,-1,93
 802 838 802 838 802 772 c 0,94,95
 802 708 802 708 768.5 584.5 c 128,-1,96
 735 461 735 461 735 396 c 0,97,98
 735 366 735 366 773.5 322 c 128,-1,99
 812 278 812 278 812 247 c 0,100,101
 812 226 812 226 797.5 210.5 c 128,-1,102
 783 195 783 195 762 195 c 0,103,104
 733 195 733 195 710 209.5 c 128,-1,105
 687 224 687 224 684 251 c 1,39,-1
EndSplineSet
EndChar

StartChar: yen
Encoding: 165 165 101
Width: 938
Flags: W
LayerCount: 2
Fore
SplineSet
106 1774 m 0,0,1
 150 1774 150 1774 231 1658.5 c 128,-1,2
 312 1543 312 1543 402.5 1380 c 128,-1,3
 493 1217 493 1217 500 1207 c 1,4,5
 509 1230 509 1230 541 1342.5 c 128,-1,6
 573 1455 573 1455 603.5 1557 c 128,-1,7
 634 1659 634 1659 676 1745.5 c 128,-1,8
 718 1832 718 1832 751 1832 c 0,9,10
 774 1832 774 1832 791.5 1816.5 c 128,-1,11
 809 1801 809 1801 809 1778 c 2,12,-1
 809 1768 l 1,13,14
 793 1724 793 1724 751 1612.5 c 128,-1,15
 709 1501 709 1501 682 1421 c 128,-1,16
 655 1341 655 1341 635 1262 c 0,17,18
 627 1231 627 1231 604 1164 c 128,-1,19
 581 1097 581 1097 573 1059 c 1,20,21
 582 1059 582 1059 649 1062.5 c 128,-1,22
 716 1066 716 1066 751 1066 c 0,23,24
 878 1066 878 1066 878 1005 c 0,25,26
 878 957 878 957 765 957 c 2,27,-1
 567 957 l 1,28,-1
 567 887 l 1,29,30
 577 887 577 887 646 888 c 128,-1,31
 715 889 715 889 763 889 c 0,32,33
 873 889 873 889 873 820 c 0,34,35
 873 803 873 803 855.5 791.5 c 128,-1,36
 838 780 838 780 817 780 c 0,37,38
 712 780 712 780 562 776 c 1,39,40
 562 672 562 672 546.5 461 c 128,-1,41
 531 250 531 250 531 142 c 0,42,43
 531 135 531 135 531.5 119 c 128,-1,44
 532 103 532 103 532 94 c 0,45,46
 532 48 532 48 518 20 c 128,-1,47
 504 -8 504 -8 463 -8 c 0,48,49
 439 -8 439 -8 419.5 4.5 c 128,-1,50
 400 17 400 17 400 40 c 2,51,-1
 400 45 l 1,52,53
 417 89 417 89 429.5 365 c 128,-1,54
 442 641 442 641 442 773 c 1,55,-1
 206 773 l 1,56,57
 178 774 178 774 161 794 c 128,-1,58
 144 814 144 814 144 838 c 0,59,60
 144 867 144 867 168 875 c 1,61,62
 303 875 303 875 450 883 c 1,63,64
 452 907 452 907 452 958 c 1,65,-1
 304 958 l 2,66,67
 173 958 173 958 173 1010 c 0,68,69
 173 1057 173 1057 254 1057 c 0,70,71
 271 1057 271 1057 304.5 1054.5 c 128,-1,72
 338 1052 338 1052 353 1052 c 0,73,74
 405 1052 405 1052 451 1059 c 1,75,-1
 451 1071 l 1,76,77
 419 1121 419 1121 343.5 1253.5 c 128,-1,78
 268 1386 268 1386 192.5 1508 c 128,-1,79
 117 1630 117 1630 53 1705 c 1,80,81
 44 1723 44 1723 44 1737 c 0,82,83
 44 1774 44 1774 106 1774 c 0,0,1
EndSplineSet
EndChar

StartChar: brokenbar
Encoding: 166 166 102
Width: 331
Flags: W
LayerCount: 2
Fore
SplineSet
159 695 m 0,0,1
 220 695 220 695 220 621 c 2,2,-1
 220 -16 l 2,3,4
 220 -80 220 -80 171 -80 c 0,5,6
 150 -80 150 -80 134.5 -65 c 128,-1,7
 119 -50 119 -50 119 -29 c 2,8,-1
 119 644 l 2,9,10
 119 664 119 664 130 679.5 c 128,-1,11
 141 695 141 695 159 695 c 0,0,1
114 1020 m 0,12,13
 114 1102 114 1102 110 1265.5 c 128,-1,14
 106 1429 106 1429 106 1510 c 0,15,16
 106 1584 106 1584 177 1584 c 0,17,18
 220 1584 220 1584 220 1393 c 2,19,-1
 220 877 l 2,20,21
 220 856 220 856 203 841 c 128,-1,22
 186 826 186 826 165 826 c 0,23,24
 114 826 114 826 114 1020 c 0,12,13
EndSplineSet
EndChar

StartChar: section
Encoding: 167 167 103
Width: 505
Flags: W
LayerCount: 2
Fore
SplineSet
430 634 m 0,0,1
 430 582 430 582 406.5 537 c 128,-1,2
 383 492 383 492 341 465 c 1,3,4
 415 349 415 349 415 246 c 0,5,6
 415 190 415 190 395.5 135 c 128,-1,7
 376 80 376 80 333 40.5 c 128,-1,8
 290 1 290 1 234 1 c 0,9,10
 199 1 199 1 167 24.5 c 128,-1,11
 135 48 135 48 135 82 c 0,12,13
 135 101 135 101 150.5 111 c 128,-1,14
 166 121 166 121 185 121 c 0,15,16
 205 121 205 121 226 109 c 1,17,18
 267 110 267 110 291 160 c 128,-1,19
 315 210 315 210 315 257 c 0,20,21
 315 303 315 303 297.5 349 c 128,-1,22
 280 395 280 395 253 431.5 c 128,-1,23
 226 468 226 468 195.5 512.5 c 128,-1,24
 165 557 165 557 138 598.5 c 128,-1,25
 111 640 111 640 93.5 698.5 c 128,-1,26
 76 757 76 757 76 820 c 0,27,28
 76 878 76 878 99.5 931.5 c 128,-1,29
 123 985 123 985 167 1018 c 1,30,31
 109 1138 109 1138 109 1275 c 0,32,33
 109 1443 109 1443 272 1443 c 0,34,35
 301 1443 301 1443 336 1430 c 128,-1,36
 371 1417 371 1417 371 1392 c 0,37,38
 371 1369 371 1369 352.5 1360.5 c 128,-1,39
 334 1352 334 1352 307.5 1351.5 c 128,-1,40
 281 1351 281 1351 254 1349 c 128,-1,41
 227 1347 227 1347 208.5 1329.5 c 128,-1,42
 190 1312 190 1312 190 1277 c 0,43,44
 190 1214 190 1214 214.5 1152.5 c 128,-1,45
 239 1091 239 1091 274.5 1038 c 128,-1,46
 310 985 310 985 345.5 928.5 c 128,-1,47
 381 872 381 872 405.5 795.5 c 128,-1,48
 430 719 430 719 430 634 c 0,0,1
330 649 m 0,49,50
 330 668 330 668 327 688 c 128,-1,51
 324 708 324 708 320.5 723.5 c 128,-1,52
 317 739 317 739 308 760.5 c 128,-1,53
 299 782 299 782 294 793.5 c 128,-1,54
 289 805 289 805 275.5 828.5 c 128,-1,55
 262 852 262 852 257.5 860 c 128,-1,56
 253 868 253 868 237 894 c 128,-1,57
 221 920 221 920 218 925 c 1,58,59
 176 871 176 871 176 795 c 0,60,61
 176 751 176 751 194 703.5 c 128,-1,62
 212 656 212 656 230.5 626.5 c 128,-1,63
 249 597 249 597 283 549 c 1,64,65
 330 591 330 591 330 649 c 0,49,50
EndSplineSet
EndChar

StartChar: dieresis
Encoding: 168 168 104
Width: 754
Flags: W
LayerCount: 2
Fore
SplineSet
517 1023 m 0,0,1
 517 1052 517 1052 539 1075 c 128,-1,2
 561 1098 561 1098 590 1098 c 0,3,4
 617 1098 617 1098 637.5 1075.5 c 128,-1,5
 658 1053 658 1053 658 1025 c 0,6,7
 658 994 658 994 635 974 c 128,-1,8
 612 954 612 954 581 954 c 0,9,10
 555 954 555 954 536 975 c 128,-1,11
 517 996 517 996 517 1023 c 0,0,1
156 954 m 0,12,13
 128 954 128 954 112.5 973 c 128,-1,14
 97 992 97 992 97 1021 c 0,15,16
 97 1052 97 1052 117 1073.5 c 128,-1,17
 137 1095 137 1095 167 1095 c 0,18,19
 196 1095 196 1095 217 1075 c 128,-1,20
 238 1055 238 1055 238 1026 c 0,21,22
 238 996 238 996 212.5 975 c 128,-1,23
 187 954 187 954 156 954 c 0,12,13
EndSplineSet
EndChar

StartChar: copyright
Encoding: 169 169 105
Width: 1233
Flags: W
LayerCount: 2
Fore
SplineSet
622 332 m 0,0,1
 658 332 658 332 688.5 349 c 128,-1,2
 719 366 719 366 736 386 c 128,-1,3
 753 406 753 406 776 423 c 128,-1,4
 799 440 799 440 823 440 c 0,5,6
 852 440 852 440 867.5 419.5 c 128,-1,7
 883 399 883 399 883 372 c 0,8,9
 883 331 883 331 837 295.5 c 128,-1,10
 791 260 791 260 734.5 242.5 c 128,-1,11
 678 225 678 225 634 225 c 0,12,13
 296 225 296 225 296 813 c 2,14,-1
 296 825 l 2,15,16
 296 871 296 871 296.5 902 c 128,-1,17
 297 933 297 933 300 991 c 128,-1,18
 303 1049 303 1049 308 1090.5 c 128,-1,19
 313 1132 313 1132 323.5 1188.5 c 128,-1,20
 334 1245 334 1245 348.5 1285.5 c 128,-1,21
 363 1326 363 1326 386 1368.5 c 128,-1,22
 409 1411 409 1411 438 1438 c 128,-1,23
 467 1465 467 1465 507.5 1482 c 128,-1,24
 548 1499 548 1499 596 1499 c 0,25,26
 682 1499 682 1499 772 1425.5 c 128,-1,27
 862 1352 862 1352 862 1275 c 0,28,29
 862 1254 862 1254 846.5 1238.5 c 128,-1,30
 831 1223 831 1223 807 1223 c 0,31,32
 777 1223 777 1223 754 1240 c 128,-1,33
 731 1257 731 1257 716.5 1281 c 128,-1,34
 702 1305 702 1305 688 1329 c 128,-1,35
 674 1353 674 1353 653.5 1370 c 128,-1,36
 633 1387 633 1387 606 1387 c 0,37,38
 550 1387 550 1387 505 1301.5 c 128,-1,39
 460 1216 460 1216 437 1086 c 128,-1,40
 414 956 414 956 414 815 c 0,41,42
 414 719 414 719 426 634.5 c 128,-1,43
 438 550 438 550 462 481 c 128,-1,44
 486 412 486 412 527 372 c 128,-1,45
 568 332 568 332 622 332 c 0,0,1
204 940 m 0,46,47
 204 888 204 888 207 832.5 c 128,-1,48
 210 777 210 777 215.5 702 c 128,-1,49
 221 627 221 627 223 595 c 0,50,51
 234 405 234 405 256 322 c 0,52,53
 306 130 306 130 467 91 c 0,54,55
 510 81 510 81 561 81 c 0,56,57
 763 81 763 81 877 180.5 c 128,-1,58
 991 280 991 280 1040 464 c 1,59,-1
 1040 894 l 2,60,61
 1040 928 1040 928 1033 965.5 c 128,-1,62
 1026 1003 1026 1003 1014 1050.5 c 128,-1,63
 1002 1098 1002 1098 997 1121 c 0,64,65
 979 1209 979 1209 958 1276 c 128,-1,66
 937 1343 937 1343 903 1416.5 c 128,-1,67
 869 1490 869 1490 816 1550.5 c 128,-1,68
 763 1611 763 1611 692 1658 c 1,69,70
 611 1713 611 1713 562 1713 c 0,71,72
 496 1713 496 1713 442 1681 c 128,-1,73
 388 1649 388 1649 352 1598.5 c 128,-1,74
 316 1548 316 1548 288 1477.5 c 128,-1,75
 260 1407 260 1407 244.5 1337 c 128,-1,76
 229 1267 229 1267 219.5 1188.5 c 128,-1,77
 210 1110 210 1110 207 1052.5 c 128,-1,78
 204 995 204 995 204 940 c 0,46,47
87 924 m 0,79,80
 87 994 87 994 90.5 1063.5 c 128,-1,81
 94 1133 94 1133 106 1224 c 128,-1,82
 118 1315 118 1315 137.5 1393.5 c 128,-1,83
 157 1472 157 1472 191.5 1551 c 128,-1,84
 226 1630 226 1630 271.5 1686 c 128,-1,85
 317 1742 317 1742 385 1777 c 128,-1,86
 453 1812 453 1812 535 1812 c 0,87,88
 640 1812 640 1812 729 1771.5 c 128,-1,89
 818 1731 818 1731 880.5 1664 c 128,-1,90
 943 1597 943 1597 992 1505.5 c 128,-1,91
 1041 1414 1041 1414 1071 1318.5 c 128,-1,92
 1101 1223 1101 1223 1120 1118 c 128,-1,93
 1139 1013 1139 1013 1146.5 925.5 c 128,-1,94
 1154 838 1154 838 1154 757 c 0,95,96
 1154 -20 1154 -20 589 -20 c 0,97,98
 305 -20 305 -20 197 159 c 0,99,100
 129 270 129 270 109 501 c 0,101,102
 105 548 105 548 99 660 c 0,103,104
 87 871 87 871 87 924 c 0,79,80
EndSplineSet
EndChar

StartChar: guillemotleft
Encoding: 171 171 106
Width: 728
Flags: W
LayerCount: 2
Fore
SplineSet
471 1440 m 1,0,1
 424 1332 424 1332 331.5 1075 c 128,-1,2
 239 818 239 818 177 687 c 1,3,4
 188 633 188 633 246.5 521 c 128,-1,5
 305 409 305 409 368 305 c 128,-1,6
 431 201 431 201 482.5 107 c 128,-1,7
 534 13 534 13 534 -13 c 0,8,9
 534 -35 534 -35 513.5 -47 c 128,-1,10
 493 -59 493 -59 470 -59 c 0,11,12
 449 -59 449 -59 349 110.5 c 128,-1,13
 249 280 249 280 157.5 467 c 128,-1,14
 66 654 66 654 66 697 c 0,15,16
 66 720 66 720 121.5 860 c 128,-1,17
 177 1000 177 1000 246.5 1166.5 c 128,-1,18
 316 1333 316 1333 327 1361 c 1,19,20
 330 1388 330 1388 349 1425 c 128,-1,21
 368 1462 368 1462 388 1483 c 1,22,-1
 388 1485 l 1,23,24
 390 1485 390 1485 397 1487 c 128,-1,25
 404 1489 404 1489 407 1489 c 0,26,27
 431 1489 431 1489 450.5 1476 c 128,-1,28
 470 1463 470 1463 471 1440 c 1,0,1
640 -22 m 0,29,30
 612 -22 612 -22 600 -18 c 0,31,32
 568 -8 568 -8 240 698 c 1,33,34
 242 754 242 754 346 980 c 128,-1,35
 450 1206 450 1206 464 1255 c 0,36,37
 465 1259 465 1259 472 1288.5 c 128,-1,38
 479 1318 479 1318 486 1340 c 128,-1,39
 493 1362 493 1362 504.5 1389.5 c 128,-1,40
 516 1417 516 1417 531 1432 c 128,-1,41
 546 1447 546 1447 563 1447 c 0,42,43
 564 1447 564 1447 566 1446.5 c 128,-1,44
 568 1446 568 1446 570 1446 c 1,45,-1
 615 1411 l 1,46,47
 606 1339 606 1339 563.5 1232.5 c 128,-1,48
 521 1126 521 1126 475.5 1037 c 128,-1,49
 430 948 430 948 393.5 853 c 128,-1,50
 357 758 357 758 357 702 c 0,51,52
 357 687 357 687 494.5 410 c 128,-1,53
 632 133 632 133 668 69 c 1,54,55
 667 60 667 60 668 48 c 128,-1,56
 669 36 669 36 668 24 c 128,-1,57
 667 12 667 12 665 1.5 c 128,-1,58
 663 -9 663 -9 656.5 -15.5 c 128,-1,59
 650 -22 650 -22 640 -22 c 0,29,30
EndSplineSet
EndChar

StartChar: logicalnot
Encoding: 172 172 107
Width: 993
Flags: W
LayerCount: 2
Fore
SplineSet
150 711 m 0,0,1
 129 711 129 711 114 726.5 c 128,-1,2
 99 742 99 742 99 763 c 0,3,4
 99 835 99 835 317 835 c 0,5,6
 362 835 362 835 424.5 831.5 c 128,-1,7
 487 828 487 828 494 828 c 0,8,9
 548 828 548 828 655 838 c 128,-1,10
 762 848 762 848 817 848 c 0,11,12
 842 848 842 848 863 831 c 128,-1,13
 884 814 884 814 884 790 c 0,14,15
 884 753 884 753 865 720 c 1,16,17
 865 612 865 612 889 537 c 1,18,19
 886 513 886 513 871.5 494 c 128,-1,20
 857 475 857 475 835 475 c 0,21,22
 772 475 772 475 772 592 c 0,23,24
 772 606 772 606 773 629 c 128,-1,25
 774 652 774 652 774 659 c 0,26,27
 774 700 774 700 769 727 c 1,28,29
 759 727 759 727 734 730 c 128,-1,30
 709 733 709 733 696 733 c 0,31,32
 607 733 607 733 425.5 722 c 128,-1,33
 244 711 244 711 150 711 c 0,0,1
EndSplineSet
EndChar

StartChar: uni00AD
Encoding: 173 173 108
Width: 648
Flags: W
LayerCount: 2
Fore
SplineSet
546 739 m 0,0,1
 546 714 546 714 497.5 695.5 c 128,-1,2
 449 677 449 677 378 669.5 c 128,-1,3
 307 662 307 662 256 659 c 128,-1,4
 205 656 205 656 171 656 c 0,5,6
 145 656 145 656 124.5 673 c 128,-1,7
 104 690 104 690 104 715 c 128,-1,8
 104 740 104 740 152.5 758 c 128,-1,9
 201 776 201 776 271.5 784 c 128,-1,10
 342 792 342 792 393.5 795 c 128,-1,11
 445 798 445 798 478 798 c 0,12,13
 504 798 504 798 525 781.5 c 128,-1,14
 546 765 546 765 546 739 c 0,0,1
EndSplineSet
EndChar

StartChar: registered
Encoding: 174 174 109
Width: 1161
Flags: W
LayerCount: 2
Fore
SplineSet
566 1525 m 0,0,1
 505 1525 505 1525 483 1494.5 c 128,-1,2
 461 1464 461 1464 461 1407 c 0,3,4
 461 1386 461 1386 465 1337 c 128,-1,5
 469 1288 469 1288 469 1263 c 0,6,7
 469 1090 469 1090 492 1000 c 1,8,9
 579 1037 579 1037 624.5 1106 c 128,-1,10
 670 1175 670 1175 670 1272 c 0,11,12
 670 1291 670 1291 670 1298 c 128,-1,13
 670 1305 670 1305 669.5 1327 c 128,-1,14
 669 1349 669 1349 667.5 1360.5 c 128,-1,15
 666 1372 666 1372 664 1393 c 128,-1,16
 662 1414 662 1414 658 1427 c 128,-1,17
 654 1440 654 1440 648.5 1457.5 c 128,-1,18
 643 1475 643 1475 635 1485 c 128,-1,19
 627 1495 627 1495 617.5 1505.5 c 128,-1,20
 608 1516 608 1516 594.5 1520.5 c 128,-1,21
 581 1525 581 1525 566 1525 c 0,0,1
862 199 m 0,22,23
 862 181 862 181 843 162 c 128,-1,24
 824 143 824 143 807 143 c 0,25,26
 774 143 774 143 740 210.5 c 128,-1,27
 706 278 706 278 677.5 382 c 128,-1,28
 649 486 649 486 625 590.5 c 128,-1,29
 601 695 601 695 580 790 c 128,-1,30
 559 885 559 885 548 914 c 1,31,-1
 495 914 l 1,32,33
 490 834 490 834 490 796 c 0,34,35
 490 698 490 698 512 503 c 128,-1,36
 534 308 534 308 534 210 c 0,37,38
 534 181 534 181 520.5 162 c 128,-1,39
 507 143 507 143 479 143 c 256,40,41
 451 143 451 143 428.5 161.5 c 128,-1,42
 406 180 406 180 406 208 c 0,43,44
 406 251 406 251 389 338.5 c 128,-1,45
 372 426 372 426 372 470 c 2,46,-1
 372 1454 l 2,47,48
 372 1510 372 1510 382.5 1545.5 c 128,-1,49
 393 1581 393 1581 417.5 1600.5 c 128,-1,50
 442 1620 442 1620 475 1627.5 c 128,-1,51
 508 1635 508 1635 560 1635 c 0,52,53
 601 1635 601 1635 635 1623 c 128,-1,54
 669 1611 669 1611 692 1591.5 c 128,-1,55
 715 1572 715 1572 732.5 1542.5 c 128,-1,56
 750 1513 750 1513 760.5 1482.5 c 128,-1,57
 771 1452 771 1452 777 1413.5 c 128,-1,58
 783 1375 783 1375 785 1342 c 128,-1,59
 787 1309 787 1309 787 1270 c 0,60,61
 787 1201 787 1201 774 1148.5 c 128,-1,62
 761 1096 761 1096 742 1067.5 c 128,-1,63
 723 1039 723 1039 704.5 1021 c 128,-1,64
 686 1003 686 1003 670.5 990.5 c 128,-1,65
 655 978 655 978 652 969 c 1,66,67
 655 893 655 893 827 314 c 1,68,69
 827 292 827 292 844.5 255.5 c 128,-1,70
 862 219 862 219 862 199 c 0,22,23
963 706 m 0,71,72
 963 1109 963 1109 933 1325 c 0,73,74
 863 1831 863 1831 624 1832 c 0,75,76
 561 1832 561 1832 507 1811 c 128,-1,77
 453 1790 453 1790 414 1755 c 128,-1,78
 375 1720 375 1720 343.5 1667.5 c 128,-1,79
 312 1615 312 1615 291 1561 c 128,-1,80
 270 1507 270 1507 254.5 1438 c 128,-1,81
 239 1369 239 1369 231 1310 c 128,-1,82
 223 1251 223 1251 218 1180 c 128,-1,83
 213 1109 213 1109 212 1060 c 128,-1,84
 211 1011 211 1011 211 954 c 0,85,86
 211 180 211 180 345 27 c 0,87,88
 365 4 365 4 410 -25.5 c 128,-1,89
 455 -55 455 -55 467 -64 c 1,90,-1
 526 -64 l 1,91,-1
 526 -84 l 1,92,93
 609 -83 609 -83 676 -54 c 128,-1,94
 743 -25 743 -25 788 20 c 128,-1,95
 833 65 833 65 866 132.5 c 128,-1,96
 899 200 899 200 917 266 c 128,-1,97
 935 332 935 332 946 415.5 c 128,-1,98
 957 499 957 499 960 564 c 128,-1,99
 963 629 963 629 963 706 c 0,71,72
613 -190 m 0,100,101
 510 -190 510 -190 428.5 -156.5 c 128,-1,102
 347 -123 347 -123 293.5 -72 c 128,-1,103
 240 -21 240 -21 201 61.5 c 128,-1,104
 162 144 162 144 141.5 220 c 128,-1,105
 121 296 121 296 109.5 402.5 c 128,-1,106
 98 509 98 509 95.5 585 c 128,-1,107
 93 661 93 661 93 765 c 0,108,109
 93 785 93 785 93 833 c 1,110,111
 90 885 90 885 92 948.5 c 128,-1,112
 94 1012 94 1012 94.5 1082 c 128,-1,113
 95 1152 95 1152 103 1226 c 128,-1,114
 111 1300 111 1300 121 1373 c 128,-1,115
 131 1446 131 1446 152 1516.5 c 128,-1,116
 173 1587 173 1587 199 1650 c 128,-1,117
 225 1713 225 1713 265 1765.5 c 128,-1,118
 305 1818 305 1818 353 1856.5 c 128,-1,119
 401 1895 401 1895 466.5 1916.5 c 128,-1,120
 532 1938 532 1938 609 1938 c 0,121,122
 694 1938 694 1938 772.5 1886 c 128,-1,123
 851 1834 851 1834 907 1755 c 1,124,125
 942 1734 942 1734 971.5 1643 c 128,-1,126
 1001 1552 1001 1552 1020 1435 c 128,-1,127
 1039 1318 1039 1318 1052.5 1188.5 c 128,-1,128
 1066 1059 1066 1059 1071.5 960.5 c 128,-1,129
 1077 862 1077 862 1077 807 c 0,130,131
 1077 705 1077 705 1076 643.5 c 128,-1,132
 1075 582 1075 582 1066 464.5 c 128,-1,133
 1057 347 1057 347 1040.5 270.5 c 128,-1,134
 1024 194 1024 194 990 98.5 c 128,-1,135
 956 3 956 3 908 -53.5 c 128,-1,136
 860 -110 860 -110 784.5 -150 c 128,-1,137
 709 -190 709 -190 613 -190 c 0,100,101
EndSplineSet
EndChar

StartChar: macron
Encoding: 175 175 110
Width: 652
Flags: W
LayerCount: 2
Fore
SplineSet
548 749 m 0,0,1
 548 704 548 704 482 704 c 0,2,3
 478 704 478 704 425.5 702 c 128,-1,4
 373 700 373 700 334 700 c 0,5,6
 106 700 106 700 106 756 c 0,7,8
 106 800 106 800 196 800 c 0,9,10
 200 800 200 800 251 802 c 128,-1,11
 302 804 302 804 340 804 c 0,12,13
 548 804 548 804 548 749 c 0,0,1
EndSplineSet
EndChar

StartChar: degree
Encoding: 176 176 111
Width: 704
Flags: W
LayerCount: 2
Fore
SplineSet
334 901 m 128,-1,1
 275 901 275 901 238 863 c 128,-1,2
 201 825 201 825 188.5 775.5 c 128,-1,3
 176 726 176 726 176 665 c 0,4,5
 176 617 176 617 224.5 566 c 128,-1,6
 273 515 273 515 334 515 c 0,7,8
 384 515 384 515 422.5 531.5 c 128,-1,9
 461 548 461 548 483 572.5 c 128,-1,10
 505 597 505 597 519 628 c 128,-1,11
 533 659 533 659 537.5 683.5 c 128,-1,12
 542 708 542 708 542 729 c 0,13,14
 542 756 542 756 532.5 783 c 128,-1,15
 523 810 523 810 501.5 838 c 128,-1,16
 480 866 480 866 436.5 883.5 c 128,-1,0
 393 901 393 901 334 901 c 128,-1,1
99 731 m 0,17,18
 99 834 99 834 162 902 c 128,-1,19
 225 970 225 970 325 970 c 0,20,21
 390 970 390 970 441.5 953.5 c 128,-1,22
 493 937 493 937 524 912 c 128,-1,23
 555 887 555 887 575 854 c 128,-1,24
 595 821 595 821 602.5 791.5 c 128,-1,25
 610 762 610 762 610 733 c 128,-1,26
 610 704 610 704 603.5 670 c 128,-1,27
 597 636 597 636 577.5 593.5 c 128,-1,28
 558 551 558 551 528 517.5 c 128,-1,29
 498 484 498 484 445.5 461 c 128,-1,30
 393 438 393 438 326 438 c 0,31,32
 260 438 260 438 213 467 c 128,-1,33
 166 496 166 496 142.5 543 c 128,-1,34
 119 590 119 590 109 636.5 c 128,-1,35
 99 683 99 683 99 731 c 0,17,18
EndSplineSet
EndChar

StartChar: plusminus
Encoding: 177 177 112
Width: 745
Flags: W
LayerCount: 2
Fore
SplineSet
417 909 m 2,0,-1
 417 884 l 2,1,2
 417 878 417 878 416.5 853.5 c 128,-1,3
 416 829 416 829 416.5 805.5 c 128,-1,4
 417 782 417 782 418 757 c 128,-1,5
 419 732 419 732 423.5 716.5 c 128,-1,6
 428 701 428 701 436 701 c 0,7,8
 446 701 446 701 487.5 705 c 128,-1,9
 529 709 529 709 555 709 c 0,10,11
 661 709 661 709 661 647 c 0,12,13
 661 623 661 623 644 607 c 128,-1,14
 627 591 627 591 603 591 c 0,15,16
 582 591 582 591 542 596.5 c 128,-1,17
 502 602 502 602 482 602 c 0,18,19
 417 602 417 602 417 553 c 0,20,21
 417 526 417 526 426.5 471.5 c 128,-1,22
 436 417 436 417 436 389 c 0,23,24
 436 364 436 364 415.5 348.5 c 128,-1,25
 395 333 395 333 369 333 c 0,26,27
 345 333 345 333 324 347.5 c 128,-1,28
 303 362 303 362 303 385 c 0,29,30
 303 418 303 418 306 484.5 c 128,-1,31
 309 551 309 551 309 584 c 2,32,-1
 309 599 l 1,33,34
 296 599 296 599 247 594.5 c 128,-1,35
 198 590 198 590 176 590 c 0,36,37
 89 590 89 590 89 655 c 0,38,39
 89 676 89 676 101.5 692 c 128,-1,40
 114 708 114 708 135 708 c 0,41,42
 155 708 155 708 195.5 704.5 c 128,-1,43
 236 701 236 701 256 701 c 0,44,45
 282 701 282 701 303 705 c 1,46,47
 302 726 302 726 296.5 777 c 128,-1,48
 291 828 291 828 291 855 c 0,49,50
 291 968 291 968 357 968 c 0,51,52
 381 968 381 968 399 950.5 c 128,-1,53
 417 933 417 933 417 909 c 2,0,-1
89 200 m 0,54,55
 89 221 89 221 101.5 233.5 c 128,-1,56
 114 246 114 246 135 246 c 2,57,-1
 562 246 l 2,58,59
 584 246 584 246 596 245 c 128,-1,60
 608 244 608 244 626 239.5 c 128,-1,61
 644 235 644 235 652.5 223 c 128,-1,62
 661 211 661 211 661 192 c 0,63,64
 661 168 661 168 644.5 156.5 c 128,-1,65
 628 145 628 145 603 145 c 0,66,67
 531 145 531 145 386.5 140 c 128,-1,68
 242 135 242 135 171 135 c 0,69,70
 89 135 89 135 89 200 c 0,54,55
EndSplineSet
EndChar

StartChar: uni00B2
Encoding: 178 178 113
Width: 578
Flags: W
LayerCount: 2
Fore
SplineSet
278 1586 m 1,0,-1
 278 1587 l 1,1,2
 314 1587 314 1587 343.5 1578.5 c 128,-1,3
 373 1570 373 1570 394.5 1557 c 128,-1,4
 416 1544 416 1544 432.5 1521 c 128,-1,5
 449 1498 449 1498 460 1478 c 128,-1,6
 471 1458 471 1458 478.5 1426 c 128,-1,7
 486 1394 486 1394 489.5 1371 c 128,-1,8
 493 1348 493 1348 495 1312 c 128,-1,9
 497 1276 497 1276 497.5 1256 c 128,-1,10
 498 1236 498 1236 498 1201 c 0,11,12
 498 1024 498 1024 453.5 800.5 c 128,-1,13
 409 577 409 577 340 422 c 0,14,15
 328 394 328 394 268 274.5 c 128,-1,16
 208 155 208 155 185 86 c 1,17,18
 309 107 309 107 417 107 c 1,19,20
 467 95 467 95 467 61 c 0,21,22
 467 37 467 37 443 4 c 1,23,24
 391 4 391 4 287 -5.5 c 128,-1,25
 183 -15 183 -15 131 -15 c 0,26,27
 102 -15 102 -15 79 2 c 128,-1,28
 56 19 56 19 56 47 c 2,29,-1
 56 55 l 1,30,31
 82 86 82 86 101 126.5 c 128,-1,32
 120 167 120 167 138.5 220 c 128,-1,33
 157 273 157 273 169 299 c 0,34,35
 286 558 286 558 343 774 c 128,-1,36
 400 990 400 990 400 1236 c 0,37,38
 400 1492 400 1492 302 1500 c 1,39,40
 284 1490 284 1490 272.5 1460.5 c 128,-1,41
 261 1431 261 1431 256.5 1402 c 128,-1,42
 252 1373 252 1373 237 1350 c 128,-1,43
 222 1327 222 1327 196 1327 c 0,44,45
 146 1327 146 1327 146 1390 c 0,46,47
 146 1431 146 1431 159 1474 c 128,-1,48
 172 1517 172 1517 203.5 1551.5 c 128,-1,49
 235 1586 235 1586 278 1586 c 1,0,-1
EndSplineSet
EndChar

StartChar: uni00B3
Encoding: 179 179 114
Width: 600
Flags: W
LayerCount: 2
Fore
SplineSet
234 865 m 1,0,-1
 234 889 l 2,1,2
 234 909 234 909 253 937 c 128,-1,3
 272 965 272 965 294.5 991.5 c 128,-1,4
 317 1018 317 1018 335.5 1061.5 c 128,-1,5
 354 1105 354 1105 354 1150 c 0,6,7
 354 1185 354 1185 350 1231 c 128,-1,8
 346 1277 346 1277 336 1337 c 128,-1,9
 326 1397 326 1397 302.5 1437 c 128,-1,10
 279 1477 279 1477 247 1477 c 0,11,12
 222 1477 222 1477 205.5 1458.5 c 128,-1,13
 189 1440 189 1440 182 1418.5 c 128,-1,14
 175 1397 175 1397 157.5 1378.5 c 128,-1,15
 140 1360 140 1360 112 1360 c 0,16,17
 89 1360 89 1360 73 1376.5 c 128,-1,18
 57 1393 57 1393 53 1416 c 1,19,20
 81 1485 81 1485 131.5 1529 c 128,-1,21
 182 1573 182 1573 251 1573 c 0,22,23
 310 1573 310 1573 357 1522 c 1,24,25
 401 1521 401 1521 428.5 1366 c 128,-1,26
 456 1211 456 1211 456 1124 c 0,27,28
 456 1094 456 1094 446.5 1065 c 128,-1,29
 437 1036 437 1036 427.5 1020.5 c 128,-1,30
 418 1005 418 1005 395 972 c 128,-1,31
 372 939 372 939 364 927 c 1,32,33
 413 898 413 898 448.5 826.5 c 128,-1,34
 484 755 484 755 501.5 666.5 c 128,-1,35
 519 578 519 578 527 502 c 128,-1,36
 535 426 535 426 535 361 c 0,37,38
 535 316 535 316 533 280.5 c 128,-1,39
 531 245 531 245 524.5 197 c 128,-1,40
 518 149 518 149 503.5 114 c 128,-1,41
 489 79 489 79 466.5 46.5 c 128,-1,42
 444 14 444 14 407.5 -3 c 128,-1,43
 371 -20 371 -20 323 -20 c 0,44,45
 291 -20 291 -20 258.5 -11.5 c 128,-1,46
 226 -3 226 -3 199 20 c 128,-1,47
 172 43 172 43 172 76 c 2,48,-1
 172 89 l 1,49,-1
 206 89 l 1,50,51
 217 87 217 87 234.5 85.5 c 128,-1,52
 252 84 252 84 261 83 c 128,-1,53
 270 82 270 82 282.5 77 c 128,-1,54
 295 72 295 72 307 64 c 1,55,56
 432 69 432 69 432 294 c 0,57,58
 432 387 432 387 429.5 442.5 c 128,-1,59
 427 498 427 498 416 579.5 c 128,-1,60
 405 661 405 661 378 727.5 c 128,-1,61
 351 794 351 794 307 849 c 1,62,63
 303 848 303 848 294 848 c 0,64,65
 272 848 272 848 234 865 c 1,0,-1
EndSplineSet
EndChar

StartChar: acute
Encoding: 180 180 115
Width: 530
Flags: W
LayerCount: 2
Fore
SplineSet
90 1339 m 2,0,-1
 90 1341 l 1,1,2
 91 1365 91 1365 145.5 1411.5 c 128,-1,3
 200 1458 200 1458 271.5 1508.5 c 128,-1,4
 343 1559 343 1559 358 1573 c 1,5,6
 390 1573 390 1573 413 1559.5 c 128,-1,7
 436 1546 436 1546 436 1517 c 0,8,9
 436 1516 436 1516 427 1468 c 1,10,11
 361 1441 361 1441 284.5 1388.5 c 128,-1,12
 208 1336 208 1336 159 1285 c 1,13,14
 130 1285 130 1285 110 1298.5 c 128,-1,15
 90 1312 90 1312 90 1339 c 2,0,-1
EndSplineSet
EndChar

StartChar: uni00B5
Encoding: 181 181 116
AltUni2: 0003bc.ffffffff.0
Width: 686
Flags: W
LayerCount: 2
Fore
SplineSet
535 878 m 1,0,1
 526 834 526 834 521 740 c 128,-1,2
 516 646 516 646 514 551 c 128,-1,3
 512 456 512 456 499.5 348.5 c 128,-1,4
 487 241 487 241 465.5 159.5 c 128,-1,5
 444 78 444 78 396.5 24 c 128,-1,6
 349 -30 349 -30 280 -31 c 0,7,8
 216 -31 216 -31 171 11 c 1,9,10
 174 -78 174 -78 174 -166 c 0,11,12
 174 -248 174 -248 111 -248 c 0,13,14
 90 -248 90 -248 77.5 -235.5 c 128,-1,15
 65 -223 65 -223 65 -202 c 2,16,-1
 65 99 l 2,17,18
 65 157 65 157 61.5 286 c 128,-1,19
 58 415 58 415 58 475 c 2,20,-1
 58 484 l 2,21,22
 58 594 58 594 63.5 758 c 128,-1,23
 69 922 69 922 69 1013 c 0,24,25
 69 1190 69 1190 44 1306 c 1,26,-1
 44 1355 l 1,27,28
 93 1355 93 1355 121.5 1317 c 128,-1,29
 150 1279 150 1279 150 1232 c 2,30,-1
 150 241 l 2,31,32
 150 192 150 192 164 146.5 c 128,-1,33
 178 101 178 101 213 66 c 128,-1,34
 248 31 248 31 299 31 c 0,35,36
 338 31 338 31 366 152 c 128,-1,37
 394 273 394 273 403 385 c 128,-1,38
 412 497 412 497 412 559 c 0,39,40
 412 683 412 683 425 932.5 c 128,-1,41
 438 1182 438 1182 438 1307 c 0,42,43
 438 1313 438 1313 437.5 1324.5 c 128,-1,44
 437 1336 437 1336 437 1341 c 0,45,46
 437 1365 437 1365 448 1377 c 128,-1,47
 459 1389 459 1389 493 1389 c 0,48,49
 521 1389 521 1389 536 1372 c 128,-1,50
 551 1355 551 1355 553.5 1337.5 c 128,-1,51
 556 1320 556 1320 556 1290 c 0,52,53
 556 1255 556 1255 549 1186 c 128,-1,54
 542 1117 542 1117 542 1084 c 0,55,56
 542 1056 542 1056 537.5 999 c 128,-1,57
 533 942 533 942 533 913 c 0,58,59
 533 907 533 907 534 895.5 c 128,-1,60
 535 884 535 884 535 878 c 1,0,1
EndSplineSet
EndChar

StartChar: paragraph
Encoding: 182 182 117
Width: 935
Flags: W
LayerCount: 2
Fore
SplineSet
697 1859 m 1,0,-1
 697 1858 l 1,1,-1
 751 1858 l 1,2,-1
 751 1854 l 1,3,4
 794 1852 794 1852 838.5 1836.5 c 128,-1,5
 883 1821 883 1821 883 1790 c 0,6,7
 883 1735 883 1735 803 1739 c 1,8,9
 803 1644 803 1644 810 1444.5 c 128,-1,10
 817 1245 817 1245 817 1142 c 0,11,12
 817 996 817 996 811 703.5 c 128,-1,13
 805 411 805 411 805 265 c 0,14,15
 805 227 805 227 811 150.5 c 128,-1,16
 817 74 817 74 817 36 c 0,17,18
 817 12 817 12 800 -4 c 128,-1,19
 783 -20 783 -20 759 -20 c 0,20,21
 685 -20 685 -20 685 103 c 0,22,23
 685 282 685 282 694 640 c 128,-1,24
 703 998 703 998 703 1177 c 0,25,26
 703 1252 703 1252 696 1400 c 128,-1,27
 689 1548 689 1548 689 1623 c 0,28,29
 689 1632 689 1632 690.5 1654.5 c 128,-1,30
 692 1677 692 1677 692 1689 c 0,31,32
 692 1769 692 1769 632 1769 c 0,33,34
 624 1769 624 1769 624 1689 c 0,35,36
 624 1570 624 1570 636.5 1334 c 128,-1,37
 649 1098 649 1098 649 980 c 0,38,39
 649 827 649 827 631 522 c 128,-1,40
 613 217 613 217 613 64 c 0,41,42
 613 28 613 28 600.5 10 c 128,-1,43
 588 -8 588 -8 554 -8 c 0,44,45
 527 -8 527 -8 509.5 10.5 c 128,-1,46
 492 29 492 29 492 56 c 0,47,48
 492 208 492 208 513.5 510 c 128,-1,49
 535 812 535 812 535 964 c 0,50,51
 535 990 535 990 533 1036.5 c 128,-1,52
 531 1083 531 1083 531 1098 c 1,53,54
 470 1098 470 1098 421.5 1101.5 c 128,-1,55
 373 1105 373 1105 311.5 1118.5 c 128,-1,56
 250 1132 250 1132 206 1154.5 c 128,-1,57
 162 1177 162 1177 125.5 1220 c 128,-1,58
 89 1263 89 1263 76 1321 c 0,59,60
 75 1326 75 1326 71.5 1349 c 128,-1,61
 68 1372 68 1372 63 1384 c 1,62,63
 63 1474 63 1474 76 1542.5 c 128,-1,64
 89 1611 89 1611 118.5 1660.5 c 128,-1,65
 148 1710 148 1710 186.5 1743.5 c 128,-1,66
 225 1777 225 1777 284 1799 c 128,-1,67
 343 1821 343 1821 406.5 1833.5 c 128,-1,68
 470 1846 470 1846 558 1854 c 1,69,70
 580 1876 580 1876 620 1876 c 0,71,72
 635 1876 635 1876 664 1868 c 128,-1,73
 693 1860 693 1860 697 1859 c 1,0,-1
433 1748 m 0,74,75
 327 1748 327 1748 252 1655.5 c 128,-1,76
 177 1563 177 1563 176 1455 c 0,77,78
 176 1398 176 1398 187.5 1355.5 c 128,-1,79
 199 1313 199 1313 222 1285 c 128,-1,80
 245 1257 245 1257 273.5 1239 c 128,-1,81
 302 1221 302 1221 343.5 1212 c 128,-1,82
 385 1203 385 1203 424.5 1199.5 c 128,-1,83
 464 1196 464 1196 518 1196 c 0,84,85
 520 1196 520 1196 522.5 1196.5 c 128,-1,86
 525 1197 525 1197 528.5 1198.5 c 128,-1,87
 532 1200 532 1200 533 1200 c 1,88,89
 533 1283 533 1283 523 1448.5 c 128,-1,90
 513 1614 513 1614 513 1697 c 2,91,-1
 513 1740 l 1,92,93
 486 1748 486 1748 433 1748 c 0,74,75
EndSplineSet
EndChar

StartChar: periodcentered
Encoding: 183 183 118
Width: 361
Flags: W
LayerCount: 2
Fore
SplineSet
106 706 m 0,0,1
 106 737 106 737 129 761 c 128,-1,2
 152 785 152 785 183 785 c 0,3,4
 212 785 212 785 234 761 c 128,-1,5
 256 737 256 737 256 708 c 0,6,7
 256 674 256 674 233 653.5 c 128,-1,8
 210 633 210 633 175 633 c 0,9,10
 147 633 147 633 126.5 655.5 c 128,-1,11
 106 678 106 678 106 706 c 0,0,1
EndSplineSet
EndChar

StartChar: cedilla
Encoding: 184 184 119
Width: 461
Flags: W
LayerCount: 2
Fore
SplineSet
112 -157 m 1,0,1
 131 -119 131 -119 131 -45 c 2,2,-1
 131 2 l 1,3,-1
 243 2 l 1,4,5
 232 -55 232 -55 230 -91 c 1,6,7
 308 -106 308 -106 343.5 -169 c 128,-1,8
 379 -232 379 -232 379 -318 c 0,9,10
 379 -385 379 -385 323 -444.5 c 128,-1,11
 267 -504 267 -504 200 -504 c 0,12,13
 158 -504 158 -504 123 -483.5 c 128,-1,14
 88 -463 88 -463 88 -425 c 0,15,16
 88 -407 88 -407 102 -394 c 128,-1,17
 116 -381 116 -381 134 -381 c 0,18,19
 171 -381 171 -381 200 -401 c 1,20,21
 215 -400 215 -400 230.5 -378.5 c 128,-1,22
 246 -357 246 -357 246 -341 c 128,-1,23
 246 -325 246 -325 242.5 -308.5 c 128,-1,24
 239 -292 239 -292 232 -271 c 128,-1,25
 225 -250 225 -250 223 -240 c 1,26,-1
 258 -275 l 1,27,-1
 258 -266 l 2,28,29
 258 -230 258 -230 241 -214 c 1,30,31
 208 -219 208 -219 194 -219 c 0,32,33
 168 -219 168 -219 152 -206.5 c 128,-1,34
 136 -194 136 -194 112 -157 c 1,0,1
EndSplineSet
EndChar

StartChar: uni00B9
Encoding: 185 185 120
Width: 602
Flags: W
LayerCount: 2
Fore
SplineSet
464 102 m 1,0,-1
 464 103 l 1,1,2
 550 103 550 103 550 52 c 0,3,4
 550 -8 550 -8 317 -8 c 0,5,6
 301 -8 301 -8 284 -8.5 c 128,-1,7
 267 -9 267 -9 256 -9 c 0,8,9
 218 -9 218 -9 195.5 2 c 128,-1,10
 173 13 173 13 173 47 c 2,11,-1
 173 91 l 1,12,13
 238 86 238 86 245 86 c 0,14,15
 290 86 290 86 290 120 c 0,16,17
 290 430 290 430 255 924 c 0,18,19
 252 967 252 967 244.5 1045 c 128,-1,20
 237 1123 237 1123 232.5 1187 c 128,-1,21
 228 1251 228 1251 228 1308 c 0,22,23
 228 1318 228 1318 229.5 1343.5 c 128,-1,24
 231 1369 231 1369 231 1383 c 0,25,26
 231 1479 231 1479 160 1479 c 0,27,28
 154 1479 154 1479 138 1478 c 128,-1,29
 122 1477 122 1477 113 1477 c 0,30,31
 55 1477 55 1477 55 1521 c 0,32,33
 55 1575 55 1575 220 1575 c 0,34,35
 242 1575 242 1575 255 1573.5 c 128,-1,36
 268 1572 268 1572 285 1564 c 128,-1,37
 302 1556 302 1556 310 1541 c 1,38,39
 306 1534 306 1534 309.5 1498 c 128,-1,40
 313 1462 313 1462 313 1455 c 0,41,42
 313 1392 313 1392 328.5 1267 c 128,-1,43
 344 1142 344 1142 344 1079 c 0,44,45
 344 918 344 918 366.5 594.5 c 128,-1,46
 389 271 389 271 389 109 c 2,47,-1
 389 96 l 1,48,49
 397 97 397 97 412.5 98.5 c 128,-1,50
 428 100 428 100 440.5 101 c 128,-1,51
 453 102 453 102 464 102 c 1,0,-1
EndSplineSet
EndChar

StartChar: guillemotright
Encoding: 187 187 121
Width: 755
Flags: W
LayerCount: 2
Fore
SplineSet
363 1486 m 1,0,-1
 363 1485 l 1,1,2
 385 1463 385 1463 405 1427 c 128,-1,3
 425 1391 425 1391 429 1363 c 1,4,5
 439 1337 439 1337 509 1169 c 128,-1,6
 579 1001 579 1001 634 862 c 128,-1,7
 689 723 689 723 689 700 c 0,8,9
 689 658 689 658 597.5 470.5 c 128,-1,10
 506 283 506 283 406.5 113.5 c 128,-1,11
 307 -56 307 -56 286 -56 c 0,12,13
 262 -56 262 -56 241.5 -44 c 128,-1,14
 221 -32 221 -32 221 -10 c 0,15,16
 221 16 221 16 272.5 110 c 128,-1,17
 324 204 324 204 387 308 c 128,-1,18
 450 412 450 412 509 523.5 c 128,-1,19
 568 635 568 635 579 689 c 1,20,21
 542 766 542 766 505.5 874 c 128,-1,22
 469 982 469 982 443.5 1068 c 128,-1,23
 418 1154 418 1154 376 1255.5 c 128,-1,24
 334 1357 334 1357 283 1433 c 1,25,26
 285 1458 285 1458 303.5 1474 c 128,-1,27
 322 1490 322 1490 348 1490 c 0,28,29
 350 1490 350 1490 352.5 1489.5 c 128,-1,30
 355 1489 355 1489 358.5 1487.5 c 128,-1,31
 362 1486 362 1486 363 1486 c 1,0,-1
155 -19 m 1,32,33
 148 -19 148 -19 134 -21 c 128,-1,34
 120 -23 120 -23 113 -23 c 0,35,36
 88 -23 88 -23 74 -0.5 c 128,-1,37
 60 22 60 22 59 49 c 1,38,39
 129 178 129 178 261.5 433 c 128,-1,40
 394 688 394 688 394 702 c 0,41,42
 394 759 394 759 367.5 833.5 c 128,-1,43
 341 908 341 908 303.5 981.5 c 128,-1,44
 266 1055 266 1055 228.5 1129 c 128,-1,45
 191 1203 191 1203 164.5 1278.5 c 128,-1,46
 138 1354 138 1354 137 1411 c 1,47,-1
 182 1446 l 1,48,-1
 182 1444 l 1,49,50
 203 1434 203 1434 218.5 1420 c 128,-1,51
 234 1406 234 1406 246 1380.5 c 128,-1,52
 258 1355 258 1355 262.5 1343.5 c 128,-1,53
 267 1332 267 1332 277 1295.5 c 128,-1,54
 287 1259 287 1259 288 1255 c 0,55,56
 302 1205 302 1205 406 981 c 128,-1,57
 510 757 510 757 512 698 c 1,58,-1
 155 -19 l 1,32,33
EndSplineSet
EndChar

StartChar: onequarter
Encoding: 188 188 122
Width: 1561
Flags: W
LayerCount: 2
Fore
SplineSet
461 102 m 1,0,-1
 461 103 l 1,1,2
 544 103 544 103 544 52 c 0,3,4
 544 -8 544 -8 317 -8 c 0,5,6
 301 -8 301 -8 284 -8.5 c 128,-1,7
 267 -9 267 -9 256 -9 c 0,8,9
 218 -9 218 -9 195.5 2 c 128,-1,10
 173 13 173 13 173 47 c 2,11,-1
 173 91 l 1,12,13
 238 86 238 86 245 86 c 0,14,15
 290 86 290 86 290 120 c 0,16,17
 290 430 290 430 255 924 c 0,18,19
 252 967 252 967 244.5 1045 c 128,-1,20
 237 1123 237 1123 232.5 1187 c 128,-1,21
 228 1251 228 1251 228 1308 c 0,22,23
 228 1318 228 1318 229.5 1343.5 c 128,-1,24
 231 1369 231 1369 231 1383 c 0,25,26
 231 1479 231 1479 160 1479 c 0,27,28
 154 1479 154 1479 138 1478 c 128,-1,29
 122 1477 122 1477 113 1477 c 0,30,31
 55 1477 55 1477 55 1521 c 0,32,33
 55 1575 55 1575 220 1575 c 0,34,35
 242 1575 242 1575 255 1573.5 c 128,-1,36
 268 1572 268 1572 285 1564 c 128,-1,37
 302 1556 302 1556 310 1541 c 1,38,39
 306 1534 306 1534 309.5 1498 c 128,-1,40
 313 1462 313 1462 313 1455 c 0,41,42
 313 1392 313 1392 328.5 1267 c 128,-1,43
 344 1142 344 1142 344 1079 c 0,44,45
 344 918 344 918 366.5 594.5 c 128,-1,46
 389 271 389 271 389 109 c 2,47,-1
 389 96 l 1,48,49
 397 97 397 97 411.5 98.5 c 128,-1,50
 426 100 426 100 438 101 c 128,-1,51
 450 102 450 102 461 102 c 1,0,-1
609 30 m 0,52,53
 609 166 609 166 672 437 c 128,-1,54
 735 708 735 708 818 1016.5 c 128,-1,55
 901 1325 901 1325 925 1453 c 0,56,57
 925 1455 925 1455 928 1470 c 128,-1,58
 931 1485 931 1485 932.5 1492.5 c 128,-1,59
 934 1500 934 1500 938.5 1513.5 c 128,-1,60
 943 1527 943 1527 948 1534 c 128,-1,61
 953 1541 953 1541 961.5 1547 c 128,-1,62
 970 1553 970 1553 980 1553 c 0,63,64
 1001 1553 1001 1553 1016.5 1539 c 128,-1,65
 1032 1525 1032 1525 1032 1503 c 0,66,67
 1032 1474 1032 1474 1025.5 1442 c 128,-1,68
 1019 1410 1019 1410 1007.5 1370 c 128,-1,69
 996 1330 996 1330 992 1311 c 0,70,71
 858 712 858 712 770 292 c 0,72,73
 769 287 769 287 760.5 237.5 c 128,-1,74
 752 188 752 188 744 151 c 128,-1,75
 736 114 736 114 722.5 67.5 c 128,-1,76
 709 21 709 21 691 -5 c 128,-1,77
 673 -31 673 -31 653 -31 c 1,78,79
 609 -2 609 -2 609 30 c 0,52,53
1196 480 m 1,80,-1
 1196 479 l 1,81,82
 1157 479 1157 479 1115 512 c 1,83,84
 1115 558 1115 558 1124 591 c 1,85,86
 1115 639 1115 639 1115 706 c 0,87,88
 1115 776 1115 776 1130.5 917 c 128,-1,89
 1146 1058 1146 1058 1146 1124 c 2,90,-1
 1146 1503 l 2,91,92
 1146 1516 1146 1516 1148 1523.5 c 128,-1,93
 1150 1531 1150 1531 1159 1537 c 128,-1,94
 1168 1543 1168 1543 1185 1543 c 0,95,96
 1208 1543 1208 1543 1226.5 1529 c 128,-1,97
 1245 1515 1245 1515 1245 1492 c 0,98,99
 1245 1466 1245 1466 1240.5 1413 c 128,-1,100
 1236 1360 1236 1360 1236 1333 c 0,101,102
 1236 1291 1236 1291 1244 1259 c 1,103,-1
 1244 1252 l 1,104,105
 1245 1243 1245 1243 1245 1143 c 0,106,107
 1245 1056 1245 1056 1231 882.5 c 128,-1,108
 1217 709 1217 709 1217 622 c 0,109,110
 1217 598 1217 598 1220 576 c 1,111,112
 1253 577 1253 577 1293 587 c 1,113,114
 1292 785 1292 785 1279 1000 c 0,115,116
 1278 1023 1278 1023 1270 1076.5 c 128,-1,117
 1262 1130 1262 1130 1262 1160 c 0,118,119
 1262 1181 1262 1181 1282 1193.5 c 128,-1,120
 1302 1206 1302 1206 1325 1206 c 1,121,-1
 1367 1170 l 1,122,123
 1367 1158 1367 1158 1367 1107.5 c 128,-1,124
 1367 1057 1367 1057 1367 1041 c 128,-1,125
 1367 1025 1367 1025 1367.5 979.5 c 128,-1,126
 1368 934 1368 934 1368.5 913 c 128,-1,127
 1369 892 1369 892 1370 851.5 c 128,-1,128
 1371 811 1371 811 1373 785 c 128,-1,129
 1375 759 1375 759 1378 724 c 128,-1,130
 1381 689 1381 689 1384.5 658 c 128,-1,131
 1388 627 1388 627 1393 596 c 1,132,133
 1396 596 1396 596 1417.5 598.5 c 128,-1,134
 1439 601 1439 601 1452 601 c 0,135,136
 1513 601 1513 601 1513 557 c 0,137,138
 1513 527 1513 527 1495.5 517 c 128,-1,139
 1478 507 1478 507 1446 507 c 0,140,141
 1398 507 1398 507 1398 489 c 0,142,143
 1398 190 1398 190 1413 155 c 1,144,145
 1409 131 1409 131 1409 117 c 0,146,147
 1409 92 1409 92 1419 76 c 1,148,-1
 1419 39 l 2,149,150
 1419 10 1419 10 1407.5 -14 c 128,-1,151
 1396 -38 1396 -38 1370 -38 c 0,152,153
 1339 -38 1339 -38 1324 -6.5 c 128,-1,154
 1309 25 1309 25 1309 59 c 2,155,-1
 1309 66 l 1,156,157
 1316 90 1316 90 1316 140 c 0,158,159
 1316 174 1316 174 1308.5 240 c 128,-1,160
 1301 306 1301 306 1301 339 c 0,161,162
 1301 388 1301 388 1309 428 c 1,163,164
 1309 463 1309 463 1305 491 c 1,165,166
 1289 490 1289 490 1252.5 485 c 128,-1,167
 1216 480 1216 480 1196 480 c 1,80,-1
EndSplineSet
EndChar

